<?xml version="1.0" encoding="UTF-8"?>
<svg width="128px" height="173px" viewBox="0 0 128 173" version="1.1" xmlns="http://www.w3.org/2000/svg" xmlns:xlink="http://www.w3.org/1999/xlink">
    <title>网页尺寸备份 5</title>
    <defs>
        <polygon id="path-1" points="0 1.11120664 25.6063348 1.11120664 25.6063348 39.757777 0 39.757777"></polygon>
        <polygon id="path-3" points="0.0327616367 1.23667461 25.0287482 1.23667461 25.0287482 38.9644394 0.0327616367 38.9644394"></polygon>
    </defs>
    <g id="页面-1" stroke="none" stroke-width="1" fill="none" fill-rule="evenodd">
        <g id="网页尺寸备份-5" transform="translate(-1164.000000, -388.000000)">
            <rect fill="#FFFFFF" opacity="0" x="0" y="0" width="1920" height="1080"></rect>
            <g id="编组-8" transform="translate(1164.717748, 387.963364)">
                <g id="编组" transform="translate(51.282252, 0.000000)">
                    <g transform="translate(0.000000, 0.219212)">
                        <mask id="mask-2" fill="white">
                            <use xlink:href="#path-1"></use>
                        </mask>
                        <g id="Clip-2"></g>
                        <path d="M25.5469891,2.60506745 C25.5431433,1.27166366 24.5899271,0.728302995 23.4293109,1.39830131 L2.10391558,13.7107222 C0.943299393,14.3807205 -0.00359859694,16.0209665 -3.75382417e-05,17.3543703 L0.0593081741,38.2638667 C0.0631540028,39.5975452 1.01637014,40.1406312 2.17671163,39.4706329 L9.28984668,35.3638371 L9.40796857,35.4445995 L12.6782966,37.6801249 L15.9250002,31.6822802 L16.0422979,31.4655402 L23.5023817,27.158212 C24.6629979,26.487939 25.6098959,24.8479677 25.6063348,23.5142892 L25.5469891,2.60506745 Z" id="Fill-1" fill="#E4FAD9" mask="url(#mask-2)"></path>
                    </g>
                    <path d="M31.0240811,5.70892599 C31.0202353,4.3752475 30.0670192,3.83216153 28.9066777,4.50188515 L7.5810076,16.8145807 C6.42039141,17.4843044 5.47349342,19.124825 5.47705448,20.4582288 L5.53640019,41.3677253 C5.54024602,42.7011291 6.49346216,43.2444897 7.65407835,42.5742167 L14.7669387,38.4676957 L14.8853353,38.5484581 L18.1553886,40.7839834 L21.4020922,34.785864 L21.51939,34.5693988 L28.9794737,30.2620705 C30.1400899,29.5917975 31.0869879,27.9518262 31.0834268,26.6181477 L31.0240811,5.70892599 Z" id="Fill-3" fill="#C9F5B3"></path>
                    <g transform="translate(12.636295, 6.537360)">
                        <mask id="mask-4" fill="white">
                            <use xlink:href="#path-3"></use>
                        </mask>
                        <g id="Clip-6"></g>
                        <path d="M22.9044652,1.51700007 C24.0373365,0.862934473 24.9672029,1.39310944 24.9710488,2.69464779 L25.0287482,23.1077576 C25.032582,24.409296 24.108759,26.0105343 22.9758877,26.6645999 L15.6927121,30.8697389 L15.578436,31.0807101 L12.4089237,36.9362592 L9.21661112,34.7537513 L9.10068685,34.6754612 L2.15704296,38.684463 C1.02444638,39.3385286 0.0945799181,38.8072549 0.0907340893,37.5057165 L0.0327616367,17.0926067 C0.0292008286,15.7910683 0.953023845,14.1909289 2.08589513,13.5368633 L22.9044652,1.51700007 Z" id="Fill-5" fill="#46DD00" mask="url(#mask-4)"></path>
                    </g>
                    <path d="M21.2506215,27.0592368 C22.1851579,26.5194473 22.9441596,26.9532018 22.9471925,28.0261881 C22.9485549,28.4654367 22.8227413,28.9442423 22.6095725,29.3933802 C22.5439188,29.5315553 22.4700239,29.6669835 22.3892615,29.7974669 C22.0906604,30.2787449 21.6956388,30.6949186 21.2616095,30.9454468 C20.7468179,31.2426745 20.2844943,31.2443227 19.9732569,31.0058813 C19.9023838,30.951765 19.8392023,30.8850124 19.785086,30.8064476 C19.6458121,30.6045416 19.5658738,30.3251696 19.5650406,29.9787703 C19.5620279,28.9060588 20.3169092,27.5982023 21.2506215,27.0592368" id="Fill-7" fill="#FFFFFF"></path>
                    <path d="M22.3891241,29.7973845 C22.4701612,29.666901 22.5437814,29.5314729 22.6094352,29.3932978 L24.6312423,30.3586008 C24.5622921,30.4970507 24.501583,30.6387969 24.4502137,30.7819167 L22.3891241,29.7973845 Z" id="Fill-9" fill="#FFFFFF"></path>
                    <path d="M25.9459114,28.8748251 C26.4101579,28.6064412 26.8312762,28.5784216 27.1378437,28.7498357 C27.2166831,28.7940627 27.2881057,28.8512008 27.350463,28.9212498 C27.533964,29.1261775 27.6413725,29.4387885 27.6424804,29.8417764 C27.6454931,30.9144879 26.8914359,32.2215203 25.9568995,32.7610351 C25.0234619,33.3000006 24.2633613,32.8670701 24.2603323,31.7943586 C24.2595155,31.4688367 24.328191,31.1221627 24.4501587,30.7818068 C24.501528,30.6389617 24.5622372,30.4969408 24.6311874,30.3584909 C24.9399525,29.7382137 25.4138135,29.1816673 25.9459114,28.8748251" id="Fill-11" fill="#FFFFFF"></path>
                    <path d="M33.0474541,15.356215 C33.9808917,14.8172496 34.7409922,15.2490812 34.744023,16.3231662 C34.7470357,17.3958778 33.9921544,18.7037343 33.0584421,19.242425 C32.7433589,19.4248271 32.4477795,19.4957003 32.1947789,19.4690542 C32.1002814,19.4591649 32.0115526,19.4352658 31.9299661,19.3984558 C31.5827427,19.2421503 31.3635305,18.8512493 31.3618732,18.2757484 C31.3588605,17.2019381 32.1137418,15.8954551 33.0474541,15.356215" id="Fill-13" fill="#FFFFFF"></path>
                    <path d="M31.9298562,19.3984283 C32.0114427,19.4352384 32.1001715,19.4591374 32.194669,19.4690267 L27.3505729,28.9212498 C27.2879409,28.8512008 27.216793,28.7940627 27.1376788,28.7498357 L31.9298562,19.3984283 Z" id="Fill-15" fill="#FFFFFF"></path>
                    <path d="M15.9373343,36.125476 L19.785086,30.8064201 C19.8392023,30.8849849 19.9023838,30.9517375 19.9732569,31.0058538 L16.1249558,36.3260085 C16.0963868,36.3652909 16.0636972,36.3949588 16.0315571,36.4136385 C15.9801878,36.4433063 15.9296426,36.4446798 15.8975025,36.4108915 C15.8453091,36.3556764 15.8634394,36.2279399 15.9373343,36.125476" id="Fill-17" fill="#FFFFFF"></path>
                </g>
                <g id="编组-2备份-5" transform="translate(0.000000, 71.036636)">
                    <g id="编组" transform="translate(0.000000, 15.403583)">
                        <path d="M124.189753,43.0436814 C127.871352,45.1692 127.890799,48.6174324 124.238979,50.7393046 L70.405168,82.0243861 C66.7475744,84.1499048 60.7949068,84.1499048 57.113308,82.0243861 L2.92701689,50.7399123 C-0.748504646,48.6180401 -0.767951849,45.1698077 2.88964179,43.0442891 L56.7237562,11.7595115 C60.3755765,9.63733536 66.3279402,9.63733536 70.0037656,11.7595115 L124.189753,43.0436814 Z" id="Fill-1" fill-opacity="0.1" fill="#FFFFFF"></path>
                        <path d="M124.189753,43.0436814 C127.871352,45.1692 127.890799,48.6174324 124.238979,50.7393046 L70.405168,82.0243861 C66.7475744,84.1499048 60.7949068,84.1499048 57.113308,82.0243861 L2.92701689,50.7399123 C-0.748504646,48.6180401 -0.767951849,45.1698077 2.88964179,43.0442891 L56.7237562,11.7595115 C60.3755765,9.63733536 66.3279402,9.63733536 70.0037656,11.7595115 L124.189753,43.0436814 Z" id="Stroke-3" stroke="#044CFF" stroke-width="1.043" opacity="0.099999994" stroke-dasharray="12.052"></path>
                        <polygon id="Fill-5" fill="#BFCAF7" points="109.819576 40.9866838 109.789493 51.6018185 66.1867352 76.9406136 66.2168176 66.3257827"></polygon>
                        <polygon id="Fill-7" fill="#EBF1FF" points="69.4677216 68.2019517 106.54807 46.6535382 106.53865 49.724981 69.457998 71.2736984"></polygon>
                        <polygon id="Fill-9" fill="#A1B3EC" points="66.216848 66.3256612 66.1867656 76.9407959 22.3093157 51.6077742 22.3393981 40.9929434"></polygon>
                        <polygon id="Fill-11" fill="#C1CBFF" points="109.819576 40.9866838 66.2168176 66.3257827 22.3393677 40.9930649 65.9421259 15.653966"></polygon>
                        <polygon id="Fill-13" fill="#BFCAF7" points="109.819576 25.332414 109.789493 35.9478525 66.1867352 61.2866476 66.2168176 50.6718167"></polygon>
                        <polygon id="Fill-15" fill="#EBF1FF" points="69.4677216 52.5479857 106.54807 30.9992684 106.53865 34.071015 69.457998 55.6197324"></polygon>
                        <polygon id="Fill-17" fill="#A1B3EC" points="66.216848 50.6716952 66.1867656 61.2868299 22.3093157 35.9538082 22.3393981 25.3389774"></polygon>
                        <polygon id="Fill-19" fill="#C1CBFF" points="109.819576 25.332414 66.2168176 50.6718167 22.3393677 25.3387951 65.9421259 0"></polygon>
                        <polygon id="Fill-21" fill="#EBF1FF" points="97.2106773 25.333599 66.1771939 43.3684497 34.948327 25.338157 65.9818103 7.30330626"></polygon>
                        <polygon id="Fill-23" fill="#A1B3EC" points="72.6929188 25.3353614 66.1003167 29.1664606 59.4660854 25.336273 66.0586875 21.5051738"></polygon>
                    </g>
                    <polygon id="Fill-13备份" fill="#BFCAF7" points="110.427301 25.332414 110.397218 35.9478525 66.7944604 61.2866476 66.8245427 50.6718167"></polygon>
                    <polygon id="Fill-15备份" fill="#EBF1FF" points="70.0754467 52.5479857 107.155795 30.9992684 107.146375 34.071015 70.0657231 55.6197324"></polygon>
                    <polygon id="Fill-17备份" fill="#A1B3EC" points="66.8245731 50.6716952 66.7944907 61.2868299 22.9170408 35.9538082 22.9471232 25.3389774"></polygon>
                    <polygon id="Fill-19备份" fill="#C1CBFF" points="110.427301 25.332414 66.8245427 50.6718167 22.9470929 25.3387951 66.549851 4.3181467e-15"></polygon>
                    <polygon id="Fill-21备份" fill="#EBF1FF" points="97.8184024 25.333599 66.7849191 43.3684497 35.5560521 25.338157 66.5895354 7.30330626"></polygon>
                    <polygon id="Fill-23备份" fill="#A1B3EC" points="73.300644 25.3353614 66.7080418 29.1664606 60.0738106 25.336273 66.6664127 21.5051738"></polygon>
                </g>
            </g>
        </g>
    </g>
</svg>