<?xml version="1.0" encoding="UTF-8"?>
<svg width="410px" height="511px" viewBox="0 0 410 511" version="1.1" xmlns="http://www.w3.org/2000/svg" xmlns:xlink="http://www.w3.org/1999/xlink">
    <title>网页尺寸备份 5</title>
    <defs>
        <path d="M43.0853097,2.69649558 L4.67123894,25.021354 C-1.37206195,28.5330265 -1.34092035,34.2246106 4.74084956,37.7362832 L4.74084956,37.7362832 L43.4040531,60.0611416 C49.4876549,63.5728142 59.3155752,63.5709823 65.3588761,60.0593097 L65.3588761,60.0593097 L103.774779,37.7344513 C109.814416,34.2246106 109.783274,28.5330265 103.701504,25.021354 L103.701504,25.021354 L65.036469,2.69649558 C61.9974159,0.939743363 58.0204513,0.0622831858 54.0489823,0.064112182 L54.0489823,0.064112182 C50.0756814,0.064112182 46.1060442,0.941575221 43.0853097,2.69649558 L43.0853097,2.69649558 Z" id="path-1"></path>
        <path d="M43.0853097,2.69649558 L4.67123894,25.021354 C-1.37206195,28.5330265 -1.34092035,34.2246106 4.74084956,37.7362832 L4.74084956,37.7362832 L43.4040531,60.0611416 C49.4876549,63.5728142 59.3155752,63.5709823 65.3588761,60.0593097 L65.3588761,60.0593097 L103.774779,37.7344513 C109.814416,34.2246106 109.783274,28.5330265 103.701504,25.021354 L103.701504,25.021354 L65.036469,2.69649558 C61.9974159,0.939743363 58.0204513,0.0622831858 54.0489823,0.064112182 L54.0489823,0.064112182 C50.0756814,0.064112182 46.1060442,0.941575221 43.0853097,2.69649558 L43.0853097,2.69649558 Z" id="path-3"></path>
        <path d="M43.0853097,2.69649558 L4.67123894,25.021354 C-1.37206195,28.5330265 -1.34092035,34.2246106 4.74084956,37.7362832 L4.74084956,37.7362832 L43.4040531,60.0611416 C49.4876549,63.5728142 59.3155752,63.5709823 65.3588761,60.0593097 L65.3588761,60.0593097 L103.774779,37.7344513 C109.814416,34.2246106 109.783274,28.5330265 103.701504,25.021354 L103.701504,25.021354 L65.036469,2.69649558 C61.9974159,0.939743363 58.0204513,0.0622831858 54.0489823,0.064112182 L54.0489823,0.064112182 C50.0756814,0.064112182 46.1060442,0.941575221 43.0853097,2.69649558 L43.0853097,2.69649558 Z" id="path-5"></path>
        <path d="M43.0853097,2.69649558 L4.67123894,25.021354 C-1.37206195,28.5330265 -1.34092035,34.2246106 4.74084956,37.7362832 L4.74084956,37.7362832 L43.4040531,60.0611416 C49.4876549,63.5728142 59.3155752,63.5709823 65.3588761,60.0593097 L65.3588761,60.0593097 L103.774779,37.7344513 C109.814416,34.2246106 109.783274,28.5330265 103.701504,25.021354 L103.701504,25.021354 L65.036469,2.69649558 C61.9974159,0.939743363 58.0204513,0.0622831858 54.0489823,0.064112182 L54.0489823,0.064112182 C50.0756814,0.064112182 46.1060442,0.941575221 43.0853097,2.69649558 L43.0853097,2.69649558 Z" id="path-7"></path>
        <polygon id="path-9" points="0.629254867 0.630353982 2.46111327 0.630353982 2.46111327 2.43088761 0.629254867 2.43088761"></polygon>
        <linearGradient x1="50%" y1="7.53889208%" x2="50%" y2="234.38106%" id="linearGradient-11">
            <stop stop-color="#FFFFFF" stop-opacity="0" offset="0%"></stop>
            <stop stop-color="#00FFF5" offset="100%"></stop>
        </linearGradient>
    </defs>
    <g id="页面-1" stroke="none" stroke-width="1" fill="none" fill-rule="evenodd">
        <g id="网页尺寸备份-5" transform="translate(-132.000000, -192.000000)">
            <rect fill="#FFFFFF" opacity="0" x="0" y="0" width="1920" height="1080"></rect>
            <g id="编组-4" transform="translate(132.000000, 190.000000)">
                <line x1="240" y1="429.830523" x2="369.296435" y2="509.161" id="路径-2" stroke="#FFFFFF" stroke-width="2"></line>
                <line x1="302.203565" y1="340.495762" x2="367.240723" y2="377.362661" id="路径-2备份-2" stroke="#FFFFFF" stroke-width="2"></line>
                <g id="编组-3" opacity="0.52436756" transform="translate(244.322184, 184.500000)" stroke="#FFFFFF" stroke-width="2">
                    <line x1="0.478159177" y1="27.727551" x2="65.5153169" y2="64.59445" id="路径-2备份-3"></line>
                    <line x1="65.3977872" y1="64.6610005" x2="15.5585312" y2="99.4272952" id="路径-3备份-3"></line>
                    <line x1="43.7614295" y1="0.195135282" x2="0.717747863" y2="27.5171363" id="路径-3备份-4"></line>
                </g>
                <line x1="0" y1="274.161" x2="129.296435" y2="353.491478" id="路径-2备份" stroke="#FFFFFF" stroke-width="2"></line>
                <line x1="141" y1="419.826239" x2="33.2385705" y2="489.397399" id="路径-3" stroke="#FFFFFF" stroke-width="2"></line>
                <line x1="302.719971" y1="340.495762" x2="252.880715" y2="375.262056" id="路径-3备份" stroke="#FFFFFF" stroke-width="2"></line>
                <line x1="409.76143" y1="350.04066" x2="366.717748" y2="377.362661" id="路径-3备份-2" stroke="#FFFFFF" stroke-width="2"></line>
                <g id="编组" transform="translate(89.898218, 132.000000)">
                    <g transform="translate(0.000000, 102.785575)">
                        <path d="M199.075264,58.4384929 C199.067936,58.5813779 199.058777,58.7242628 199.044122,58.8671478 C199.031299,58.9917142 199.014812,59.1181124 198.998326,59.2426788 C198.978175,59.3855637 198.956193,59.5266168 198.930547,59.6676699 C198.906733,59.7940681 198.879255,59.9204664 198.851777,60.0450327 C198.820635,60.184254 198.787662,60.3234752 198.751025,60.4608646 C198.716219,60.5872628 198.679582,60.7118292 198.641113,60.8363956 C198.598981,60.973785 198.553184,61.1130062 198.503724,61.2503956 C198.459759,61.3731301 198.413963,61.4940327 198.364503,61.6167673 C198.307715,61.7614841 198.247264,61.9062009 198.183149,62.0509177 C198.128193,62.1699885 198.073237,62.2908912 198.014618,62.4081301 C197.945007,62.5528469 197.871733,62.6939 197.794795,62.836785 C197.732512,62.952192 197.668396,63.0675991 197.60245,63.1830062 C197.503529,63.3515372 197.397281,63.5182363 197.289202,63.6867673 C197.225087,63.7893513 197.160972,63.8919354 197.091361,63.9926876 C196.964963,64.1777053 196.827573,64.3608912 196.688352,64.544077 C196.627901,64.6228469 196.572945,64.7034487 196.50883,64.7822186 C196.278016,65.0734841 196.032547,65.3610858 195.770591,65.6450239 C195.702812,65.7182982 195.63137,65.7897407 195.561759,65.863015 C195.354759,66.0773425 195.140432,66.2935018 194.916945,66.5041655 C194.814361,66.601254 194.711777,66.6983425 194.605529,66.7935991 C194.471804,66.9126699 194.334414,67.0317407 194.195193,67.1508115 C194.066963,67.260723 193.936901,67.3706345 193.803175,67.4787142 C193.656627,67.5959531 193.508246,67.7113602 193.356202,67.8267673 C193.216981,67.933015 193.077759,68.0392628 192.933042,68.1455106 C192.777335,68.2590858 192.614299,68.3708292 192.451264,68.4825726 C192.301051,68.5869885 192.150839,68.6895726 191.996963,68.7903248 C191.828432,68.9002363 191.654405,69.0101478 191.480379,69.1182274 C191.262388,69.253785 191.04806,69.3893425 190.82091,69.5212363 L120.325503,110.488918 C119.708166,110.847962 119.06152,111.179528 118.403883,111.498272 C118.229857,111.582537 118.05583,111.664971 117.879972,111.745573 C117.284618,112.018519 116.678273,112.280475 116.055441,112.524112 C115.973007,112.555254 115.894237,112.591891 115.813635,112.623033 C115.146839,112.877661 114.459892,113.106643 113.765618,113.324635 C113.283839,113.476679 112.791069,113.608573 112.298299,113.74413 C111.926432,113.844882 111.558228,113.952962 111.179034,114.044555 C110.660618,114.170953 110.131211,114.275369 109.601804,114.381617 C109.220777,114.460387 108.841582,114.546484 108.45506,114.614263 C108.29752,114.643573 108.136317,114.665555 107.976945,114.691201 C107.322972,114.799281 106.665335,114.890873 106.002202,114.971475 C105.809857,114.995289 105.61568,115.019104 105.423335,115.039254 C105.042308,115.081387 104.657618,115.105201 104.274759,115.136342 C103.635441,115.189466 102.99429,115.235263 102.351308,115.264573 C101.93914,115.282891 101.528804,115.29205 101.116635,115.299378 C100.594556,115.308537 100.074308,115.312201 99.5540602,115.304873 C99.1199097,115.30121 98.6857593,115.286555 98.2516088,115.270068 C97.7679982,115.25175 97.2862195,115.226104 96.8044407,115.19313 C96.3666265,115.161988 95.9288124,115.125351 95.4909982,115.083219 C95.014715,115.037422 94.5402637,114.984298 94.0676442,114.923847 C93.6408212,114.870723 93.2158301,114.810272 92.7945027,114.744325 C92.2870779,114.665555 91.7833168,114.575794 91.2832195,114.480537 C90.8875381,114.405431 90.4936885,114.328493 90.1035027,114.242396 C89.5063168,114.112334 88.9182903,113.963953 88.3339274,113.810077 C87.9547327,113.709325 87.5737062,113.6159 87.2018389,113.505988 C87.0003345,113.445537 86.8024938,113.381422 86.6028212,113.319139 C86.0166265,113.134121 85.4377593,112.936281 84.8698832,112.727449 C84.7050159,112.666997 84.5383168,112.61021 84.3752814,112.546095 C83.8586973,112.346422 83.3586,112.124767 82.8603345,111.903112 C82.6185292,111.795033 82.3657327,111.696112 82.1257593,111.582537 C81.4076708,111.241812 80.7079009,110.880935 80.0374407,110.492581 L9.07857345,69.5249 C3.46392743,66.2843425 0.661184071,62.0271035 0.672175221,57.7790239 L0.377202246,162.275555 C0.364423009,166.525466 3.16899823,170.780873 8.78364425,174.023263 L79.7406796,214.989112 C80.4129717,215.377466 81.1109097,215.740174 81.8308301,216.0809 C82.0689717,216.194475 82.3199363,216.291564 82.5635735,216.399643 C82.9903965,216.588325 83.409892,216.786165 83.8477062,216.95836 C83.9246442,216.989502 84.0034142,217.013316 84.0785204,217.044458 C84.2415558,217.106741 84.4100867,217.163528 84.574954,217.22398 C85.1428301,217.434643 85.7198655,217.630652 86.3060602,217.81567 C86.5057327,217.879785 86.7035735,217.942068 86.9050779,218.000688 C87.0406354,218.040988 87.1706973,218.088617 87.3062549,218.127086 C87.5462283,218.194865 87.7971929,218.242493 88.0389982,218.306608 C88.6233611,218.460484 89.2095558,218.608865 89.8067416,218.738927 C89.9642814,218.773732 90.1181575,218.82136 90.2775292,218.854334 C90.5120071,218.903794 90.7538124,218.933104 90.9901221,218.9789 C91.4883876,219.074157 91.9903168,219.162086 92.4959097,219.240856 C92.699246,219.271997 92.8970867,219.317794 93.100423,219.345272 C93.3220779,219.376413 93.5492283,219.3929 93.772715,219.420378 C94.2453345,219.480829 94.7161221,219.533953 95.1924053,219.57975 C95.4195558,219.601732 95.6430425,219.636537 95.8701929,219.654856 C96.0826885,219.673174 96.2970159,219.675006 96.5113434,219.689661 C96.9912903,219.722635 97.4712372,219.748281 97.9530159,219.766599 C98.1929894,219.775758 98.4329628,219.799573 98.6766,219.806638 C98.870777,219.810564 99.064954,219.799573 99.259131,219.803236 C99.7793788,219.808732 100.299627,219.806638 100.819874,219.795909 C101.078166,219.790413 101.336458,219.799573 101.59475,219.792245 C101.748627,219.78675 101.900671,219.768431 102.054547,219.761104 C102.697529,219.733626 103.336848,219.685997 103.976166,219.632873 C104.23629,219.610891 104.496414,219.607227 104.752874,219.581581 C104.879273,219.568758 105.002007,219.55044 105.128405,219.535785 C105.32075,219.515635 105.513096,219.489988 105.705441,219.468006 C106.368573,219.387404 107.026211,219.295812 107.680184,219.187732 C107.839556,219.162086 108.000759,219.140104 108.160131,219.110794 C108.235237,219.097971 108.312175,219.088812 108.389113,219.074157 C108.698697,219.019201 108.99729,218.942263 109.305042,218.878148 C109.83445,218.7719 110.363857,218.667484 110.882273,218.541086 C111.261467,218.449493 111.629671,218.341413 112.001538,218.240661 C112.49614,218.106935 112.987078,217.97321 113.468857,217.821165 C113.573273,217.788192 113.681352,217.76621 113.783936,217.731404 C114.371963,217.540891 114.948998,217.335723 115.516874,217.119564 C115.599308,217.088422 115.678078,217.051785 115.760512,217.020643 C116.381512,216.777006 116.989688,216.51505 117.583211,216.242104 C117.759069,216.161502 117.933096,216.079068 118.107122,215.994803 C118.764759,215.676059 119.411405,215.344493 120.028742,214.985449 L190.525981,174.017767 C190.641388,173.949988 190.756795,173.88221 190.872202,173.812599 C190.980281,173.748484 191.079202,173.680705 191.18545,173.614758 C191.359476,173.506679 191.533503,173.398599 191.700202,173.288688 C191.85591,173.186104 192.006122,173.083519 192.156335,172.979104 C192.31937,172.86736 192.480573,172.755617 192.636281,172.642042 C192.780998,172.537626 192.922051,172.429546 193.061273,172.323298 C193.211485,172.207891 193.359865,172.092484 193.504582,171.975245 C193.64014,171.867165 193.770202,171.757254 193.900264,171.647342 C194.039485,171.528272 194.176874,171.409201 194.308768,171.29013 C194.363724,171.24067 194.424175,171.193042 194.477299,171.14175 C194.528591,171.095953 194.570724,171.048325 194.620184,171.000696 C194.843671,170.790033 195.057998,170.575705 195.264998,170.359546 C195.334609,170.288104 195.407883,170.214829 195.47383,170.141555 C195.735786,169.857617 195.983087,169.570015 196.213901,169.280581 C196.22306,169.267758 196.234051,169.256767 196.245042,169.243944 C196.296335,169.176165 196.340299,169.108387 196.391591,169.040608 C196.530812,168.857422 196.668202,168.674236 196.7946,168.489219 C196.864211,168.386635 196.928326,168.285882 196.994273,168.183298 C197.102352,168.016599 197.206768,167.848068 197.305688,167.679537 C197.333166,167.631909 197.364308,167.587944 197.389954,167.542148 C197.430255,167.472537 197.461396,167.401095 197.498034,167.333316 C197.574972,167.190431 197.648246,167.049378 197.717857,166.906493 C197.776476,166.78559 197.833264,166.666519 197.886388,166.545617 C197.950503,166.402732 198.010954,166.258015 198.067742,166.11513 C198.093388,166.051015 198.126361,165.985068 198.150175,165.920953 C198.172158,165.864165 198.186812,165.803714 198.206963,165.746927 C198.256423,165.609537 198.302219,165.472148 198.344352,165.334758 C198.382821,165.20836 198.42129,165.083794 198.454264,164.957396 C198.490901,164.820006 198.523874,164.680785 198.555016,164.541564 C198.571503,164.466458 198.595317,164.393183 198.609972,164.318077 C198.620963,164.266785 198.624627,164.215493 198.633786,164.164201 C198.659432,164.023148 198.681414,163.882095 198.701565,163.73921 C198.718051,163.614643 198.73637,163.490077 198.749193,163.363679 C198.762016,163.220794 198.771175,163.077909 198.778503,162.935024 C198.783998,162.85259 198.794989,162.766493 198.796821,162.682227 C198.798653,162.599794 198.800485,162.515528 198.800485,162.433095 L199.097246,57.9365637 C199.097246,58.1032628 199.084423,58.2717938 199.075264,58.4384929" id="Fill-5" fill="#DFE8F5"></path>
                        <path d="M190.689749,46.1879398 C201.851262,52.6324177 201.904386,63.0813381 190.821642,69.5203204 L120.324404,110.489834 C109.236165,116.93248 91.1978549,116.936143 80.0363416,110.493497 L9.07930619,69.5258159 C-2.08220708,63.0813381 -2.13533097,52.6342496 8.95473982,46.1879398 L79.4501469,5.22025841 C90.5328903,-1.21872389 108.5712,-1.22238761 119.732713,5.22025841 L190.689749,46.1879398 Z" id="Fill-7" fill="#EAF6FE"></path>
                        <polygon id="Fill-9" fill="#20A7E9" points="185.948533 88.4817035 186.150037 159.768473 124.11232 195.584969 123.910816 124.300031"></polygon>
                        <polygon id="Fill-11" fill="#D3FCF4" points="186.15077 159.768473 183.195982 158.052022 182.994478 90.1944912 185.949265 88.4817035"></polygon>
                        <polygon id="Fill-13" fill="#D3FCF4" points="124.112687 195.585519 124.112687 192.163607 183.195616 158.05074 186.150404 159.769023"></polygon>
                        <polygon id="Fill-15" fill="#20A7E9" points="13.3926 84.8617681 13.1910956 156.148538 75.2288124 191.965034 75.4303168 120.680096"></polygon>
                        <polygon id="Fill-17" fill="#D3FCF4" points="13.1903628 156.147805 16.1451504 154.431354 16.3466549 86.573823 13.3918673 84.8610354"></polygon>
                        <polygon id="Fill-19" fill="#D3FCF4" points="75.2280796 191.965583 75.2280796 188.54184 16.1451504 154.430804 13.1903628 156.147256"></polygon>
                        <path d="M180.374737,47.5136558 C190.268604,53.2253903 190.314401,62.4872664 180.490144,68.197169 L118.003622,104.510098 C108.17387,110.221833 92.1854097,110.225496 82.2915425,104.513762 L19.3946841,68.1990009 C9.50081681,62.4872664 9.45502035,53.2272221 19.2829407,47.5136558 L81.7712947,11.2007265 C91.5955513,5.49265575 107.584012,5.48899204 117.477879,11.2007265 L180.374737,47.5136558 Z" id="Stroke-21" stroke="#FFFFFF" stroke-width="0.518"></path>
                        <path d="M149.365954,51.4984973 C155.447724,55.0101699 155.477034,60.7035858 149.437396,64.2134265 L111.023326,86.5364531 C104.980025,90.0481257 95.1521044,90.0499575 89.0685027,86.538285 L50.4034673,64.2152584 C44.3216973,60.7035858 44.2923876,55.0101699 50.3356885,51.4984973 L88.7497593,29.1736389 C94.7893965,25.6656301 104.619149,25.6619664 110.700919,29.1736389 L149.365954,51.4984973 Z" id="Fill-23" fill="#D3FCF4"></path>
                    </g>
                    <g transform="translate(45.663717, 129.263451)">
                        <g>
                            <mask id="mask-2" fill="white">
                                <use xlink:href="#path-1"></use>
                            </mask>
                            <g id="Clip-26"></g>
                            <path d="M103.702237,28.8184301 C109.784007,32.3301027 109.813317,38.0235186 103.77368,41.5333593 L65.3596088,63.8563858 C59.316308,67.3680584 49.4883876,67.3698903 43.4047858,63.8582177 L4.73975044,41.5351912 C-1.34201947,38.0235186 -1.3713292,32.3301027 4.67197168,28.8184301 L43.0860425,6.49540354 C49.1256796,2.98556283 58.9554319,2.98373097 65.0372018,6.49540354 L103.702237,28.8184301 Z" id="Fill-25" fill="#235DFF" mask="url(#mask-2)"></path>
                        </g>
                        <g>
                            <mask id="mask-4" fill="white">
                                <use xlink:href="#path-3"></use>
                            </mask>
                            <g id="Clip-28"></g>
                            <path d="M94.6999354,29.9757982 C99.6752628,32.8481522 99.699077,37.5047363 94.7585549,40.3770903 L63.3330239,58.6388867 C58.3888381,61.5112407 50.3488115,61.5130726 45.3734841,58.6407186 L13.742785,40.3789221 C8.76745752,37.5065681 8.74364336,32.8481522 13.6859973,29.9757982 L45.1115283,11.7140018 C50.0520504,8.84164779 58.0939088,8.83981593 63.0692363,11.7140018 L94.6999354,29.9757982 Z" id="Fill-27" fill="#6C93FF" mask="url(#mask-4)"></path>
                        </g>
                        <g>
                            <mask id="mask-6" fill="white">
                                <use xlink:href="#path-5"></use>
                            </mask>
                            <g id="Clip-30"></g>
                            <path d="M85.6972673,31.1324336 C89.5661522,33.365469 89.5844708,36.9870531 85.7430637,39.2200885 L61.3060726,53.4206549 C57.4628336,55.6555221 51.2107009,55.6555221 47.3418159,53.4224867 L22.7454531,39.2219204 C18.8765681,36.988885 18.8582496,33.3673009 22.7014885,31.1324336 L47.1384796,16.9318673 C50.9798867,14.6988319 57.2320195,14.6988319 61.1009044,16.9318673 L85.6972673,31.1324336 Z" id="Fill-29" fill="#B6C9FF" mask="url(#mask-6)"></path>
                        </g>
                        <g>
                            <mask id="mask-8" fill="white">
                                <use xlink:href="#path-7"></use>
                            </mask>
                            <g id="Clip-32"></g>
                            <path d="M76.6949655,32.2888858 C79.457408,33.8844345 79.470231,36.4691867 76.7279389,38.0629035 L59.2794876,48.2022398 C56.5353637,49.7977885 52.0711248,49.7996204 49.3086823,48.2040717 L31.7484876,38.0647354 C28.9860451,36.4710186 28.9713903,33.8844345 31.717346,32.2888858 L49.1639655,22.1495496 C51.9062575,20.5558327 56.3704965,20.5558327 59.1329389,22.1495496 L76.6949655,32.2888858 Z" id="Fill-31" fill="#FFFFFF" mask="url(#mask-8)"></path>
                        </g>
                    </g>
                    <g transform="translate(2.699115, 0.201504)">
                        <path d="M21.4162681,201.456808 C21.8467549,201.705941 22.2039673,202.31595 22.2021424,202.810551 C22.2003035,203.312481 21.8412593,203.510321 21.4107726,203.261188 L17.1425425,200.797339 C16.7120558,200.548206 16.3621708,199.941861 16.3639955,199.439932 C16.3639955,198.94533 16.7175513,198.745658 17.1480381,198.992958 L21.4162681,201.456808 Z" id="Fill-33" fill="#D3FCF4"></path>
                        <path d="M21.4060097,205.086452 C21.8364965,205.335585 22.1937088,205.945594 22.191884,206.440196 C22.1900451,206.934797 21.8310009,207.139965 21.4005142,206.890833 L17.1322841,204.426983 C16.7017973,204.17785 16.3519124,203.564178 16.3537371,203.069576 C16.3537371,202.574974 16.7072929,202.37347 17.1377796,202.622603 L21.4060097,205.086452 Z" id="Fill-35" fill="#D3FCF4"></path>
                        <path d="M21.3952018,208.793035 C21.8256885,209.040335 22.1829009,209.652176 22.181076,210.154105 C22.1792372,210.648707 21.8201929,210.846548 21.3897062,210.597415 L17.1214761,208.133565 C16.6909894,207.884433 16.3411044,207.276256 16.3429291,206.781654 C16.3447681,206.281557 16.696485,206.080052 17.1269717,206.329185 L21.3952018,208.793035 Z" id="Fill-37" fill="#D3FCF4"></path>
                        <path d="M37.788869,218.257514 C38.2193558,218.506647 38.5692407,219.112992 38.5692407,219.614921 C38.5674088,220.109523 38.2138602,220.311027 37.7833735,220.061895 L33.5151434,217.598045 C33.0846566,217.348912 32.7347717,216.742567 32.7365964,216.247965 C32.7365964,215.746036 33.0901522,215.544532 33.5206389,215.793665 L37.788869,218.257514 Z" id="Fill-39" fill="#D3FCF4"></path>
                        <path d="M37.737577,236.398042 C38.1680637,236.647174 38.5179487,237.253519 38.5179487,237.755449 C38.5161168,238.25005 38.1625681,238.451555 37.7320814,238.202422 L33.4638513,235.738573 C33.0333646,235.48944 32.6834796,234.883095 32.6853043,234.388493 C32.6853043,233.886564 33.0388602,233.685059 33.4693469,233.934192 L37.737577,236.398042 Z" id="Fill-41" fill="#D3FCF4"></path>
                        <path d="M37.7478354,232.768214 C38.1783221,233.017347 38.5282071,233.631019 38.5282071,234.125621 C38.5263752,234.620223 38.1728265,234.829055 37.7423398,234.579922 L33.4741097,232.116073 C33.043623,231.86694 32.6937381,231.253267 32.6955628,230.758665 C32.6955628,230.264064 33.0491186,230.057064 33.4796053,230.304365 L37.7478354,232.768214 Z" id="Fill-43" fill="#D3FCF4"></path>
                        <path d="M67.9685531,282.928894 C68.3990398,283.178027 68.7489248,283.784372 68.7489248,284.278973 C68.7470929,284.780903 68.3935442,284.982407 67.9630575,284.733274 L40.9065088,269.111186 C40.4741903,268.862053 40.1188097,268.252044 40.1206345,267.750115 C40.1224735,267.255513 40.4796858,267.057673 40.9101726,267.306805 L67.9685531,282.928894 Z" id="Fill-45" fill="#D3FCF4"></path>
                        <path d="M56.8656593,272.883165 C57.296146,273.132298 57.6478628,273.738643 57.6460381,274.240573 C57.6441991,274.735174 57.2906504,274.936679 56.8601637,274.687546 L46.9369867,268.957493 C46.5046681,268.70836 46.1492876,268.098351 46.1511124,267.60375 C46.1529513,267.10182 46.5101637,266.90398 46.9406504,267.153112 L56.8656593,272.883165 Z" id="Fill-47" fill="#D3FCF4"></path>
                        <path d="M37.6551434,265.427868 C38.0856301,265.675169 38.435515,266.283346 38.435515,266.777948 C38.4336832,267.279877 38.0801345,267.47955 37.6496478,267.232249 L33.3814177,264.768399 C32.950931,264.519266 32.601046,263.911089 32.6028707,263.40916 C32.6028707,262.914558 32.9564265,262.714886 33.3869133,262.964019 L37.6551434,265.427868 Z" id="Fill-49" fill="#D3FCF4"></path>
                        <path d="M35.8179726,228.018755 C36.2539549,228.271551 36.6056717,228.885224 36.6038469,229.379826 C36.602008,229.874427 36.2484593,230.081427 35.812477,229.830463 L31.5497425,227.370277 C31.1137602,227.117481 30.7638752,226.503808 30.7656999,226.009206 C30.7656999,225.514604 31.1192558,225.307604 31.5552381,225.558569 L35.8179726,228.018755 Z" id="Fill-51" fill="#D3FCF4"></path>
                        <path d="M43.7281204,265.298173 C44.1586071,265.547305 44.508492,266.15365 44.508492,266.65558 C44.5066602,267.150181 44.1531115,267.351686 43.7226248,267.102553 L31.4583327,260.02242 C31.0205186,259.769624 30.6706336,259.161447 30.6724583,258.666845 C30.6742973,258.166748 31.0260142,257.965243 31.4638283,258.216208 L43.7281204,265.298173 Z" id="Fill-53" fill="#D3FCF4"></path>
                        <path d="M37.7066186,247.286242 C38.1371053,247.535374 38.4869903,248.141719 38.4869903,248.636321 C38.4851584,249.13825 38.1316097,249.339755 37.701123,249.090622 L33.4328929,246.626773 C33.0024062,246.37764 32.6525212,245.771295 32.6543459,245.269365 C32.6543459,244.774764 33.0079018,244.575091 33.4383885,244.822392 L37.7066186,247.286242 Z" id="Fill-55" fill="#D3FCF4"></path>
                        <path d="M37.716877,243.657513 C38.1473637,243.904814 38.4972487,244.512991 38.4972487,245.007593 C38.4954168,245.509522 38.1418681,245.711027 37.7113814,245.461894 L33.4431513,242.998044 C33.0126646,242.748912 32.6627796,242.140735 32.6646043,241.640637 C32.6646043,241.146035 33.0181602,240.944531 33.4486469,241.193664 L37.716877,243.657513 Z" id="Fill-57" fill="#D3FCF4"></path>
                        <path d="M50.6919301,265.683596 C51.1224168,265.932728 51.4723018,266.539073 51.4723018,267.041003 C51.4704699,267.535604 51.1169212,267.737109 50.6864345,267.487976 L46.4182044,265.024127 C45.9877177,264.774994 45.6323372,264.164985 45.634162,263.670383 C45.634162,263.168454 45.9932133,262.970613 46.4237,263.219746 L50.6919301,265.683596 Z" id="Fill-59" fill="#D3FCF4"></path>
                        <path d="M48.7666469,257.300645 C49.2026292,257.553442 49.554346,258.167114 49.5525213,258.661716 C49.5506823,259.156318 49.1989655,259.363318 48.7611513,259.112353 L34.9379478,251.130946 C34.5074611,250.883645 34.1575761,250.268141 34.1594008,249.773539 C34.1612398,249.278937 34.5129566,249.071937 34.9434434,249.32107 L48.7666469,257.300645 Z" id="Fill-61" fill="#D3FCF4"></path>
                        <path d="M58.2886469,270.069065 C58.7246292,270.321861 59.076346,270.928206 59.0745213,271.430135 C59.0726823,271.924737 58.7209655,272.126242 58.2831513,271.873445 L54.0222487,269.413259 C53.5844345,269.160463 53.2345496,268.554118 53.2363743,268.059516 C53.2363743,267.557587 53.5899301,267.356082 54.0259124,267.608879 L58.2886469,270.069065 Z" id="Fill-63" fill="#D3FCF4"></path>
                        <path d="M55.8114248,261.367737 C56.2474071,261.620534 56.5991239,262.234206 56.5972992,262.728808 C56.5954602,263.22341 56.2437434,263.43041 55.8059292,263.179445 L51.5450265,260.719259 C51.1072124,260.466463 50.7573274,259.85279 50.7591521,259.358188 C50.7591521,258.863587 51.112708,258.654755 51.5486903,258.907551 L55.8114248,261.367737 Z" id="Fill-65" fill="#D3FCF4"></path>
                        <path d="M61.8517947,268.491285 C62.2822814,268.738586 62.6376619,269.357754 62.6376619,269.852356 C62.6358301,270.346958 62.2767858,270.550294 61.8462991,270.302993 L33.4121929,253.885878 C32.9817062,253.636745 32.6318212,253.023073 32.6336459,252.528471 C32.635485,252.033869 32.9872018,251.825037 33.4176885,252.07417 L61.8517947,268.491285 Z" id="Fill-67" fill="#D3FCF4"></path>
                        <path d="M53.3019619,249.019729 C53.7379442,249.272526 54.0896611,249.878871 54.0878363,250.3808 C54.0859973,250.875402 53.7342805,251.076906 53.2964664,250.82411 L38.073723,242.034853 C37.6377407,241.782057 37.2860239,241.175712 37.2878486,240.68111 C37.2896876,240.179181 37.6414044,239.977676 38.0792186,240.230473 L53.3019619,249.019729 Z" id="Fill-69" fill="#D3FCF4"></path>
                        <path d="M60.5806681,260.493025 C61.0111549,260.742158 61.3683673,261.352166 61.3665424,261.846768 C61.3647035,262.348697 61.0056593,262.546538 60.5751726,262.297405 L40.9578009,250.971025 C40.5254823,250.721892 40.1701018,250.111883 40.1719266,249.609954 C40.1737655,249.115352 40.5309779,248.917512 40.9614646,249.166644 L60.5806681,260.493025 Z" id="Fill-71" fill="#D3FCF4"></path>
                        <path d="M68.0097699,268.410866 C68.4402566,268.658167 68.7901416,269.273672 68.7901416,269.768273 C68.7883097,270.262875 68.4347611,270.471707 68.0042743,270.222574 L58.5702035,264.776459 C58.1397168,264.527327 57.7898319,263.911822 57.7916566,263.41722 C57.7934956,262.922619 58.1452124,262.715619 58.5756991,262.964751 L68.0097699,268.410866 Z" id="Fill-73" fill="#D3FCF4"></path>
                        <path d="M47.0564239,230.879202 C47.4924062,231.131998 47.8422912,231.738343 47.8422912,232.232945 C47.8404593,232.734874 47.4869106,232.936379 47.0509283,232.683582 L38.787415,227.911591 C38.3569283,227.66429 38.0015478,227.054281 38.0015478,226.552352 C38.0033796,226.05775 38.3624239,225.85991 38.7929106,226.109042 L47.0564239,230.879202 Z" id="Fill-75" fill="#D3FCF4"></path>
                        <path d="M68.0302867,261.158539 C68.4607735,261.407672 68.8106584,262.014017 68.8106584,262.508619 C68.8088265,263.010548 68.4552779,263.212052 68.0247912,262.962919 L40.9682425,247.340831 C40.5359239,247.091698 40.1805434,246.481689 40.1823682,245.97976 C40.1842071,245.485158 40.5414195,245.287318 40.9719062,245.53645 L68.0302867,261.158539 Z" id="Fill-77" fill="#D3FCF4"></path>
                        <path d="M56.2371487,239.80768 C56.673131,240.060476 57.0230159,240.674149 57.0230159,241.16875 C57.0211841,241.663352 56.6676354,241.870352 56.2316531,241.619388 L38.7777062,231.542335 C38.3472195,231.293202 37.9900071,230.675865 37.9918319,230.181264 C37.9936708,229.686662 38.352715,229.481494 38.7832018,229.730627 L56.2371487,239.80768 Z" id="Fill-79" fill="#D3FCF4"></path>
                        <path d="M68.0405451,257.528712 C68.4710319,257.777844 68.8209168,258.384189 68.8209168,258.886119 C68.819085,259.38072 68.4655363,259.582225 68.0350496,259.333092 L56.1334655,252.461791 C55.7029788,252.21449 55.3475982,251.60265 55.349423,251.108048 C55.3512619,250.60795 55.7084743,250.41011 56.1389611,250.659242 L68.0405451,257.528712 Z" id="Fill-81" fill="#D3FCF4"></path>
                        <path d="M52.4862354,230.378372 C52.9167221,230.627504 53.2684389,231.23385 53.2666142,231.728451 C53.2647752,232.230381 52.9112265,232.431885 52.4807398,232.182752 L43.2170319,226.833726 C42.7865451,226.586425 42.4311646,225.976416 42.4311646,225.474487 C42.4329965,224.979885 42.7920407,224.782044 43.2225274,225.031177 L52.4862354,230.378372 Z" id="Fill-83" fill="#D3FCF4"></path>
                        <path d="M68.0508035,253.899983 C68.4812903,254.147284 68.8311752,254.755461 68.8311752,255.25739 C68.8293434,255.751992 68.4757947,255.951665 68.045308,255.704364 L40.9887593,240.082275 C40.5564407,239.833142 40.2010602,239.223134 40.202885,238.728532 C40.2047239,238.226603 40.5619363,238.028762 40.992423,238.277895 L68.0508035,253.899983 Z" id="Fill-85" fill="#D3FCF4"></path>
                        <path d="M68.0610619,250.270156 C68.4915487,250.517457 68.8414336,251.132961 68.8414336,251.627563 C68.8396018,252.122165 68.4860531,252.329165 68.0555664,252.081864 L40.9990177,236.459775 C40.5666991,236.210642 40.2113186,235.593306 40.2131434,235.098704 C40.2149823,234.604103 40.5721947,234.398935 41.0026814,234.648067 L68.0610619,250.270156 Z" id="Fill-87" fill="#D3FCF4"></path>
                        <path d="M59.6160115,234.494558 C60.0464982,234.74369 60.398215,235.350035 60.3963903,235.844637 C60.3945513,236.346566 60.0410027,236.548071 59.6105159,236.298938 L55.3422858,233.835088 C54.9117991,233.585956 54.5564186,232.975947 54.5582434,232.474018 C54.5582434,231.979416 54.9172947,231.783407 55.3477814,232.030708 L59.6160115,234.494558 Z" id="Fill-89" fill="#D3FCF4"></path>
                        <path d="M68.0817619,243.018012 C68.5122487,243.267144 68.8621336,243.873489 68.8621336,244.368091 C68.8603018,244.87002 68.5067531,245.071525 68.0762664,244.822392 L49.567169,234.13533 C49.1311867,233.884365 48.7794699,233.27802 48.7812946,232.776091 C48.7831336,232.281489 49.1348504,232.079985 49.5726646,232.332781 L68.0817619,243.018012 Z" id="Fill-91" fill="#D3FCF4"></path>
                        <path d="M55.925,221.380833 C56.3609823,221.633629 56.7108673,222.239974 56.7108673,222.734576 C56.7090354,223.236505 56.3554867,223.43801 55.9195044,223.185213 L51.6567699,220.725027 C51.2207876,220.472231 50.8709027,219.864054 50.8727274,219.363957 C50.8727274,218.869355 51.2262832,218.66785 51.6622655,218.920647 L55.925,221.380833 Z" id="Fill-93" fill="#D3FCF4"></path>
                        <path d="M68.0920204,239.388184 C68.5225071,239.637317 68.872392,240.243662 68.872392,240.738264 C68.8705602,241.240193 68.5170115,241.441697 68.0865248,241.192565 L62.2172504,237.803627 C61.7867637,237.556326 61.4368788,236.948149 61.4387035,236.448051 C61.4405425,235.95345 61.7922593,235.751945 62.222746,235.999246 L68.0920204,239.388184 Z" id="Fill-95" fill="#D3FCF4"></path>
                        <path d="M61.9648204,228.503465 C62.3953071,228.752597 62.7525195,229.362606 62.7506946,229.857208 C62.7488558,230.35181 62.3898115,230.556978 61.9593248,230.307845 L33.5252186,213.89073 C33.0947319,213.643429 32.7448469,213.029757 32.7466716,212.535155 C32.7485106,212.040553 33.1002274,211.839049 33.5307142,212.088181 L61.9648204,228.503465 Z" id="Fill-97" fill="#D3FCF4"></path>
                        <path d="M68.1022788,235.75854 C68.5327655,236.007673 68.8826504,236.614018 68.8826504,237.115947 C68.8808186,237.610549 68.5272699,237.812053 68.0967832,237.56292 L41.0402345,221.942664 C40.6079159,221.693531 40.2525354,221.08169 40.2543602,220.587088 C40.2561991,220.086991 40.6134115,219.88915 41.0438982,220.138283 L68.1022788,235.75854 Z" id="Fill-99" fill="#D3FCF4"></path>
                        <path d="M60.6942434,220.498976 C61.1247301,220.748109 61.4819425,221.358118 61.4801176,221.860047 C61.4782788,222.354649 61.1192345,222.552489 60.6887478,222.303357 L41.0695442,210.976976 C40.6390575,210.727843 40.283677,210.117835 40.2855018,209.623233 C40.2855018,209.121304 40.6445531,208.923463 41.0750398,209.172596 L60.6942434,220.498976 Z" id="Fill-101" fill="#D3FCF4"></path>
                        <path d="M21.3644265,219.674273 C21.7949133,219.923406 22.1521257,220.540742 22.1503008,221.035344 C22.1484619,221.529946 21.7894177,221.735114 21.358931,221.485981 L17.0907009,219.022132 C16.6602142,218.772999 16.3103292,218.159327 16.3121539,217.664725 C16.3139929,217.170123 16.6657097,216.961291 17.0961965,217.210424 L21.3644265,219.674273 Z" id="Fill-103" fill="#D3FCF4"></path>
                        <path d="M21.374685,216.051773 C21.8051717,216.300906 22.1623841,216.910915 22.1605592,217.405517 C22.1587204,217.907446 21.7996761,218.105287 21.3691894,217.856154 L17.1009593,215.392304 C16.6704726,215.143172 16.3205876,214.536827 16.3224123,214.034897 C16.3242513,213.540296 16.6759681,213.338791 17.1064549,213.587924 L21.374685,216.051773 Z" id="Fill-105" fill="#D3FCF4"></path>
                        <path d="M21.3849434,212.421946 C21.8154301,212.671079 22.1726425,213.281088 22.1708176,213.775689 C22.1689788,214.277619 21.8099345,214.475459 21.3794478,214.226327 L17.1112177,211.762477 C16.680731,211.513344 16.330846,210.906999 16.3326707,210.40507 C16.3345097,209.910468 16.6862265,209.710796 17.1167133,209.958096 L21.3849434,212.421946 Z" id="Fill-107" fill="#D3FCF4"></path>
                        <path d="M68.0713204,246.640512 C68.5018071,246.889644 68.851692,247.503317 68.851692,247.997919 C68.8498602,248.49252 68.4963115,248.701352 68.0658248,248.452219 L59.2820637,243.379804 C58.8442496,243.128839 58.4943646,242.513335 58.4961893,242.018733 C58.4961893,241.524131 58.8497451,241.317131 59.2857274,241.568096 L68.0713204,246.640512 Z" id="Fill-109" fill="#D3FCF4"></path>
                        <path d="M21.3437265,226.933745 C21.7742133,227.181046 22.1314257,227.792887 22.1296008,228.294816 C22.1277619,228.789418 21.7687177,228.987258 21.338231,228.738126 L17.0700009,226.274276 C16.6395142,226.025143 16.2896292,225.416966 16.2914539,224.922365 C16.2932929,224.422267 16.6450097,224.220763 17.0754965,224.469896 L21.3437265,226.933745 Z" id="Fill-111" fill="#D3FCF4"></path>
                        <path d="M21.3541681,223.303918 C21.7846549,223.55305 22.1418673,224.170387 22.1400424,224.664988 C22.1382035,225.15959 21.7791593,225.364758 21.3486726,225.115626 L17.0804425,222.651776 C16.6499558,222.402643 16.3000708,221.788971 16.3018955,221.294369 C16.3037345,220.799767 16.6554513,220.590935 17.0859381,220.840068 L21.3541681,223.303918 Z" id="Fill-113" fill="#D3FCF4"></path>
                        <path d="M21.3026929,241.444628 C21.7331796,241.693761 22.090392,242.311097 22.0885672,242.805699 C22.0867283,243.300301 21.7276841,243.505469 21.2971973,243.256336 L17.0289673,240.792487 C16.5984805,240.543354 16.2485956,239.929681 16.2504203,239.43508 C16.2522593,238.940478 16.6039761,238.731646 17.0344628,238.980779 L21.3026929,241.444628 Z" id="Fill-115" fill="#D3FCF4"></path>
                        <path d="M21.3129513,237.821945 C21.7434381,238.071078 22.1006504,238.681087 22.0988256,239.175688 C22.0969867,239.677618 21.7379425,239.875458 21.3074558,239.626326 L17.0392257,237.162476 C16.6087389,236.913343 16.258854,236.306998 16.2606787,235.805069 C16.2625177,235.310467 16.6142345,235.108963 17.0447212,235.358096 L21.3129513,237.821945 Z" id="Fill-117" fill="#D3FCF4"></path>
                        <path d="M21.3232097,234.192301 C21.7536965,234.441434 22.1109088,235.051442 22.109084,235.546044 C22.1072451,236.047973 21.7482009,236.245814 21.3177142,235.996681 L17.0494841,233.532832 C16.6189973,233.283699 16.2691124,232.677354 16.2709371,232.175425 C16.2727761,231.680823 16.6244929,231.479319 17.0549796,231.728451 L21.3232097,234.192301 Z" id="Fill-119" fill="#D3FCF4"></path>
                        <path d="M21.3334681,230.562473 C21.7639549,230.811606 22.1211673,231.421615 22.1193424,231.923544 C22.1175035,232.418146 21.7584593,232.615987 21.3279726,232.366854 L17.0597425,229.903004 C16.6292558,229.653872 16.2793708,229.047527 16.2811955,228.552925 C16.2830345,228.050996 16.6347513,227.851323 17.0652381,228.098624 L21.3334681,230.562473 Z" id="Fill-121" fill="#D3FCF4"></path>
                        <path d="M68.0200283,264.788183 C68.450515,265.037316 68.8004,265.643661 68.8004,266.138263 C68.7985681,266.640192 68.4450195,266.841696 68.0145327,266.592564 L64.5101876,264.56836 C64.0797009,264.321059 63.7298159,263.714714 63.7298159,263.212785 C63.7316478,262.718183 64.0851965,262.516679 64.5156832,262.765812 L68.0200283,264.788183 Z" id="Fill-123" fill="#D3FCF4"></path>
                        <path d="M21.2924345,245.074273 C21.7229212,245.321573 22.0801336,245.940742 22.0783088,246.435343 C22.0764699,246.929945 21.7174257,247.133281 21.2869389,246.885981 L17.0187088,244.422131 C16.5882221,244.172998 16.2383372,243.557494 16.2401619,243.062892 C16.2420009,242.56829 16.5937177,242.36129 17.0242044,242.610423 L21.2924345,245.074273 Z" id="Fill-125" fill="#D3FCF4"></path>
                        <path d="M67.9788115,279.299066 C68.4092982,279.548199 68.7591832,280.154544 68.7591832,280.656473 C68.7573513,281.151075 68.4038027,281.35258 67.9733159,281.103447 L59.394723,276.150102 C58.9642363,275.902801 58.6143513,275.294624 58.6143513,274.800022 C58.6161832,274.299925 58.9697319,274.09842 59.4002186,274.345721 L67.9788115,279.299066 Z" id="Fill-127" fill="#D3FCF4"></path>
                        <path d="M67.9993283,272.040511 C68.429815,272.287812 68.7797,272.903316 68.7797,273.397918 C68.7778681,273.892519 68.4243195,274.099519 67.9938327,273.852219 L64.4894876,271.828015 C64.0590009,271.580714 63.7091159,270.96521 63.7091159,270.470608 C63.7109478,269.976006 64.0644965,269.769006 64.4949832,270.018139 L67.9993283,272.040511 Z" id="Fill-129" fill="#D3FCF4"></path>
                        <path d="M21.4265265,197.827896 C21.8570133,198.075197 22.2142257,198.687038 22.2124008,199.188967 C22.2105619,199.683569 21.8515177,199.88141 21.421031,199.632277 L17.1528009,197.168427 C16.7223142,196.919295 16.3724292,196.311118 16.3742539,195.816516 C16.3742539,195.316419 16.7278097,195.114914 17.1582965,195.364047 L21.4265265,197.827896 Z" id="Fill-131" fill="#D3FCF4"></path>
                        <path d="M48.8802221,217.313741 C49.3162044,217.564705 49.6660894,218.172882 49.6660894,218.667484 C49.6642575,219.169413 49.3107088,219.369086 48.8747265,219.118121 L35.051523,211.136714 C34.6210363,210.889413 34.2711513,210.281236 34.272976,209.779307 C34.272976,209.284705 34.6265319,209.083201 35.0570186,209.332334 L48.8802221,217.313741 Z" id="Fill-133" fill="#D3FCF4"></path>
                        <path d="M37.8198274,207.292193 C38.2503142,207.541326 38.602031,208.147671 38.6002062,208.6496 C38.5983673,209.144202 38.2448186,209.345706 37.8143319,209.096573 L33.5461018,206.632724 C33.115615,206.383591 32.7657301,205.777246 32.7675548,205.282644 C32.7675548,204.780715 33.1211106,204.579211 33.5515973,204.828343 L37.8198274,207.292193 Z" id="Fill-135" fill="#D3FCF4"></path>
                        <path d="M68.133054,224.793219 C68.5635407,225.042351 68.9134257,225.648696 68.9134257,226.150626 C68.9115938,226.645227 68.5580451,226.846732 68.1275584,226.597599 L64.6232133,224.575227 C64.1927265,224.326095 63.8428416,223.71975 63.8446663,223.225148 C63.8446663,222.723219 64.1982221,222.521714 64.6287088,222.770847 L68.133054,224.793219 Z" id="Fill-137" fill="#D3FCF4"></path>
                        <path d="M68.1125372,232.05269 C68.5430239,232.301823 68.8929088,232.908168 68.8929088,233.40277 C68.891077,233.897372 68.5375283,234.106204 68.1070416,233.857071 L64.6026965,231.832867 C64.1722097,231.585566 63.8223248,230.971894 63.8241495,230.477292 C63.8241495,229.98269 64.1777053,229.781186 64.608192,230.030319 L68.1125372,232.05269 Z" id="Fill-139" fill="#D3FCF4"></path>
                        <path d="M68.1227956,228.423046 C68.5532823,228.672179 68.9031673,229.278524 68.9031673,229.773126 C68.9013354,230.275055 68.5477867,230.476559 68.1173,230.227427 L58.6850611,224.781312 C58.2545743,224.532179 57.9028575,223.925834 57.9046823,223.423904 C57.9065212,222.929303 58.2582381,222.727798 58.6887248,222.976931 L68.1227956,228.423046 Z" id="Fill-141" fill="#D3FCF4"></path>
                        <path d="M21.2821761,248.7041 C21.7126628,248.951401 22.0698752,249.563242 22.0680504,250.065171 C22.0662115,250.559773 21.7071673,250.755781 21.2766805,250.508481 L17.0084504,248.044631 C16.5779637,247.795498 16.2280788,247.187321 16.2299035,246.692719 C16.2317425,246.19079 16.5834593,245.991118 17.013946,246.24025 L21.2821761,248.7041 Z" id="Fill-143" fill="#D3FCF4"></path>
                        <path d="M67.9890699,275.669422 C68.4195566,275.918555 68.7694416,276.5249 68.7694416,277.026829 C68.7676097,277.521431 68.4140611,277.722935 67.9835743,277.473803 L61.1763885,273.542635 C60.7440699,273.295334 60.394185,272.687157 60.3960097,272.192555 C60.3978487,271.692458 60.7495655,271.490953 61.1800522,271.738254 L67.9890699,275.669422 Z" id="Fill-145" fill="#D3FCF4"></path>
                        <path d="M21.2717345,252.332828 C21.7022212,252.581961 22.0594336,253.19197 22.0576088,253.693899 C22.0557699,254.188501 21.6967257,254.386342 21.2662389,254.137209 L16.9980088,251.673359 C16.5675221,251.424227 16.2176372,250.817881 16.2194619,250.32328 C16.2213009,249.82135 16.5730177,249.619846 17.0035044,249.868979 L21.2717345,252.332828 Z" id="Fill-147" fill="#D3FCF4"></path>
                        <path d="M21.2614761,255.962656 C21.6919628,256.211788 22.0491752,256.821797 22.0473504,257.316399 C22.0455115,257.818328 21.6864673,258.016169 21.2559805,257.767036 L16.9877504,255.303187 C16.5572637,255.054054 16.2073788,254.447709 16.2092035,253.94578 C16.2110425,253.451178 16.5627593,253.249673 16.993246,253.498806 L21.2614761,255.962656 Z" id="Fill-149" fill="#D3FCF4"></path>
                        <path d="M130.144026,247.829204 C130.574512,247.580072 130.926229,247.781576 130.928068,248.276178 C130.929893,248.77078 130.578176,249.384452 130.149521,249.631753 L125.884955,252.093771 C125.454468,252.342904 125.095424,252.137735 125.093592,251.644965 C125.093592,251.148532 125.448973,250.538523 125.879459,250.291222 L130.144026,247.829204 Z" id="Fill-151" fill="#D3FCF4"></path>
                        <path d="M130.133584,244.202125 C130.564071,243.954824 130.915788,244.154496 130.917627,244.649098 C130.919451,245.151027 130.567735,245.757373 130.13908,246.004673 L125.874513,248.466691 C125.444027,248.715824 125.084982,248.517983 125.08315,248.017886 C125.08315,247.523284 125.438531,246.911443 125.869018,246.664142 L130.133584,244.202125 Z" id="Fill-153" fill="#D3FCF4"></path>
                        <path d="M130.123326,240.575228 C130.553812,240.327927 130.905529,240.5276 130.907368,241.029529 C130.909193,241.524131 130.557476,242.130476 130.128821,242.377777 L125.864255,244.841627 C125.433768,245.088927 125.074724,244.891087 125.072892,244.396485 C125.072892,243.896388 125.428273,243.286379 125.858759,243.037246 L130.123326,240.575228 Z" id="Fill-155" fill="#D3FCF4"></path>
                        <path d="M130.113067,236.949065 C130.543554,236.699932 130.895271,236.901436 130.89711,237.403365 C130.898935,237.897967 130.547218,238.504312 130.118563,238.751613 L125.853996,241.213631 C125.42351,241.462764 125.064465,241.264923 125.062634,240.770321 C125.062634,240.268392 125.418014,239.658383 125.848501,239.411082 L130.113067,236.949065 Z" id="Fill-157" fill="#D3FCF4"></path>
                        <path d="M176.797796,217.260983 C177.233778,217.008187 177.585495,217.209691 177.587334,217.704293 C177.589158,218.206222 177.239273,218.812567 176.803291,219.063532 L158.307017,229.741435 C157.878362,229.990567 157.524806,229.789063 157.524806,229.287134 C157.522981,228.792532 157.872866,228.186187 158.303353,227.938886 L176.797796,217.260983 Z" id="Fill-159" fill="#D3FCF4"></path>
                        <path d="M176.808054,220.887147 C177.244036,220.636182 177.595753,220.835855 177.597592,221.330457 C177.599417,221.825058 177.249532,222.438731 176.81355,222.689696 L168.035284,227.758448 C167.604797,228.005749 167.253081,227.798749 167.251242,227.304147 C167.249417,226.809545 167.599302,226.2032 168.029788,225.955899 L176.808054,220.887147 Z" id="Fill-161" fill="#D3FCF4"></path>
                        <path d="M146.56975,256.501039 C147.005733,256.250074 147.35745,256.451579 147.359289,256.944349 C147.361113,257.446278 147.011228,258.052623 146.575246,258.303588 L142.316175,260.763773 C141.880193,261.014738 141.526637,260.813234 141.526637,260.313136 C141.524812,259.818535 141.874697,259.212189 142.31068,258.959393 L146.56975,256.501039 Z" id="Fill-163" fill="#D3FCF4"></path>
                        <path d="M164.687196,249.674435 C165.117683,249.425303 165.4694,249.626807 165.471239,250.121409 C165.473064,250.616011 165.123179,251.229683 164.692692,251.476984 L160.428126,253.939002 C159.997639,254.188135 159.644083,253.979303 159.644083,253.486533 C159.642258,252.991931 159.992143,252.383754 160.42263,252.136453 L164.687196,249.674435 Z" id="Fill-165" fill="#D3FCF4"></path>
                        <path d="M176.900563,253.513461 C177.336545,253.262496 177.688262,253.462169 177.690101,253.964098 C177.691926,254.4587 177.342041,255.065045 176.906058,255.31601 L168.340288,260.262027 C167.909802,260.509328 167.550758,260.313319 167.548926,259.818718 C167.548926,259.316788 167.904306,258.70678 168.334793,258.459479 L176.900563,253.513461 Z" id="Fill-167" fill="#D3FCF4"></path>
                        <path d="M165.796387,259.924233 C166.226873,259.676932 166.584086,259.874773 166.585925,260.37487 C166.58775,260.869472 166.232369,261.479481 165.801882,261.726781 L155.891528,267.449507 C155.453714,267.702304 155.101997,267.500799 155.100158,267.006197 C155.098334,266.504268 155.45005,265.897923 155.886033,265.646958 L165.796387,259.924233 Z" id="Fill-169" fill="#D3FCF4"></path>
                        <path d="M176.910821,257.140541 C177.346804,256.887744 177.69852,257.089249 177.700359,257.591178 C177.702184,258.08578 177.352299,258.692125 176.916317,258.943089 L149.885414,274.548691 C149.449432,274.801488 149.095876,274.599983 149.095876,274.105381 C149.094051,273.605284 149.443936,272.998939 149.879919,272.746142 L176.910821,257.140541 Z" id="Fill-171" fill="#D3FCF4"></path>
                        <path d="M159.606537,259.865064 C160.042519,259.614099 160.396075,259.821099 160.396075,260.315701 C160.3979,260.810303 160.048015,261.416648 159.612033,261.667612 L155.352962,264.127798 C154.91698,264.378763 154.565263,264.177258 154.563424,263.682657 C154.561599,263.189887 154.911484,262.576214 155.347466,262.323418 L159.606537,259.865064 Z" id="Fill-173" fill="#D3FCF4"></path>
                        <path d="M170.743137,249.803398 C171.173624,249.554265 171.525341,249.763097 171.52718,250.257699 C171.529004,250.752301 171.179119,251.365973 170.748633,251.613274 L142.336509,268.015735 C141.900527,268.268531 141.546971,268.059699 141.546971,267.566929 C141.545146,267.072327 141.895031,266.458655 142.331013,266.20769 L170.743137,249.803398 Z" id="Fill-175" fill="#D3FCF4"></path>
                        <path d="M157.647731,253.738047 C158.078218,253.490746 158.429935,253.690419 158.431774,254.18502 C158.433598,254.679622 158.083713,255.293295 157.653227,255.540596 L143.841014,263.514675 C143.405032,263.767472 143.051476,263.55864 143.051476,263.06587 C143.049651,262.571268 143.399536,261.964923 143.835519,261.712127 L157.647731,253.738047 Z" id="Fill-177" fill="#D3FCF4"></path>
                        <path d="M176.880046,246.260401 C177.316028,246.007604 177.667745,246.216436 177.669584,246.711038 C177.671409,247.20564 177.321524,247.819312 176.885542,248.070277 L173.388524,250.088985 C172.959869,250.336286 172.600825,250.13295 172.598986,249.638348 C172.597161,249.143746 172.954373,248.52641 173.38486,248.279109 L176.880046,246.260401 Z" id="Fill-179" fill="#D3FCF4"></path>
                        <path d="M176.890304,249.886565 C177.326287,249.6356 177.678004,249.8426 177.679843,250.337202 C177.681667,250.831804 177.331782,251.438149 176.8958,251.689113 L170.097773,255.612954 C169.667287,255.862087 169.310074,255.664246 169.308235,255.171476 C169.306411,254.676874 169.663623,254.059538 170.09411,253.812237 L176.890304,249.886565 Z" id="Fill-181" fill="#D3FCF4"></path>
                        <path d="M176.869788,242.640465 C177.30577,242.389501 177.657487,242.589173 177.659326,243.083775 C177.66115,243.578377 177.311265,244.19205 176.875283,244.443014 L167.454035,249.881802 C167.023549,250.130935 166.666336,249.925766 166.664497,249.432996 C166.662673,248.938395 167.019885,248.326554 167.450372,248.079253 L176.869788,242.640465 Z" id="Fill-183" fill="#D3FCF4"></path>
                        <path d="M176.859529,239.013386 C177.295512,238.762421 177.647228,238.963926 177.649067,239.456696 C177.650892,239.958625 177.301007,240.56497 176.865025,240.815935 L173.368007,242.834642 C172.939352,243.083775 172.580308,242.885935 172.578469,242.384005 C172.576644,241.889404 172.933857,241.279395 173.364343,241.032094 L176.859529,239.013386 Z" id="Fill-185" fill="#D3FCF4"></path>
                        <path d="M167.203804,255.479595 C167.63429,255.230462 167.991503,255.43563 167.993342,255.930232 C167.995166,256.424834 167.637954,257.034842 167.209299,257.282143 L162.944733,259.744161 C162.514246,259.993294 162.16069,259.791789 162.16069,259.297188 C162.158865,258.802586 162.50875,258.188913 162.939237,257.941612 L167.203804,255.479595 Z" id="Fill-187" fill="#D3FCF4"></path>
                        <path d="M176.838829,231.760142 C177.274812,231.509178 177.626528,231.70885 177.628367,232.21078 C177.630192,232.705381 177.280307,233.311727 176.844325,233.562691 L164.957396,240.424833 C164.521413,240.677629 164.169696,240.476125 164.167857,239.981523 C164.166033,239.481426 164.515918,238.875081 164.953732,238.622284 L176.838829,231.760142 Z" id="Fill-189" fill="#D3FCF4"></path>
                        <path d="M169.432259,243.3014 C169.862746,243.054099 170.214463,243.253772 170.216302,243.748373 C170.218127,244.250303 169.868242,244.856648 169.437755,245.103949 L149.833206,256.423002 C149.397224,256.673966 149.045507,256.472462 149.043668,255.972365 C149.041843,255.477763 149.39356,254.871418 149.829542,254.620453 L169.432259,243.3014 Z" id="Fill-191" fill="#D3FCF4"></path>
                        <path d="M176.849088,235.387222 C177.28507,235.134426 177.636787,235.33593 177.638626,235.837859 C177.64045,236.332461 177.290565,236.938806 176.854583,237.189771 L149.823681,252.795373 C149.387698,253.048169 149.034142,252.846665 149.034142,252.352063 C149.032318,251.851965 149.382203,251.24562 149.818185,250.992824 L176.849088,235.387222 Z" id="Fill-193" fill="#D3FCF4"></path>
                        <path d="M176.828571,228.134162 C177.264553,227.881365 177.61627,228.090197 177.618109,228.584799 C177.619934,229.079401 177.270049,229.685746 176.834066,229.936711 L149.803164,245.542312 C149.367181,245.795109 149.013626,245.593604 149.013626,245.099003 C149.011801,244.606233 149.361686,243.99256 149.797668,243.739764 L176.828571,228.134162 Z" id="Fill-195" fill="#D3FCF4"></path>
                        <path d="M176.818312,224.507082 C177.254295,224.254286 177.606012,224.463118 177.607851,224.957719 C177.609675,225.452321 177.25979,226.065994 176.823808,226.316958 L149.792905,241.92256 C149.356923,242.175357 149.003367,241.966525 149.003367,241.471923 C149.001542,240.979153 149.351427,240.365481 149.78741,240.112684 L176.818312,224.507082 Z" id="Fill-197" fill="#D3FCF4"></path>
                        <path d="M164.989087,227.711003 C165.419573,227.463702 165.776786,227.659711 165.778625,228.154312 C165.78045,228.648914 165.423237,229.26625 164.994582,229.513551 L147.547963,239.586941 C147.117476,239.836073 146.76392,239.627242 146.76392,239.13264 C146.762096,238.638038 147.111981,238.031693 147.542467,237.784392 L164.989087,227.711003 Z" id="Fill-199" fill="#D3FCF4"></path>
                        <path d="M155.794806,229.386237 C156.225293,229.138936 156.582505,229.334945 156.584344,229.829547 C156.586169,230.331476 156.230788,230.941485 155.800302,231.188786 L147.536788,235.960777 C147.106302,236.208078 146.754585,236.008405 146.752746,235.506476 C146.750921,235.011874 147.100806,234.405529 147.531293,234.156396 L155.794806,229.386237 Z" id="Fill-201" fill="#D3FCF4"></path>
                        <path d="M146.4875,227.494477 C146.923482,227.243512 147.275199,227.445017 147.277038,227.945114 C147.278863,228.439716 146.928978,229.046061 146.492996,229.297026 L142.233925,231.757212 C141.797942,232.008176 141.444387,231.806672 141.444387,231.31207 C141.442562,230.811973 141.792447,230.205627 142.228429,229.952831 L146.4875,227.494477 Z" id="Fill-203" fill="#D3FCF4"></path>
                        <path d="M168.318306,218.52405 C168.754288,218.271253 169.107844,218.472758 169.107844,218.974687 C169.109669,219.467457 168.759784,220.075634 168.323802,220.326598 L164.064731,222.784952 C163.628749,223.037749 163.277032,222.836244 163.275193,222.341642 C163.273368,221.841545 163.623253,221.233368 164.059235,220.982404 L168.318306,218.52405 Z" id="Fill-205" fill="#D3FCF4"></path>
                        <path d="M161.194209,222.636755 C161.630191,222.383958 161.981908,222.585463 161.983747,223.087392 C161.985572,223.581994 161.635687,224.188339 161.199704,224.439304 L151.948819,229.781003 C151.512837,230.031967 151.159281,229.830463 151.159281,229.337693 C151.157457,228.835764 151.507342,228.229419 151.943324,227.978454 L161.194209,222.636755 Z" id="Fill-207" fill="#D3FCF4"></path>
                        <path d="M176.787537,213.633904 C177.223519,213.381107 177.575236,213.582612 177.577075,214.084541 C177.5789,214.579142 177.229015,215.185488 176.793033,215.436452 L170.93475,218.819895 C170.504263,219.067196 170.145212,218.869355 170.145212,218.374753 C170.143387,217.874656 170.498767,217.264647 170.929254,217.015514 L176.787537,213.633904 Z" id="Fill-209" fill="#D3FCF4"></path>
                        <path d="M176.777096,210.006824 C177.213078,209.755859 177.564795,209.955532 177.566634,210.457461 C177.568458,210.952063 177.218573,211.558408 176.782591,211.809373 L149.751688,227.414974 C149.315706,227.667771 148.96215,227.466266 148.96215,226.973496 C148.960326,226.471567 149.310211,225.865222 149.746193,225.614258 L176.777096,210.006824 Z" id="Fill-211" fill="#D3FCF4"></path>
                        <path d="M162.117832,240.259416 C162.548319,240.012115 162.90737,240.208124 162.90737,240.710053 C162.909195,241.204655 162.553814,241.814664 162.123327,242.061965 L146.90608,250.847558 C146.475593,251.09669 146.123876,250.895186 146.122037,250.402416 C146.120212,249.900487 146.470097,249.294142 146.900584,249.045009 L162.117832,240.259416 Z" id="Fill-213" fill="#D3FCF4"></path>
                        <path d="M146.528717,241.994735 C146.964699,241.743771 147.316416,241.950771 147.318255,242.445373 C147.32008,242.939974 146.970195,243.553647 146.534212,243.804612 L142.275142,246.262965 C141.839159,246.515762 141.485603,246.30693 141.485603,245.812328 C141.483779,245.317727 141.833664,244.705886 142.269646,244.453089 L146.528717,241.994735 Z" id="Fill-215" fill="#D3FCF4"></path>
                        <path d="M144.585848,239.491135 C145.016335,239.242002 145.373547,239.439842 145.375386,239.934444 C145.377211,240.429046 145.02183,241.046382 144.591343,241.293683 L140.326777,243.755701 C139.89629,244.004834 139.542734,243.796002 139.542734,243.303232 C139.54091,242.80863 139.890795,242.200453 140.321281,241.953152 L144.585848,239.491135 Z" id="Fill-217" fill="#D3FCF4"></path>
                        <path d="M130.174801,258.702383 C130.605288,258.45325 130.957004,258.654755 130.958843,259.156684 C130.960668,259.649454 130.608951,260.257631 130.180296,260.504932 L125.91573,262.96695 C125.485243,263.216082 125.126199,263.018242 125.12436,262.52364 C125.122535,262.021711 125.479748,261.411702 125.910235,261.164401 L130.174801,258.702383 Z" id="Fill-219" fill="#D3FCF4"></path>
                        <path d="M130.164542,255.075304 C130.595029,254.828003 130.946746,255.035003 130.948585,255.529604 C130.95041,256.024206 130.598693,256.630551 130.170038,256.877852 L125.905472,259.33987 C125.474985,259.589003 125.115941,259.391162 125.114109,258.89656 C125.114109,258.401958 125.469489,257.786454 125.899976,257.537321 L130.164542,255.075304 Z" id="Fill-221" fill="#D3FCF4"></path>
                        <path d="M130.154284,251.448224 C130.584771,251.200923 130.936488,251.407923 130.938327,251.902525 C130.940151,252.397127 130.588435,253.010799 130.15978,253.2581 L125.895213,255.72195 C125.464727,255.96925 125.105682,255.764082 125.10385,255.269481 C125.10385,254.776711 125.459231,254.159374 125.889718,253.910242 L130.154284,251.448224 Z" id="Fill-223" fill="#D3FCF4"></path>
                        <path d="M146.538975,245.621632 C146.974958,245.368835 147.326674,245.577667 147.328513,246.072269 C147.330338,246.566871 146.980453,247.173216 146.544471,247.424181 L142.2854,249.882535 C141.849418,250.135331 141.495862,249.933827 141.495862,249.439225 C141.494037,248.944623 141.843922,248.33095 142.279904,248.079986 L146.538975,245.621632 Z" id="Fill-225" fill="#D3FCF4"></path>
                        <path d="M130.144026,225.932818 C130.574512,225.685517 130.926229,225.885189 130.928068,226.379791 C130.929893,226.874393 130.578176,227.488065 130.149521,227.735366 L125.884955,230.197384 C125.454468,230.446517 125.095424,230.243181 125.093592,229.748579 C125.093592,229.253977 125.448973,228.643968 125.879459,228.394835 L130.144026,225.932818 Z" id="Fill-227" fill="#D3FCF4"></path>
                        <path d="M176.808054,198.991676 C177.244036,198.73888 177.595753,198.940384 177.597592,199.434986 C177.599417,199.929588 177.249532,200.54326 176.81355,200.794225 L168.035284,205.861145 C167.604797,206.110278 167.253081,205.901446 167.251242,205.408676 C167.249417,204.914074 167.599302,204.307729 168.029788,204.060428 L176.808054,198.991676 Z" id="Fill-229" fill="#D3FCF4"></path>
                        <path d="M176.828571,206.237592 C177.264553,205.986627 177.61627,206.193627 177.618109,206.688229 C177.619934,207.182831 177.270049,207.789176 176.834066,208.040141 L149.803164,223.645742 C149.367181,223.898539 149.013626,223.697035 149.013626,223.204265 C149.011801,222.709663 149.361686,222.09599 149.797668,221.845026 L176.828571,206.237592 Z" id="Fill-231" fill="#D3FCF4"></path>
                        <path d="M176.818312,202.610512 C177.254295,202.359548 177.606012,202.566548 177.607851,203.06115 C177.609675,203.555751 177.25979,204.169424 176.823808,204.420388 L149.792905,220.02599 C149.356923,220.278787 149.003367,220.069955 149.003367,219.577185 C149.001542,219.082583 149.351427,218.468911 149.78741,218.217946 L176.818312,202.610512 Z" id="Fill-233" fill="#D3FCF4"></path>
                        <path d="M164.989087,205.815532 C165.419573,205.566399 165.776786,205.76424 165.778625,206.258842 C165.78045,206.753443 165.423237,207.37078 164.994582,207.618081 L147.547963,217.69147 C147.117476,217.938771 146.76392,217.731771 146.76392,217.237169 C146.762096,216.742567 147.111981,216.136222 147.542467,215.888921 L164.989087,205.815532 Z" id="Fill-235" fill="#D3FCF4"></path>
                        <path d="M146.528717,220.099081 C146.964699,219.846285 147.316416,220.055117 147.318255,220.549719 C147.32008,221.04432 146.970195,221.656161 146.534212,221.908958 L142.275142,224.367312 C141.839159,224.618276 141.485603,224.411276 141.485603,223.916674 C141.483779,223.422073 141.833664,222.8084 142.269646,222.557435 L146.528717,220.099081 Z" id="Fill-237" fill="#D3FCF4"></path>
                        <path d="M144.585848,217.594565 C145.016335,217.347264 145.373547,217.543273 145.375386,218.037874 C145.377211,218.532476 145.02183,219.149812 144.591343,219.397113 L140.326777,221.860963 C139.89629,222.108264 139.542734,221.901264 139.542734,221.406662 C139.54091,220.91206 139.890795,220.305715 140.321281,220.056582 L144.585848,217.594565 Z" id="Fill-239" fill="#D3FCF4"></path>
                        <path d="M130.164542,233.17965 C130.595029,232.930517 130.946746,233.139349 130.948585,233.63395 C130.95041,234.12672 130.598693,234.734897 130.170038,234.982198 L125.905472,237.444216 C125.474985,237.693349 125.115941,237.495508 125.114109,237.000906 C125.114109,236.506304 125.469489,235.888968 125.899976,235.641667 L130.164542,233.17965 Z" id="Fill-241" fill="#D3FCF4"></path>
                        <path d="M130.154284,229.552753 C130.584771,229.30362 130.936488,229.512452 130.938327,230.007054 C130.940151,230.501656 130.588435,231.115328 130.15978,231.362629 L125.895213,233.824647 C125.464727,234.07378 125.105682,233.868612 125.10385,233.37401 C125.10385,232.879408 125.459231,232.262072 125.889718,232.014771 L130.154284,229.552753 Z" id="Fill-243" fill="#D3FCF4"></path>
                        <path d="M146.538975,223.725245 C146.974958,223.474281 147.326674,223.681281 147.328513,224.175882 C147.330338,224.670484 146.980453,225.276829 146.544471,225.527794 L142.2854,227.98798 C141.849418,228.238944 141.495862,228.03744 141.495862,227.542838 C141.494037,227.050068 141.843922,226.436396 142.279904,226.183599 L146.538975,223.725245 Z" id="Fill-245" fill="#D3FCF4"></path>
                        <path d="M130.225727,276.828622 C130.656213,276.579489 131.00793,276.788321 131.009769,277.282923 C131.011594,277.777525 130.661709,278.38387 130.231222,278.631171 L125.966656,281.093188 C125.536169,281.342321 125.177118,281.144481 125.177118,280.649879 C125.175293,280.155277 125.530673,279.537941 125.96116,279.29064 L130.225727,276.828622 Z" id="Fill-247" fill="#D3FCF4"></path>
                        <path d="M130.215468,273.201542 C130.645955,272.954242 130.997672,273.161242 130.999511,273.655843 C131.001335,274.150445 130.65145,274.764118 130.220964,275.011419 L125.956397,277.473436 C125.525911,277.722569 125.166859,277.517401 125.166859,277.022799 C125.165035,276.530029 125.520415,275.912693 125.950902,275.66356 L130.215468,273.201542 Z" id="Fill-249" fill="#D3FCF4"></path>
                        <path d="M130.20521,269.581607 C130.635696,269.334306 130.987413,269.533979 130.989252,270.028581 C130.991077,270.523182 130.641192,271.136855 130.210705,271.384156 L125.946139,273.848005 C125.515652,274.095306 125.156601,273.89197 125.156601,273.397368 C125.154776,272.902766 125.510157,272.292758 125.940643,272.043625 L130.20521,269.581607 Z" id="Fill-251" fill="#D3FCF4"></path>
                        <path d="M130.195318,265.955443 C130.625804,265.706311 130.977521,265.907815 130.97936,266.402417 C130.981185,266.904346 130.629468,267.510691 130.200813,267.757992 L125.936247,270.22001 C125.50576,270.469142 125.146716,270.271302 125.144877,269.771204 C125.143052,269.274771 125.500265,268.664762 125.930751,268.417461 L130.195318,265.955443 Z" id="Fill-253" fill="#D3FCF4"></path>
                        <path d="M130.185059,262.328547 C130.615546,262.081246 130.967263,262.280919 130.969102,262.782848 C130.970927,263.27745 130.61921,263.883795 130.190555,264.131096 L125.925988,266.594945 C125.495502,266.842246 125.136458,266.644405 125.134619,266.149804 C125.132794,265.649706 125.490006,265.039697 125.920493,264.790565 L130.185059,262.328547 Z" id="Fill-255" fill="#D3FCF4"></path>
                        <path d="M146.559492,252.874875 C146.995474,252.622079 147.347191,252.823583 147.34903,253.325512 C147.350855,253.820114 147.00097,254.426459 146.564988,254.677424 L142.305917,257.135778 C141.869935,257.388574 141.516379,257.18707 141.516379,256.692468 C141.514554,256.192371 141.864439,255.584194 142.300421,255.333229 L146.559492,252.874875 Z" id="Fill-257" fill="#D3FCF4"></path>
                        <path d="M130.246427,284.081865 C130.676913,283.834565 131.02863,284.034237 131.030469,284.536166 C131.032294,285.030768 130.682409,285.637113 130.251922,285.884414 L125.987356,288.346432 C125.556869,288.595565 125.197818,288.397724 125.197818,287.903122 C125.195993,287.403025 125.551373,286.793016 125.98186,286.543883 L130.246427,284.081865 Z" id="Fill-259" fill="#D3FCF4"></path>
                        <path d="M130.235985,280.454786 C130.666472,280.207485 131.018188,280.407158 131.020028,280.909087 C131.021852,281.403688 130.671967,282.010034 130.241481,282.257335 L125.976914,284.721184 C125.546427,284.968485 125.187376,284.770644 125.187376,284.276042 C125.185551,283.775945 125.540932,283.165936 125.971419,282.916804 L130.235985,280.454786 Z" id="Fill-261" fill="#D3FCF4"></path>
                        <path d="M146.621226,274.628194 C147.057208,274.375397 147.408925,274.576902 147.410764,275.078831 C147.412588,275.573433 147.062704,276.179778 146.626721,276.430742 L142.36765,278.889096 C141.931668,279.141893 141.578112,278.940388 141.578112,278.445787 C141.576288,277.945689 141.926173,277.337512 142.362155,277.086548 L146.621226,274.628194 Z" id="Fill-263" fill="#D3FCF4"></path>
                        <path d="M152.66874,267.503913 C153.104722,267.251117 153.458278,267.452621 153.458278,267.95455 C153.460103,268.449152 153.110218,269.055497 152.674235,269.306462 L140.419103,276.382931 C139.988616,276.630232 139.63506,276.430559 139.63506,275.935958 C139.633235,275.434028 139.98312,274.827683 140.413607,274.57855 L152.66874,267.503913 Z" id="Fill-265" fill="#D3FCF4"></path>
                        <path d="M152.350363,16.1689097 C152.518894,22.737954 152.639796,29.3069982 152.700248,35.8778743 L152.808327,55.5850071 L152.70208,75.2921398 C152.639796,81.8630159 152.518894,88.4320602 152.350363,95.0011044 C152.181832,88.4320602 152.060929,81.8630159 151.998646,75.2921398 L151.89423,55.5850071 L152.000478,35.8778743 C152.060929,29.3069982 152.183664,22.737954 152.350363,16.1689097" id="Fill-267" fill="#57F3EA"></path>
                        <path d="M118.648748,0.630353982 C118.815447,7.19939823 118.938181,13.7684425 118.998633,20.3374867 L119.104881,40.0464513 L119.000465,59.7535841 C118.938181,66.3226283 118.817279,72.8916726 118.648748,79.4625487 C118.480217,72.8916726 118.359314,66.3226283 118.297031,59.7535841 L118.192615,40.0464513 L118.298863,20.3374867 C118.359314,13.7684425 118.482049,7.19939823 118.648748,0.630353982" id="Fill-269" fill="#57F3EA"></path>
                        <path d="M69.8550009,36.1557673 C69.9850628,41.2208558 70.0784876,46.2877761 70.1242841,51.3528646 L70.2067177,66.5499619 L70.1261159,81.7470593 C70.0784876,86.8121478 69.9850628,91.8772363 69.8550009,96.9441566 C69.7249389,91.8772363 69.6315142,86.8121478 69.5838858,81.7470593 L69.5032841,66.5499619 L69.5857177,51.3528646 C69.6315142,46.2877761 69.7267708,41.2208558 69.8550009,36.1557673" id="Fill-271" fill="#57F3EA"></path>
                        <path d="M57.7434858,67.4636929 C57.8735478,72.5287814 57.9669726,77.5957018 58.012769,82.6607903 L58.0952027,97.8578876 L58.0146009,113.054985 C57.9669726,118.120073 57.8735478,123.185162 57.7434858,128.252082 C57.6134239,123.185162 57.5199991,118.120073 57.4723708,113.054985 L57.391769,97.8578876 L57.4742027,82.6607903 C57.5199991,77.5957018 57.6134239,72.5287814 57.7434858,67.4636929" id="Fill-273" fill="#57F3EA"></path>
                        <path d="M87.1748558,95.0014708 C87.3049177,100.066559 87.3983425,105.131648 87.4441389,110.198568 L87.5265726,125.395665 L87.4459708,140.592763 C87.3983425,145.657851 87.3049177,150.72294 87.1748558,155.78986 C87.0447938,150.72294 86.951369,145.657851 86.9037407,140.592763 L86.8231389,125.395665 L86.9055726,110.198568 C86.951369,105.131648 87.0447938,100.066559 87.1748558,95.0014708" id="Fill-275" fill="#57F3EA"></path>
                        <path d="M137.953971,86.2777947 C138.082201,91.3428832 138.177458,96.4098035 138.223254,101.474892 L138.305688,116.671989 L138.225086,131.869087 C138.177458,136.934175 138.084033,141.999264 137.953971,147.066184 C137.823909,141.999264 137.730484,136.934175 137.682856,131.869087 L137.602254,116.671989 L137.684688,101.474892 C137.730484,96.4098035 137.823909,91.3428832 137.953971,86.2777947" id="Fill-277" fill="#57F3EA"></path>
                        <path d="M185.524036,40.1182602 C185.524036,41.1495965 184.688709,41.9849239 183.657373,41.9849239 C182.626036,41.9849239 181.790709,41.1495965 181.790709,40.1182602 C181.790709,39.0887558 182.626036,38.2515965 183.657373,38.2515965 C184.688709,38.2515965 185.524036,39.0887558 185.524036,40.1182602" id="Fill-279" fill="#D3FCF4"></path>
                        <path d="M193.683866,99.0291779 C193.683866,99.8974788 192.980433,100.599081 192.112132,100.599081 C191.245663,100.599081 190.542229,99.8974788 190.542229,99.0291779 C190.542229,98.160877 191.245663,97.4574434 192.112132,97.4574434 C192.980433,97.4574434 193.683866,98.160877 193.683866,99.0291779" id="Fill-281" fill="#D3FCF4"></path>
                        <path d="M154.083301,110.912077 C154.083301,111.401183 153.687619,111.796865 153.198513,111.796865 C152.709407,111.796865 152.311894,111.401183 152.311894,110.912077 C152.311894,110.422971 152.709407,110.027289 153.198513,110.027289 C153.687619,110.027289 154.083301,110.422971 154.083301,110.912077" id="Fill-283" fill="#D3FCF4"></path>
                        <path d="M187.295077,164.841988 C187.295077,165.331095 186.897564,165.726776 186.410289,165.726776 C185.921183,165.726776 185.52367,165.331095 185.52367,164.841988 C185.52367,164.352882 185.921183,163.957201 186.410289,163.957201 C186.897564,163.957201 187.295077,164.352882 187.295077,164.841988" id="Fill-285" fill="#D3FCF4"></path>
                        <path d="M11.3258425,158.671923 C11.3258425,159.161029 10.9283292,159.556711 10.4410549,159.556711 C9.95194867,159.556711 9.5544354,159.161029 9.5544354,158.671923 C9.5544354,158.182817 9.95194867,157.787135 10.4410549,157.787135 C10.9283292,157.787135 11.3258425,158.182817 11.3258425,158.671923" id="Fill-287" fill="#D3FCF4"></path>
                        <path d="M77.1873805,48.7802027 C77.1873805,49.2693088 76.7916991,49.6649903 76.3025929,49.6649903 C75.8134867,49.6649903 75.4159735,49.2693088 75.4159735,48.7802027 C75.4159735,48.2910965 75.8134867,47.895415 76.3025929,47.895415 C76.7916991,47.895415 77.1873805,48.2910965 77.1873805,48.7802027" id="Fill-289" fill="#D3FCF4"></path>
                        <path d="M127.947078,28.873031 C127.947078,29.3621372 127.551396,29.7578186 127.06229,29.7578186 C126.573184,29.7578186 126.175671,29.3621372 126.175671,28.873031 C126.175671,28.3839248 126.573184,27.9882434 127.06229,27.9882434 C127.551396,27.9882434 127.947078,28.3839248 127.947078,28.873031" id="Fill-291" fill="#D3FCF4"></path>
                        <path d="M139.656134,10.2073097 C139.656134,10.5974956 139.339222,10.9162389 138.947204,10.9162389 C138.557019,10.9162389 138.240107,10.5974956 138.240107,10.2073097 C138.240107,9.81529204 138.557019,9.49838053 138.947204,9.49838053 C139.339222,9.49838053 139.656134,9.81529204 139.656134,10.2073097" id="Fill-293" fill="#D3FCF4"></path>
                        <path d="M64.0280425,18.3327009 C64.0280425,18.7247186 63.711131,19.0416301 63.3191133,19.0416301 C62.9289274,19.0416301 62.6120159,18.7247186 62.6120159,18.3327009 C62.6120159,17.942515 62.9289274,17.6237717 63.3191133,17.6237717 C63.711131,17.6237717 64.0280425,17.942515 64.0280425,18.3327009" id="Fill-295" fill="#D3FCF4"></path>
                        <g transform="translate(104.415929, 0.000000)">
                            <mask id="mask-10" fill="white">
                                <use xlink:href="#path-9"></use>
                            </mask>
                            <g id="Clip-298"></g>
                            <path d="M2.43088761,1.51495841 C2.43088761,2.0040646 2.03337434,2.39974602 1.5461,2.39974602 C1.05699381,2.39974602 0.659480531,2.0040646 0.659480531,1.51495841 C0.659480531,1.02585221 1.05699381,0.630170796 1.5461,0.630170796 C2.03337434,0.630170796 2.43088761,1.02585221 2.43088761,1.51495841" id="Fill-297" fill="#D3FCF4" mask="url(#mask-10)"></path>
                        </g>
                        <path d="M43.844077,112.231565 C43.844077,112.883706 43.3146699,113.414945 42.6606965,113.414945 C42.0085549,113.414945 41.4791478,112.883706 41.4791478,112.231565 C41.4791478,111.577591 42.0085549,111.048184 42.6606965,111.048184 C43.3146699,111.048184 43.844077,111.577591 43.844077,112.231565" id="Fill-299" fill="#D3FCF4"></path>
                        <path d="M28.7620204,57.6379708 C28.7620204,58.2919442 28.2326133,58.8213513 27.5786398,58.8213513 C26.9264982,58.8213513 26.3952593,58.2919442 26.3952593,57.6379708 C26.3952593,56.9858292 26.9264982,56.4545903 27.5786398,56.4545903 C28.2326133,56.4545903 28.7620204,56.9858292 28.7620204,57.6379708" id="Fill-301" fill="#D3FCF4"></path>
                        <path d="M3.0533531,96.1839354 C3.0533531,96.836077 2.52394602,97.3673159 1.86997257,97.3673159 C1.21783097,97.3673159 0.688423894,96.836077 0.688423894,96.1839354 C0.688423894,95.5317938 1.21783097,95.0005549 1.86997257,95.0005549 C2.52394602,95.0005549 3.0533531,95.5317938 3.0533531,96.1839354" id="Fill-303" fill="#D3FCF4"></path>
                    </g>
                </g>
                <polygon id="路径-4" fill="url(#linearGradient-11)" points="24.9838829 13.7954389 89 306.181259 189.163717 350 288.097246 307.575065 343.796435 0 22 5.11516272"></polygon>
            </g>
        </g>
    </g>
</svg>