<?xml version="1.0" encoding="UTF-8"?>
<svg width="227px" height="269px" viewBox="0 0 227 269" version="1.1" xmlns="http://www.w3.org/2000/svg" xmlns:xlink="http://www.w3.org/1999/xlink">
    <title>画板备份 7</title>
    <defs>
        <linearGradient x1="2.01028518%" y1="59.6110769%" x2="92.5666199%" y2="41.488%" id="linearGradient-1">
            <stop stop-color="#0084E9" offset="11%"></stop>
            <stop stop-color="#7DE7E8" offset="100%"></stop>
        </linearGradient>
        <linearGradient x1="50%" y1="0%" x2="50%" y2="100%" id="linearGradient-2">
            <stop stop-color="#83B1D3" offset="0%"></stop>
            <stop stop-color="#745EE0" offset="100%"></stop>
        </linearGradient>
        <linearGradient x1="50%" y1="0%" x2="50%" y2="99.1012893%" id="linearGradient-3">
            <stop stop-color="#6B9DC2" offset="0%"></stop>
            <stop stop-color="#6A58C5" offset="100%"></stop>
        </linearGradient>
        <linearGradient x1="2.01028518%" y1="56.8766008%" x2="92.5666199%" y2="43.9097744%" id="linearGradient-4">
            <stop stop-color="#0084E9" offset="11%"></stop>
            <stop stop-color="#7DE7E8" offset="100%"></stop>
        </linearGradient>
        <linearGradient x1="31.5270101%" y1="63.1882591%" x2="95.3154175%" y2="24.4232725%" id="linearGradient-5">
            <stop stop-color="#0084E9" offset="0%"></stop>
            <stop stop-color="#7DE7E8" offset="100%"></stop>
        </linearGradient>
        <linearGradient x1="2.01028518%" y1="53.954523%" x2="92.5666199%" y2="46.4976974%" id="linearGradient-6">
            <stop stop-color="#0084E9" offset="11%"></stop>
            <stop stop-color="#7DE7E8" offset="100%"></stop>
        </linearGradient>
        <linearGradient x1="50%" y1="0%" x2="50%" y2="99.1012893%" id="linearGradient-7">
            <stop stop-color="#6B9DC2" offset="0%"></stop>
            <stop stop-color="#6A58C5" offset="100%"></stop>
        </linearGradient>
        <linearGradient x1="38.0326674%" y1="63.1882591%" x2="97.3269098%" y2="8.38199798%" id="linearGradient-8">
            <stop stop-color="#0084E9" offset="0%"></stop>
            <stop stop-color="#7DE7E8" offset="100%"></stop>
        </linearGradient>
        <linearGradient x1="-64.1552471%" y1="36.107561%" x2="133.211612%" y2="60.1185755%" id="linearGradient-9">
            <stop stop-color="#69D7E8" offset="0%"></stop>
            <stop stop-color="#93DCFF" offset="100%"></stop>
        </linearGradient>
        <linearGradient x1="50%" y1="0%" x2="50%" y2="100%" id="linearGradient-10">
            <stop stop-color="#F1F1F1" stop-opacity="0" offset="0%"></stop>
            <stop stop-color="#7DE7E8" offset="100%"></stop>
        </linearGradient>
        <linearGradient x1="184.675044%" y1="51.1812757%" x2="4.23914686%" y2="50%" id="linearGradient-11">
            <stop stop-color="#0F123B" offset="0%"></stop>
            <stop stop-color="#1B2062" offset="24%"></stop>
            <stop stop-color="#1D2469" offset="30%"></stop>
            <stop stop-color="#232E7D" offset="38%"></stop>
            <stop stop-color="#2D3E9D" offset="48%"></stop>
            <stop stop-color="#3852C3" offset="58%"></stop>
            <stop stop-color="#64D5F7" offset="100%"></stop>
        </linearGradient>
        <linearGradient x1="15.3708348%" y1="41.2506198%" x2="173.020423%" y2="57.9495484%" id="linearGradient-12">
            <stop stop-color="#42E8E0" offset="0%"></stop>
            <stop stop-color="#3CCACE" offset="10%"></stop>
            <stop stop-color="#2F87A5" offset="34%"></stop>
            <stop stop-color="#255385" offset="56%"></stop>
            <stop stop-color="#1E2D6E" offset="75%"></stop>
            <stop stop-color="#1A1660" offset="91%"></stop>
            <stop stop-color="#180D5B" offset="100%"></stop>
        </linearGradient>
        <linearGradient x1="-127.809292%" y1="-394.702406%" x2="-24.0829824%" y2="-334.529337%" id="linearGradient-13">
            <stop stop-color="#2B237C" offset="0%"></stop>
            <stop stop-color="#180D5B" offset="100%"></stop>
        </linearGradient>
        <linearGradient x1="184.675044%" y1="52.6573094%" x2="4.23914686%" y2="50%" id="linearGradient-14">
            <stop stop-color="#0F123B" offset="0%"></stop>
            <stop stop-color="#1B2062" offset="24%"></stop>
            <stop stop-color="#1D2469" offset="30%"></stop>
            <stop stop-color="#232E7D" offset="38%"></stop>
            <stop stop-color="#2D3E9D" offset="48%"></stop>
            <stop stop-color="#3852C3" offset="58%"></stop>
            <stop stop-color="#64D5F7" offset="100%"></stop>
        </linearGradient>
        <linearGradient x1="15.3708348%" y1="41.2311117%" x2="173.020423%" y2="57.9495484%" id="linearGradient-15">
            <stop stop-color="#42E8E0" offset="0%"></stop>
            <stop stop-color="#3CCACE" offset="10%"></stop>
            <stop stop-color="#2F87A5" offset="34%"></stop>
            <stop stop-color="#255385" offset="56%"></stop>
            <stop stop-color="#1E2D6E" offset="75%"></stop>
            <stop stop-color="#1A1660" offset="91%"></stop>
            <stop stop-color="#180D5B" offset="100%"></stop>
        </linearGradient>
        <linearGradient x1="-189.144737%" y1="-279.169414%" x2="-78.9839181%" y2="-245.154025%" id="linearGradient-16">
            <stop stop-color="#2B237C" offset="0%"></stop>
            <stop stop-color="#180D5B" offset="100%"></stop>
        </linearGradient>
        <linearGradient x1="184.675044%" y1="50.7535057%" x2="4.23914686%" y2="50%" id="linearGradient-17">
            <stop stop-color="#0F123B" offset="0%"></stop>
            <stop stop-color="#1B2062" offset="24%"></stop>
            <stop stop-color="#1D2469" offset="30%"></stop>
            <stop stop-color="#232E7D" offset="38%"></stop>
            <stop stop-color="#2D3E9D" offset="48%"></stop>
            <stop stop-color="#3852C3" offset="58%"></stop>
            <stop stop-color="#64D5F7" offset="100%"></stop>
        </linearGradient>
    </defs>
    <g id="页面-1" stroke="none" stroke-width="1" fill="none" fill-rule="evenodd">
        <g id="画板备份" transform="translate(-616.000000, -1262.000000)">
            <g id="编组-13" transform="translate(616.000000, 1262.000000)">
                <path d="M174.900595,199.369128 C175.82554,192.800399 169.700687,186.100848 156.550678,181.055587 C155.800754,180.777058 155.050546,180.498714 154.2757,180.236514 C147.649577,177.985269 140.571177,176.358442 133.250638,175.404279 C111.200377,172.390186 85.7004087,174.224658 68.150259,180.94091 C55.0002492,185.98617 49.00029,192.735081 50.1500981,199.352799 L50,199.369128 L50,213.931522 C50.0923245,217.33511 51.8445074,220.629774 54.999966,223.333977 L54.999966,246.840301 C54.999966,252.507938 60.6498851,258.175761 71.9749285,262.500297 C73.6970918,263.165724 75.4747631,263.767318 77.3000127,264.302109 C84.5075536,266.416966 92.160008,267.808685 99.9999434,268.430134 C118.59993,270.08461 138.875069,268.135275 153.300063,262.598645 C164.450086,258.339613 170.000034,252.737479 170.000034,247.135345 L170.000034,223.612506 C173.171352,220.932797 174.926367,217.649824 175,214.25904 L175,199.368943 L174.900595,199.368943 L174.900595,199.369128 Z" id="Shape备份-71" fill="url(#linearGradient-1)" fill-rule="nonzero"></path>
                <path d="M155,179.806413 L93.5131008,220 C86.2303591,219.148422 79.1618913,217.657515 72.5045436,215.568436 C72.3248393,215.530785 72.1545629,215.475785 72,215.405466 L133.78974,175 C141.175047,175.949028 148.315511,177.567099 155,179.806413 Z" id="Shape备份-73" fill="url(#linearGradient-2)" fill-rule="nonzero"></path>
                <path d="M101,237.561308 L101,268 C93.0561419,267.388682 85.3025301,266.019832 78,263.939269 L78.202585,263.66528 L78.202585,234.322361 L78.40517,234 C84.0654989,235.411746 89.9393168,236.448559 95.9339397,237.09383 C97.6056965,237.28732 99.3027048,237.432437 101,237.561308 Z" id="Shape备份-75" fill="url(#linearGradient-3)" fill-rule="nonzero"></path>
                <path d="M171,224 L171,247.321925 C171,252.876438 165.450059,258.430766 154.30005,262.65327 C139.875075,268.142654 119.599963,270.075355 101,268.434997 L101,237.756116 C120.925072,239.347719 142.449962,237.236375 157.850007,231.389704 C162.970328,229.54145 167.447211,227.025536 171,224 Z" id="Shape备份-77" fill="url(#linearGradient-4)" fill-rule="nonzero"></path>
                <path d="M73,215.835705 L73,232 C71.5690137,231.557897 70.188979,231.099283 68.8598958,230.591505 C63.497533,228.696197 58.8140419,226.102021 55.1110789,222.976135 C51.8854974,220.2725 50.0943762,216.978344 50,213.575657 L50,199.016326 L50.1534337,199 C51.1244084,204.617467 57.3856611,210.120096 68.8601853,214.427396 C70.0358348,214.869498 71.23696,215.29546 72.4890369,215.672073 C72.645655,215.742572 72.8179061,215.797858 73,215.835705 Z" id="Shape备份-79" fill="url(#linearGradient-5)" fill-rule="nonzero"></path>
                <path d="M175,199 L175,214.030746 C174.926367,217.453372 173.171353,220.767355 170.000035,223.472563 C166.447243,226.552964 161.970356,229.114502 156.850029,230.996084 C141.449968,236.948779 119.925057,239.09841 99.9999646,237.477945 C98.3250968,237.3457 96.6499458,237.196784 95,236.998417 L95,220.760612 L95.0249219,220.694489 C116.300047,223.141764 140.150063,221.124378 156.850029,214.675672 C162.706686,212.570997 167.680596,209.536863 171.325146,205.845814 L171.325146,205.82933 C173.320035,203.77317 174.545458,201.432103 174.900029,199 L175,199 L175,199 Z" id="Shape备份-81" fill="url(#linearGradient-6)" fill-rule="nonzero"></path>
                <path d="M96,220.708801 L95.9745524,220.774871 L95.9745524,237 C89.9333509,236.338357 84.0138931,235.275237 78.3095831,233.827671 C76.4715726,233.364989 74.7101941,232.869365 73,232.30767 L73,216 C79.7384078,218.118567 86.8926524,219.630519 94.2643583,220.494118 C94.8510989,220.576659 95.4384178,220.64273 96,220.708801 Z" id="Shape备份-83" fill="url(#linearGradient-7)" fill-rule="nonzero"></path>
                <path d="M78,233.54091 L77.797415,233.868868 L77.797415,263.721254 L77.59483,264 C75.7457395,263.464793 73.9442823,262.862731 72.1993537,262.196786 C60.7246051,257.868886 55,252.19684 55,246.524608 L55,223 C58.6703471,226.128976 63.3125858,228.725715 68.6277166,230.622897 C69.9448062,231.131177 71.3126856,231.590059 72.7313546,232.032784 C74.4286498,232.59009 76.1764478,233.081842 78,233.54091 Z" id="Shape备份-85" fill="url(#linearGradient-8)" fill-rule="nonzero"></path>
                <line x1="71.8830043" y1="215.906913" x2="71.8581514" y2="215.923296" id="Shape备份-87" fill="#C03A2B" fill-rule="nonzero"></line>
                <ellipse id="椭圆形备份-29" stroke="#FFFFFF" stroke-width="1.68608563" fill="url(#linearGradient-9)" opacity="0.299999982" cx="112.5" cy="192" rx="62.5" ry="24"></ellipse>
                <path d="M0,0 L227,0 L174.966714,189.807227 C162.290263,201.935742 140.578911,208 109.832659,208 C79.8132281,208 53.4676293,199.773469 50.6832293,189.807227 C38.7867417,147.225961 21.8923319,83.9568855 0,0 Z" id="路径-2备份-9" fill="url(#linearGradient-10)" opacity="0.299999982"></path>
                <g id="编组-22" transform="translate(79.000000, 129.000000)" fill-rule="nonzero">
                    <g id="编组-23" transform="translate(0.152941, 0.000000)">
                        <path d="M33.7789762,27.8442973 C33.7190082,27.8558606 33.6556285,27.8558606 33.5956605,27.8442973 L0.183315793,14.4264822 C0.0698068577,14.3810293 1.65793305e-13,14.297007 1.65793305e-13,14.2061011 C0.0023344841,14.1156522 0.0715877342,14.0323964 0.183315793,13.9857201 L33.6201026,0.601809774 C33.731068,0.550386901 33.8757685,0.550386901 33.986734,0.601809774 L67.3990787,13.9857201 C67.5108067,14.0323964 67.58006,14.1156522 67.5823945,14.2061011 C67.5823945,14.297007 67.5125876,14.3810293 67.3990787,14.4264822 L33.9622919,27.8103925 C33.9070155,27.8334518 33.8434675,27.8452052 33.7789762,27.8442973 Z M1.07545228,14.2061011 L33.7789762,27.3018209 L66.4825001,14.2061011 L33.7789762,1.11038141 L1.07545228,14.2061011 Z" id="形状" fill="#73FFF5"></path>
                        <polygon id="路径" fill="#0B0244" opacity="0.3" points="33.7789762 22.8348666 12.2210479 14.2061011 33.7789762 5.57733565 55.3369045 14.2061011"></polygon>
                        <polygon id="路径" fill="#312A91" points="33.7789762 45.0001139 0.342189414 31.6162036 33.7789762 18.2238171 67.2157629 31.6162036"></polygon>
                        <polygon id="路径" fill="url(#linearGradient-11)" points="33.7789762 45.0001139 0.342189414 31.6162036 33.7789762 18.2238171 67.2157629 31.6162036"></polygon>
                        <polygon id="路径" fill="url(#linearGradient-12)" opacity="0.8" style="mix-blend-mode: lighten;" points="1.68650467 31.6162036 34.4511338 18.4950553 33.7789762 18.2238171 0.342189414 31.6162036 33.7789762 45.0001139 34.4511338 44.7373519"></polygon>
                        <polygon id="路径" fill="#5CFFF3" points="33.7789762 41.5418268 8.99469125 31.6162036 33.7789762 21.6905804 58.5632611 31.6162036"></polygon>
                        <polygon id="路径" fill="#42E8E0" points="33.7789762 23.9622004 55.727978 32.7520136 58.5632611 31.6162036 33.7789762 21.6905804 8.99469125 31.6162036 11.8299743 32.7520136"></polygon>
                        <polygon id="路径" fill="#312A91" points="33.7789762 71.7764108 0.342189414 58.3925004 0.342189414 31.6162036 33.7789762 45.0001139"></polygon>
                        <polygon id="路径" fill="url(#linearGradient-13)" points="67.2157629 58.3925004 33.7789762 71.7764108 33.7789762 45.0001139 67.2157629 31.6162036"></polygon>
                        <polygon id="路径" fill="url(#linearGradient-14)" points="33.7789762 45.0001139 0.342189414 31.6162036 0.342189414 58.3925004 33.7789762 71.7764108 67.2157629 58.3925004 67.2157629 31.6162036"></polygon>
                        <path d="M3.55632498,35.4728719 L3.55632498,57.1041189 L30.5648406,67.9197425 L30.5648406,46.313924 L3.55632498,35.4728719 Z M27.9984206,64.8005031 L6.15940816,56.0615471 L6.15940816,38.5921113 L27.9739785,47.3310673 L27.9984206,64.8005031 Z" id="形状" fill="#5CFFF3"></path>
                        <polygon id="路径" fill="#42E8E0" points="4.81509291 56.7057378 4.81509291 35.9814435 3.55632498 35.4728719 3.55632498 57.1041189 30.5648406 67.9197425 30.5648406 67.0127897"></polygon>
                        <polygon id="路径" fill="#42E8E0" points="29.2327464 64.402122 29.2327464 46.9326862 7.41817609 38.1937301 7.41817609 39.1006829 27.9739785 47.3310673 27.9739785 63.8935503"></polygon>
                        <polygon id="路径" fill="#42E8E0" points="27.9739785 64.8005031 29.2327464 64.402122 27.9739785 63.1900262"></polygon>
                        <path d="M36.9931117,46.313924 L36.9931117,67.9451711 L64.0016274,57.1295475 L64.0016274,35.4728719 L36.9931117,46.313924 Z M39.5839739,47.3564959 L61.3985442,38.6175398 L61.3985442,56.0615471 L39.5839739,64.8005031 L39.5839739,47.3564959 Z" id="形状" fill="#5CFFF3"></path>
                        <polygon id="路径" fill="#42E8E0" points="62.7428595 56.7057378 62.7428595 35.9814435 64.0016274 35.4728719 64.0016274 57.1041189 36.9931117 67.9197425 36.9931117 67.0127897"></polygon>
                        <polygon id="路径" fill="#42E8E0" points="38.325206 64.402122 38.325206 46.9326862 60.1397763 38.1937301 60.1397763 39.1006829 39.5839739 47.3310673 39.5839739 63.8935503"></polygon>
                        <polygon id="路径" fill="#42E8E0" points="39.5839739 64.8005031 38.325206 64.402122 39.5839739 63.1900262"></polygon>
                        <polygon id="路径" fill="#312A91" points="33.7789762 26.7762968 0.342189414 13.3839103 33.7789762 2.60523835e-15 67.2157629 13.3839103"></polygon>
                        <polygon id="路径" fill="url(#linearGradient-11)" points="33.7789762 26.7762968 0.342189414 13.3839103 33.7789762 2.60523835e-15 67.2157629 13.3839103"></polygon>
                        <polygon id="路径" fill="url(#linearGradient-15)" opacity="0.8" style="mix-blend-mode: lighten;" points="1.68650467 13.3839103 34.4511338 0.271238208 33.7789762 2.60523835e-15 0.342189414 13.3839103 33.7789762 26.7762968 34.4511338 26.5050586"></polygon>
                        <polygon id="路径" fill="#5CFFF3" points="33.7789762 23.3095335 8.99469125 13.3839103 33.7789762 3.46676334 58.5632611 13.3839103"></polygon>
                        <polygon id="路径" fill="#42E8E0" points="33.7789762 5.72990714 55.727978 14.5197203 58.5632611 13.3839103 33.7789762 3.46676334 8.99469125 13.3839103 11.8299743 14.5197203"></polygon>
                        <polygon id="路径" fill="#312A91" points="33.7789762 34.7693478 0.342189414 21.3769613 0.342189414 13.3839103 33.7789762 26.7762968"></polygon>
                        <polygon id="路径" fill="url(#linearGradient-16)" points="67.2157629 21.3769613 33.7789762 34.7693478 33.7789762 26.7762968 67.2157629 13.3839103"></polygon>
                        <polygon id="路径" fill="url(#linearGradient-17)" points="33.7789762 26.7762968 0.342189414 13.3839103 0.342189414 21.3769613 33.7789762 34.7693478 67.2157629 21.3769613 67.2157629 13.3839103"></polygon>
                        <path d="M47.0510341,25.6828678 C46.9791368,26.5754107 46.2982957,27.3907656 45.2178769,27.8782021 C44.215751,28.2765832 43.3969408,27.9544878 43.3969408,27.1492494 C43.4660707,26.2582772 44.1421135,25.4432349 45.2178769,24.9539151 C46.2322239,24.5470578 47.0510341,24.8776294 47.0510341,25.6828678 Z" id="路径" fill="#5CFFF3"></path>
                        <path d="M52.8804739,23.3434383 C52.8132893,24.2348094 52.1367763,25.0504185 51.0595378,25.5387725 C50.0574118,25.9456298 49.2386016,25.6150583 49.2386016,24.8098198 C49.3077315,23.9188476 49.9837743,23.1038054 51.0595378,22.6144856 C52.0738847,22.2076283 52.8804739,22.5805808 52.8804739,23.3434383 Z" id="路径" fill="#5CFFF3"></path>
                        <path d="M46.2200028,24.7928674 C46.2759745,24.9163092 46.3048139,25.0448951 46.3055502,25.1742962 C46.2375714,26.0676489 45.5557747,26.8841482 44.472393,27.3696304 C44.1786187,27.5001348 43.8292903,27.5569671 43.4824881,27.5306781 C43.702467,28.0392497 44.3990667,28.2087736 45.2178769,27.8782021 C46.2982957,27.3907656 46.9791368,26.5754107 47.0510341,25.6828678 C47.0510341,25.1742962 46.7088447,24.8522008 46.2200028,24.7928674 Z" id="路径" fill="#42E8E0"></path>
                        <path d="M52.0494426,22.4534379 C52.1112758,22.5788244 52.1402485,22.7108752 52.13499,22.8433428 C52.0698745,23.7328762 51.3923824,24.5465121 50.3140538,25.0302009 C50.022772,25.1647432 49.6713075,25.221923 49.324149,25.1912486 C49.5441278,25.6998202 50.2407276,25.8693441 51.0595378,25.5387725 C52.1367763,25.0504185 52.8132893,24.2348094 52.8804739,23.3434383 C52.8804739,22.8348666 52.5505056,22.5127713 52.0494426,22.4534379 Z" id="路径" fill="#42E8E0"></path>
                        <path d="M20.6780129,25.6828678 C20.7509894,26.5730477 21.4261067,27.3869742 22.4989491,27.8782021 C23.513296,28.2765832 24.3321062,27.9544878 24.3321062,27.1492494 C24.2641274,26.2558966 23.5823308,25.4393973 22.4989491,24.9539151 C21.4968231,24.5470578 20.6780129,24.8776294 20.6780129,25.6828678 Z" id="路径" fill="#5CFFF3"></path>
                        <path d="M14.8485731,23.3434383 C14.9215496,24.2336182 15.5966669,25.0475447 16.6695093,25.5387725 C17.6838562,25.9456298 18.5026664,25.6150583 18.5026664,24.8098198 C18.4346876,23.9164671 17.752891,23.0999678 16.6695093,22.6144856 C15.6551623,22.2076283 14.8485731,22.5805808 14.8485731,23.3434383 Z" id="路径" fill="#5CFFF3"></path>
                        <path d="M21.5090442,24.7928674 C21.4530725,24.9163092 21.4242331,25.0448951 21.4234969,25.1742962 C21.4926267,26.0652683 22.1686695,26.8803106 23.244433,27.3696304 C23.5419815,27.5013999 23.8957758,27.5582567 24.2465589,27.5306781 C24.014359,28.0392497 23.3299803,28.2087736 22.4989491,27.8782021 C21.4261067,27.3869742 20.7509894,26.5730477 20.6780129,25.6828678 C20.6780129,25.1742962 20.959097,24.8522008 21.5090442,24.7928674 Z" id="路径" fill="#42E8E0"></path>
                        <path d="M15.6673833,22.4534379 C15.6114548,22.5797935 15.5826305,22.7111682 15.581836,22.8433428 C15.6508863,23.7320678 16.3274197,24.5445523 17.4027721,25.0302009 C17.6978211,25.1660432 18.0537771,25.2232475 18.4048981,25.1912486 C18.1726981,25.6998202 17.4883195,25.8693441 16.6572882,25.5387725 C15.5890959,25.0456841 14.9187614,24.2320633 14.8485731,23.3434383 C14.8485731,22.8348666 15.1663204,22.5127713 15.6673833,22.4534379 Z" id="路径" fill="#42E8E0"></path>
                        <polygon id="路径" fill="#42E8E0" points="7.41817609 38.1937301 6.15940816 38.5921113 8.59139667 39.5753498"></polygon>
                        <polygon id="路径" fill="#42E8E0" points="60.1397763 38.1937301 61.3985442 38.5921113 58.9665557 39.5753498"></polygon>
                        <path d="M58.7221347,21.0040087 C58.6530048,21.8949809 57.976962,22.7100232 56.9011986,23.199343 C55.8990727,23.6062003 55.0802625,23.2756287 55.0802625,22.4703903 C55.1532389,21.5802104 55.8283562,20.7662839 56.9011986,20.275056 C57.9033245,19.8766749 58.7221347,20.1987703 58.7221347,21.0040087 Z" id="路径" fill="#5CFFF3"></path>
                        <path d="M57.8911035,20.1140084 C57.947032,20.2403639 57.9758564,20.3717386 57.9766508,20.5039133 C57.9076005,21.3926382 57.2310671,22.2051228 56.1557147,22.6907713 C55.8644328,22.8253137 55.5129683,22.8824935 55.1658098,22.851819 C55.3857887,23.3603907 56.0701674,23.5299145 56.9011986,23.199343 C57.976962,22.7100232 58.6530048,21.8949809 58.7221347,21.0040087 C58.7221347,20.4954371 58.3921664,20.1733417 57.8911035,20.1140084 Z" id="路径" fill="#42E8E0"></path>
                        <path d="M8.99469125,21.0040087 C9.06267006,21.8973614 9.74446673,22.7138608 10.8278484,23.199343 C11.8299743,23.6062003 12.6487845,23.2756287 12.6487845,22.4703903 C12.5758081,21.5802104 11.9006908,20.7662839 10.8278484,20.275056 C9.81350145,19.8766749 8.99469125,20.1987703 8.99469125,21.0040087 Z" id="路径" fill="#5CFFF3"></path>
                        <path d="M9.8257225,20.1140084 C9.76979396,20.2403639 9.74096962,20.3717386 9.74017517,20.5039133 C9.81001702,21.3946243 10.4918376,22.2079996 11.5733323,22.6907713 C11.8641658,22.8260298 12.2160212,22.8832732 12.5632372,22.851819 C12.3310373,23.3603907 11.6466586,23.5299145 10.8278484,23.199343 C9.74446673,22.7138608 9.06267006,21.8973614 8.99469125,21.0040087 C8.99469125,20.4954371 9.32465954,20.1733417 9.8257225,20.1140084 Z" id="路径" fill="#42E8E0"></path>
                    </g>
                </g>
            </g>
        </g>
    </g>
</svg>