<?xml version="1.0" encoding="UTF-8"?>
<svg width="227px" height="269px" viewBox="0 0 227 269" version="1.1" xmlns="http://www.w3.org/2000/svg" xmlns:xlink="http://www.w3.org/1999/xlink">
    <title>画板备份 9</title>
    <defs>
        <linearGradient x1="2.01028518%" y1="59.6110769%" x2="92.5666199%" y2="41.488%" id="linearGradient-1">
            <stop stop-color="#0084E9" offset="11%"></stop>
            <stop stop-color="#7DE7E8" offset="100%"></stop>
        </linearGradient>
        <linearGradient x1="50%" y1="0%" x2="50%" y2="100%" id="linearGradient-2">
            <stop stop-color="#83B1D3" offset="0%"></stop>
            <stop stop-color="#745EE0" offset="100%"></stop>
        </linearGradient>
        <linearGradient x1="50%" y1="0%" x2="50%" y2="99.1012893%" id="linearGradient-3">
            <stop stop-color="#6B9DC2" offset="0%"></stop>
            <stop stop-color="#6A58C5" offset="100%"></stop>
        </linearGradient>
        <linearGradient x1="2.01028518%" y1="56.8766008%" x2="92.5666199%" y2="43.9097744%" id="linearGradient-4">
            <stop stop-color="#0084E9" offset="11%"></stop>
            <stop stop-color="#7DE7E8" offset="100%"></stop>
        </linearGradient>
        <linearGradient x1="31.5270101%" y1="63.1882591%" x2="95.3154175%" y2="24.4232725%" id="linearGradient-5">
            <stop stop-color="#0084E9" offset="0%"></stop>
            <stop stop-color="#7DE7E8" offset="100%"></stop>
        </linearGradient>
        <linearGradient x1="2.01028518%" y1="53.954523%" x2="92.5666199%" y2="46.4976974%" id="linearGradient-6">
            <stop stop-color="#0084E9" offset="11%"></stop>
            <stop stop-color="#7DE7E8" offset="100%"></stop>
        </linearGradient>
        <linearGradient x1="50%" y1="0%" x2="50%" y2="99.1012893%" id="linearGradient-7">
            <stop stop-color="#6B9DC2" offset="0%"></stop>
            <stop stop-color="#6A58C5" offset="100%"></stop>
        </linearGradient>
        <linearGradient x1="38.0326674%" y1="63.1882591%" x2="97.3269098%" y2="8.38199798%" id="linearGradient-8">
            <stop stop-color="#0084E9" offset="0%"></stop>
            <stop stop-color="#7DE7E8" offset="100%"></stop>
        </linearGradient>
        <linearGradient x1="-64.1552471%" y1="36.107561%" x2="133.211612%" y2="60.1185755%" id="linearGradient-9">
            <stop stop-color="#69D7E8" offset="0%"></stop>
            <stop stop-color="#93DCFF" offset="100%"></stop>
        </linearGradient>
        <linearGradient x1="50%" y1="0%" x2="50%" y2="100%" id="linearGradient-10">
            <stop stop-color="#F1F1F1" stop-opacity="0" offset="0%"></stop>
            <stop stop-color="#7DE7E8" offset="100%"></stop>
        </linearGradient>
        <linearGradient x1="-2.38902969%" y1="52.7382386%" x2="98.6106672%" y2="47.4581291%" id="linearGradient-11">
            <stop stop-color="#FFFFFF" stop-opacity="0" offset="3%"></stop>
            <stop stop-color="#4CFFD5" offset="100%"></stop>
        </linearGradient>
        <linearGradient x1="51.5769355%" y1="50.8284925%" x2="92.5666199%" y2="44.7797494%" id="linearGradient-12">
            <stop stop-color="#0F6EB7" offset="0%"></stop>
            <stop stop-color="#62C9CA" offset="100%"></stop>
        </linearGradient>
        <linearGradient x1="5.91827131%" y1="52.2526012%" x2="102.612394%" y2="48.4921846%" id="linearGradient-13">
            <stop stop-color="#0084E9" offset="0%"></stop>
            <stop stop-color="#171C56" offset="75%"></stop>
            <stop stop-color="#1B2062" offset="100%"></stop>
        </linearGradient>
        <linearGradient x1="21.8043253%" y1="39.5645909%" x2="77.5246213%" y2="60.1918441%" id="linearGradient-14">
            <stop stop-color="#FFFFFF" stop-opacity="0" offset="3%"></stop>
            <stop stop-color="#4CFFD5" offset="100%"></stop>
        </linearGradient>
        <linearGradient x1="86.258122%" y1="62.790398%" x2="12.1240167%" y2="36.6282643%" id="linearGradient-15">
            <stop stop-color="#64D5F7" offset="0%"></stop>
            <stop stop-color="#3A55CA" offset="36%"></stop>
            <stop stop-color="#0F123B" offset="100%"></stop>
        </linearGradient>
        <linearGradient x1="26.6081557%" y1="66.102919%" x2="77.9186174%" y2="39.221248%" id="linearGradient-16">
            <stop stop-color="#0084E9" offset="0%"></stop>
            <stop stop-color="#171C56" offset="75%"></stop>
            <stop stop-color="#111542" offset="89.8434825%"></stop>
            <stop stop-color="#1B2062" offset="100%"></stop>
        </linearGradient>
        <linearGradient x1="53.2179564%" y1="51.146544%" x2="92.5666199%" y2="45.1019193%" id="linearGradient-17">
            <stop stop-color="#0F6EB7" offset="0%"></stop>
            <stop stop-color="#62C9CA" offset="100%"></stop>
        </linearGradient>
        <linearGradient x1="102.155666%" y1="42.6872787%" x2="-16.1627648%" y2="56.6573039%" id="linearGradient-18">
            <stop stop-color="#4CFFD5" offset="0%"></stop>
            <stop stop-color="#FFFFFF" stop-opacity="0" offset="97%"></stop>
        </linearGradient>
        <linearGradient x1="-17.0134402%" y1="47.2995811%" x2="92.5666199%" y2="45.0988224%" id="linearGradient-19">
            <stop stop-color="#0F6EB7" offset="0%"></stop>
            <stop stop-color="#62C9CA" offset="100%"></stop>
        </linearGradient>
        <linearGradient x1="89.9652778%" y1="34.1072217%" x2="-16.7534722%" y2="72.3258558%" id="linearGradient-20">
            <stop stop-color="#4CFFD5" offset="0%"></stop>
            <stop stop-color="#FFFFFF" stop-opacity="0" offset="97%"></stop>
        </linearGradient>
        <linearGradient x1="11.971482%" y1="54.4017532%" x2="92.5666199%" y2="45.0813871%" id="linearGradient-21">
            <stop stop-color="#0F6EB7" offset="0%"></stop>
            <stop stop-color="#62C9CA" offset="100%"></stop>
        </linearGradient>
        <linearGradient x1="115.18339%" y1="37.58406%" x2="1.4543032%" y2="62.3131897%" id="linearGradient-22">
            <stop stop-color="#4CFFD5" offset="0%"></stop>
            <stop stop-color="#FFFFFF" stop-opacity="0" offset="97%"></stop>
        </linearGradient>
        <linearGradient x1="92.271401%" y1="-8.40357599%" x2="27.219922%" y2="80.3448276%" id="linearGradient-23">
            <stop stop-color="#FFFFFF" offset="0%"></stop>
            <stop stop-color="#FFFFFF" stop-opacity="0" offset="97%"></stop>
        </linearGradient>
        <linearGradient x1="27.1444944%" y1="0.530588483%" x2="83.2672133%" y2="97.7291529%" id="linearGradient-24">
            <stop stop-color="#4CFFD5" offset="0%"></stop>
            <stop stop-color="#B9FFEE" offset="61%"></stop>
            <stop stop-color="#FFFFFF" offset="100%"></stop>
        </linearGradient>
        <linearGradient x1="77.0807444%" y1="-17.7530017%" x2="15.2645226%" y2="128.752144%" id="linearGradient-25">
            <stop stop-color="#FFFFFF" offset="0%"></stop>
            <stop stop-color="#FFFFFF" stop-opacity="0" offset="97%"></stop>
        </linearGradient>
        <linearGradient x1="465%" y1="451.10043%" x2="-347.5%" y2="-334.387912%" id="linearGradient-26">
            <stop stop-color="#FFFFFF" offset="0%"></stop>
            <stop stop-color="#3074E1" offset="100%"></stop>
        </linearGradient>
        <linearGradient x1="-305.645161%" y1="-522.01316%" x2="501.612903%" y2="777.751286%" id="linearGradient-27">
            <stop stop-color="#FFFFFF" offset="0%"></stop>
            <stop stop-color="#3074E1" offset="100%"></stop>
        </linearGradient>
        <linearGradient x1="-335%" y1="-717.778061%" x2="667%" y2="1280.73975%" id="linearGradient-28">
            <stop stop-color="#FFFFFF" offset="0%"></stop>
            <stop stop-color="#3074E1" offset="100%"></stop>
        </linearGradient>
        <linearGradient x1="-294.5%" y1="-638.954842%" x2="707.5%" y2="1360.56073%" id="linearGradient-29">
            <stop stop-color="#FFFFFF" offset="0%"></stop>
            <stop stop-color="#3074E1" offset="100%"></stop>
        </linearGradient>
    </defs>
    <g id="页面-1" stroke="none" stroke-width="1" fill="none" fill-rule="evenodd">
        <g id="画板备份" transform="translate(-1354.000000, -1262.000000)">
            <g id="编组-21" transform="translate(1354.000000, 1262.000000)">
                <path d="M174.900595,199.369128 C175.82554,192.800399 169.700687,186.100848 156.550678,181.055587 C155.800754,180.777058 155.050546,180.498714 154.2757,180.236514 C147.649577,177.985269 140.571177,176.358442 133.250638,175.404279 C111.200377,172.390186 85.7004087,174.224658 68.150259,180.94091 C55.0002492,185.98617 49.00029,192.735081 50.1500981,199.352799 L50,199.369128 L50,213.931522 C50.0923245,217.33511 51.8445074,220.629774 54.999966,223.333977 L54.999966,246.840301 C54.999966,252.507938 60.6498851,258.175761 71.9749285,262.500297 C73.6970918,263.165724 75.4747631,263.767318 77.3000127,264.302109 C84.5075536,266.416966 92.160008,267.808685 99.9999434,268.430134 C118.59993,270.08461 138.875069,268.135275 153.300063,262.598645 C164.450086,258.339613 170.000034,252.737479 170.000034,247.135345 L170.000034,223.612506 C173.171352,220.932797 174.926367,217.649824 175,214.25904 L175,199.368943 L174.900595,199.368943 L174.900595,199.369128 Z" id="Shape备份-97" fill="url(#linearGradient-1)" fill-rule="nonzero"></path>
                <path d="M155,179.806413 L93.5131008,220 C86.2303591,219.148422 79.1618913,217.657515 72.5045436,215.568436 C72.3248393,215.530785 72.1545629,215.475785 72,215.405466 L133.78974,175 C141.175047,175.949028 148.315511,177.567099 155,179.806413 Z" id="Shape备份-98" fill="url(#linearGradient-2)" fill-rule="nonzero"></path>
                <path d="M101,237.561308 L101,268 C93.0561419,267.388682 85.3025301,266.019832 78,263.939269 L78.202585,263.66528 L78.202585,234.322361 L78.40517,234 C84.0654989,235.411746 89.9393168,236.448559 95.9339397,237.09383 C97.6056965,237.28732 99.3027048,237.432437 101,237.561308 Z" id="Shape备份-99" fill="url(#linearGradient-3)" fill-rule="nonzero"></path>
                <path d="M171,224 L171,247.321925 C171,252.876438 165.450059,258.430766 154.30005,262.65327 C139.875075,268.142654 119.599963,270.075355 101,268.434997 L101,237.756116 C120.925072,239.347719 142.449962,237.236375 157.850007,231.389704 C162.970328,229.54145 167.447211,227.025536 171,224 Z" id="Shape备份-100" fill="url(#linearGradient-4)" fill-rule="nonzero"></path>
                <path d="M73,215.835705 L73,232 C71.5690137,231.557897 70.188979,231.099283 68.8598958,230.591505 C63.497533,228.696197 58.8140419,226.102021 55.1110789,222.976135 C51.8854974,220.2725 50.0943762,216.978344 50,213.575657 L50,199.016326 L50.1534337,199 C51.1244084,204.617467 57.3856611,210.120096 68.8601853,214.427396 C70.0358348,214.869498 71.23696,215.29546 72.4890369,215.672073 C72.645655,215.742572 72.8179061,215.797858 73,215.835705 Z" id="Shape备份-101" fill="url(#linearGradient-5)" fill-rule="nonzero"></path>
                <path d="M175,199 L175,214.030746 C174.926367,217.453372 173.171353,220.767355 170.000035,223.472563 C166.447243,226.552964 161.970356,229.114502 156.850029,230.996084 C141.449968,236.948779 119.925057,239.09841 99.9999646,237.477945 C98.3250968,237.3457 96.6499458,237.196784 95,236.998417 L95,220.760612 L95.0249219,220.694489 C116.300047,223.141764 140.150063,221.124378 156.850029,214.675672 C162.706686,212.570997 167.680596,209.536863 171.325146,205.845814 L171.325146,205.82933 C173.320035,203.77317 174.545458,201.432103 174.900029,199 L175,199 L175,199 Z" id="Shape备份-102" fill="url(#linearGradient-6)" fill-rule="nonzero"></path>
                <path d="M96,220.708801 L95.9745524,220.774871 L95.9745524,237 C89.9333509,236.338357 84.0138931,235.275237 78.3095831,233.827671 C76.4715726,233.364989 74.7101941,232.869365 73,232.30767 L73,216 C79.7384078,218.118567 86.8926524,219.630519 94.2643583,220.494118 C94.8510989,220.576659 95.4384178,220.64273 96,220.708801 Z" id="Shape备份-103" fill="url(#linearGradient-7)" fill-rule="nonzero"></path>
                <path d="M78,233.54091 L77.797415,233.868868 L77.797415,263.721254 L77.59483,264 C75.7457395,263.464793 73.9442823,262.862731 72.1993537,262.196786 C60.7246051,257.868886 55,252.19684 55,246.524608 L55,223 C58.6703471,226.128976 63.3125858,228.725715 68.6277166,230.622897 C69.9448062,231.131177 71.3126856,231.590059 72.7313546,232.032784 C74.4286498,232.59009 76.1764478,233.081842 78,233.54091 Z" id="Shape备份-104" fill="url(#linearGradient-8)" fill-rule="nonzero"></path>
                <line x1="71.8830043" y1="215.906913" x2="71.8581514" y2="215.923296" id="Shape备份-105" fill="#C03A2B" fill-rule="nonzero"></line>
                <ellipse id="椭圆形备份-35" stroke="#FFFFFF" stroke-width="1.68608563" fill="url(#linearGradient-9)" opacity="0.299999982" cx="112.5" cy="192" rx="62.5" ry="24"></ellipse>
                <path d="M0,0 L227,0 L174.966714,189.807227 C162.290263,201.935742 140.578911,208 109.832659,208 C79.8132281,208 53.4676293,199.773469 50.6832293,189.807227 C38.7867417,147.225961 21.8923319,83.9568855 0,0 Z" id="路径-2备份-11" fill="url(#linearGradient-10)" opacity="0.299999982"></path>
                <g id="编组-2" transform="translate(118.917262, 159.854660) rotate(3.000000) translate(-118.917262, -159.854660) translate(84.417262, 122.354660)" fill-rule="nonzero">
                    <path d="M4.46299416,57.8066854 L29.8515045,72.4481815 C30.4947986,72.8191718 31.2873696,72.8191718 31.9306638,72.4481815 L67.1692331,52.1246612 C67.8131754,51.7538447 68.2099631,51.0678637 68.2099631,50.3254093 C68.2099631,49.5829548 67.8131754,48.8969738 67.1692331,48.5261573 L41.7807228,33.8846612 C41.1374286,33.5136709 40.3448576,33.5136709 39.7015635,33.8846612 L4.46299416,54.2048372 C3.81921222,54.5765713 3.42271295,55.2629868 3.42271295,56.0057613 C3.42271295,56.7485358 3.81921222,57.4349513 4.46299416,57.8066854 Z" id="路径" fill="url(#linearGradient-11)" style="mix-blend-mode: screen;"></path>
                    <path d="M30.8927582,72.0267957 C30.6496279,72.0267957 30.4106907,71.9635415 30.1997051,71.842857 L4.81789091,57.2013608 C4.39061426,56.9544845 4.12748803,56.4988178 4.12748803,56.0057613 C4.12748803,55.5127048 4.39061426,55.0570381 4.81789091,54.8101617 L40.0497641,34.4866414 C40.4779578,34.2412833 41.0043285,34.2412833 41.4325222,34.4866414 L66.8210325,49.1281375 C67.2481528,49.3759273 67.5109951,49.8320298 67.5109951,50.3254093 C67.5109951,50.8187887 67.2481528,51.2748912 66.8210325,51.522681 L31.5824632,71.842857 C31.3726419,71.9634129 31.1348146,72.0267957 30.8927582,72.0267957 Z" id="路径" fill="url(#linearGradient-12)"></path>
                    <path d="M67.1692331,52.1246612 L31.9373599,72.4481815 C31.2940658,72.8191718 30.5014948,72.8191718 29.8582006,72.4481815 L4.46969032,57.8066854 C3.82246154,57.4374563 3.4245445,56.7485908 3.42840834,56.0040891 L3.42840834,57.9070154 C3.42504861,58.6505104 3.82299268,59.3381446 4.46969032,59.7062673 L29.8515045,74.3511078 C30.4947986,74.7220981 31.2873696,74.7220981 31.9306638,74.3511078 L67.1692331,54.0309318 C67.7859359,53.6774901 68.1768961,53.0316745 68.2037906,52.3219769 L68.2037906,52.3219769 L68.2037906,50.4023289 C68.1834023,51.1174202 67.7913086,51.7701781 67.1692331,52.1246612 Z" id="形状" fill="url(#linearGradient-13)"></path>
                    <path d="M1.34258053,52.4055853 L1.34258053,23.122593 C1.34199587,22.3798449 1.73918397,21.693517 2.38383486,21.323341 L37.6291004,0.999820692 C38.2736025,0.628133654 39.0676867,0.62823948 39.7120895,1.00009829 C40.3564923,1.3719571 40.7532589,2.05904319 40.7528617,2.80241695 L40.7528617,32.0854093 C40.7520632,32.8277865 40.3552465,33.5134727 39.7116077,33.8846612 L4.46299416,54.2048372 C3.81949446,54.5767437 3.02616411,54.5771412 2.38229125,54.2058796 C1.7384184,53.834618 1.34199777,53.1482018 1.34258053,52.4055853 L1.34258053,52.4055853 Z" id="路径" fill="url(#linearGradient-14)" style="mix-blend-mode: screen;"></path>
                    <path d="M3.42508855,53.7902658 C2.66087107,53.7882958 2.04233044,53.1689494 2.04233044,52.4055853 L2.04233044,23.122593 C2.0436417,22.6296315 2.30601601,22.1741711 2.73203545,21.9253212 L37.9639086,1.60514522 C38.1672036,1.48606505 38.3978832,1.42154708 38.6335251,1.4178625 C39.3982867,1.41970103 40.0177907,2.03851148 40.0196329,2.80241695 L40.0196329,32.0820649 C40.0203735,32.575575 39.7574525,33.0319844 39.3299263,33.2793366 L4.11479357,53.6162343 C3.90406634,53.7334361 3.66625734,53.7933984 3.42508855,53.7902658 Z" id="路径" fill="url(#linearGradient-15)"></path>
                    <path d="M1.34258118,52.4055853 L1.34258118,23.122593 C1.34199587,22.3798449 1.73918397,21.693517 2.38383486,21.323341 L37.6291004,0.999820692 C38.1708025,0.685681984 38.82594,0.634018503 39.4102803,0.859358646 L39.4102803,0.859358646 L38.5766077,0.417906501 C37.9118672,-0.0844571782 37.0099981,-0.138535126 36.2898673,0.280788789 L1.04125374,20.6009648 C0.397614984,20.9721532 0.000798240195,21.6578394 0,22.4002167 L0,51.683209 C0,52.3458517 0.318802136,52.9681175 0.857109201,53.3553762 L0.857109201,53.3553762 L0.880545779,53.3553762 C1.01832093,53.4548013 1.16789042,53.536804 1.32584076,53.5995127 L2.25660773,54.1011628 C1.68859665,53.7229752 1.34600299,53.0874421 1.34258118,52.4055853 Z" id="路径" fill="url(#linearGradient-16)"></path>
                    <path d="M54.0347051,46.382439 L23.7747346,63.833176 C22.5962095,64.5020429 20.5337906,64.4284676 19.171121,63.642549 L10.0609883,58.3885996 C8.69831864,57.602681 8.55100301,56.4120979 9.72618,55.733198 L39.9861505,38.282461 C41.1646756,37.6135941 43.2270945,37.6871694 44.5897641,38.473088 L53.6998968,43.7270374 C55.0659145,44.512956 55.2132301,45.7001947 54.0347051,46.382439 Z" id="路径" fill="url(#linearGradient-17)"></path>
                    <path d="M9.72952808,56.1512398 L39.9894986,38.7005028 C41.1680237,38.0316359 43.2304425,38.1052112 44.5931122,38.8911298 L53.6998968,44.1450792 C54.3494248,44.5196447 54.7043216,44.9845072 54.8047641,45.442681 C54.925295,44.8607668 54.5469617,44.2153102 53.6998968,43.7270374 L44.5931122,38.473088 C43.2304425,37.6871694 41.1680237,37.6002167 39.9894986,38.282461 L9.72952808,55.733198 C9.11348088,56.0876975 8.86237469,56.5860033 8.956121,57.0709318 C9.07045893,56.6680315 9.35196593,56.3332793 9.72952808,56.1512398 Z" id="路径" fill="url(#linearGradient-18)" style="mix-blend-mode: screen;"></path>
                    <path d="M34.1504425,46.2586986 L32.546711,45.3323179 L30.9329352,46.2586986 L32.5366667,47.1850792 L34.1504425,46.2586986 Z M30.9965487,48.0780165 L29.3928172,47.1516359 L27.7890856,48.0780165 L29.3928172,49.0043972 L30.9965487,48.0780165 Z M37.2942921,44.442725 L35.6872124,43.5163443 L34.0834809,44.442725 L35.6872124,45.3691056 L37.2942921,44.442725 Z M46.4546461,45.412582 L49.8027287,43.482901 L48.1989971,42.5598647 L44.8509145,44.4862013 L46.4546461,45.412582 Z M47.100826,41.9110638 L45.4970945,40.9846832 L43.8900148,41.9110638 L45.4970945,42.8374445 L47.100826,41.9110638 Z M40.4615782,42.613374 L38.8544986,41.6869934 L37.250767,42.613374 L38.8544986,43.5397547 L40.4615782,42.613374 Z M27.8426549,49.8906458 L26.2456195,48.9742981 L24.641888,49.9006788 L26.2456195,50.8270594 L27.8426549,49.8906458 Z M44.3252655,44.8039131 L16.6734514,60.7496997 L18.2771829,61.6760803 L45.9323452,45.7269494 L44.3252655,44.8039131 Z M24.6988054,51.7199967 L23.0950738,50.7936161 L21.4913422,51.7199967 L23.0950738,52.6463773 L24.6988054,51.7199967 Z M43.0596903,42.4060253 L13.9615045,59.1878955 L15.5685841,60.1109318 L44.6600738,43.332406 L43.0596903,42.4060253 Z M50.9276844,44.1216689 L19.375354,62.3115039 L20.9790856,63.2345402 L52.5213717,45.0447052 L50.9276844,44.1216689 Z M18.3910178,55.3586326 L16.7872862,54.4322519 L15.1802065,55.3586326 L16.7872862,56.2816689 L18.3910178,55.3586326 Z M21.5449116,53.5393146 L19.9311357,52.612934 L18.3240561,53.5393146 L19.9311357,54.4623509 L21.5449116,53.5393146 Z" id="形状" fill="#1B2062"></path>
                    <path d="M34.1504425,45.9844632 L32.546711,45.0580825 L30.9329352,45.9844632 L32.5366667,46.9074995 L34.1504425,45.9844632 Z M30.9965487,47.8037811 L29.3928172,46.8774005 L27.7890856,47.8037811 L29.3928172,48.7268174 L30.9965487,47.8037811 Z M37.2942921,44.1651452 L35.6872124,43.2387646 L34.0834809,44.1651452 L35.6872124,45.0881815 L37.2942921,44.1651452 Z M46.4546461,45.1316579 L49.8027287,43.2053212 L48.1989971,42.2789406 L44.8509145,44.2086216 L46.4546461,45.1316579 Z M47.0874337,41.6435171 L45.4837021,40.7171364 L43.8766225,41.6435171 L45.4837021,42.5665534 L47.0874337,41.6435171 Z M40.4481859,42.3458273 L38.8411063,41.4194467 L37.2373747,42.3458273 L38.8411063,43.2688636 L40.4481859,42.3458273 Z M27.8292626,49.6197547 L26.2456195,48.6967184 L24.641888,49.6197547 L26.2456195,50.5461353 L27.8292626,49.6197547 Z M44.3252655,44.522989 L16.6634071,60.4721199 L18.2671387,61.3951562 L45.9223009,45.4493696 L44.3252655,44.522989 Z M24.6988054,51.4390726 L23.0950738,50.5160363 L21.4913422,51.4390726 L23.0950738,52.3654533 L24.6988054,51.4390726 Z M43.0596903,42.1284456 L13.9615045,58.9069714 L15.5685841,59.833352 L44.6600738,43.0514819 L43.0596903,42.1284456 Z M50.9276844,43.8440891 L19.3853983,62.0339241 L20.9891299,62.9603047 L52.531416,44.7704698 L50.9276844,43.8440891 Z M18.3910178,55.0777085 L16.7872862,54.1546722 L15.1802065,55.0777085 L16.7872862,56.0040891 L18.3910178,55.0777085 Z M21.5449116,53.2583905 L19.94118,52.3353542 L18.3341004,53.2583905 L19.94118,54.1847712 L21.5449116,53.2583905 Z" id="形状" fill="url(#linearGradient-19)"></path>
                    <path d="M35.7006048,43.3792266 L37.1838054,44.2353762 L37.3076844,44.1651452 L35.7006048,43.2387646 L34.0968732,44.1651452 L34.2174042,44.2353762 L35.7006048,43.3792266 Z M38.8544986,41.5599087 L40.3410473,42.4160583 L40.4615782,42.3458273 L38.8544986,41.4194467 L37.250767,42.3458273 L37.371298,42.4160583 L38.8544986,41.5599087 Z M32.546711,45.1985446 L34.0299116,46.0513498 L34.1504425,45.9844632 L32.546711,45.0580825 L30.9329352,45.9844632 L31.0534661,46.0513498 L32.546711,45.1985446 Z M44.9948821,44.2755083 L48.2157375,42.4194027 L49.6989381,43.2755523 L49.8194691,43.2053212 L48.2157375,42.2789406 L44.8676549,44.2086216 L44.9948821,44.2755083 Z M29.4028614,47.0178625 L30.886062,47.8706678 L31.006593,47.8037811 L29.4028614,46.8774005 L27.7991299,47.8037811 L27.9196608,47.8706678 L29.4028614,47.0178625 Z M45.5071387,40.8575985 L46.9903393,41.7104038 L47.1108703,41.6435171 L45.5071387,40.7171364 L43.9000591,41.6435171 L44.02059,41.7104038 L45.5071387,40.8575985 Z M50.9276844,43.8440891 L19.3853983,62.0339241 L19.5059293,62.1041551 L50.9276844,43.9812068 L52.410885,44.8373564 L52.531416,44.7704698 L50.9276844,43.8440891 Z M44.5428909,43.1217129 L44.66677,43.0514819 L43.0596903,42.1284456 L13.9615045,58.9069714 L14.0820355,58.9772024 L43.0596903,42.2555303 L44.5428909,43.1217129 Z M16.7772419,54.2851012 L18.2604425,55.1412508 L18.3809735,55.0710198 L16.7772419,54.1479835 L15.1701623,55.0710198 L15.2906933,55.1412508 L16.7772419,54.2851012 Z M45.7984219,45.512912 L45.9223009,45.442681 L44.3152213,44.5163003 L16.6634071,60.4721199 L16.7839381,60.5423509 L44.3252655,44.6634511 L45.7984219,45.512912 Z M19.9311357,52.4657833 L21.4143363,53.3219329 L21.5348673,53.2517019 L19.9311357,52.3286656 L18.3240561,53.2517019 L18.4479352,53.3219329 L19.9311357,52.4657833 Z M26.2456195,48.8338361 L27.7288201,49.6899857 L27.8493511,49.6197547 L26.2456195,48.6967184 L24.641888,49.6197547 L24.7624189,49.6899857 L26.2456195,48.8338361 Z M23.0917257,50.653154 L24.5715782,51.5093036 L24.6921092,51.4390726 L23.0883776,50.5160363 L21.4846461,51.4390726 L21.605177,51.5093036 L23.0917257,50.653154 Z" id="形状" fill="url(#linearGradient-20)"></path>
                    <path d="M51.557124,56.6261353 L42.1289234,62.0640231 C41.392131,62.3959202 40.5415594,62.3599509 39.8354868,61.9670374 L37.7663717,60.77311 C37.0967552,60.3851672 37.0164012,59.7898757 37.5989676,59.4353762 L47.0305163,53.9974885 C47.7659502,53.6662232 48.6147376,53.70093 49.3206048,54.0911298 L51.3930679,55.2884016 C52.0693806,55.6964104 52.1430384,56.2917019 51.557124,56.6261353 Z" id="路径" fill="url(#linearGradient-21)"></path>
                    <path d="M37.5989676,59.733022 L47.0305163,54.2851012 C47.7661632,53.9532556 48.6157178,53.9892344 49.3206048,54.3820869 L51.3930679,55.5760143 C51.6466497,55.6999048 51.839698,55.9204566 51.9287611,56.1880275 C52.0124632,55.8870374 51.8316667,55.5492596 51.3930679,55.2984346 L49.3206048,54.1011628 C48.6147376,53.710963 47.7659502,53.6762562 47.0305163,54.0075215 L37.5989676,59.4454093 C37.3233236,59.5645004 37.1694519,59.8607213 37.2306785,60.1544082 C37.2940591,59.9715368 37.4261213,59.820435 37.5989676,59.733022 Z" id="路径" fill="url(#linearGradient-22)" style="mix-blend-mode: screen;"></path>
                    <path d="M20.4500886,11.7083795 L6.99749268,51.9440671 L9.22396761,50.6564984 L22.6799116,10.4274995 L20.4500886,11.7083795 Z M7.36912985,19.253198 L2.04233044,35.1822629 L2.04233044,52.4055853 C2.04233044,53.1689494 2.66087107,53.7882958 3.42508855,53.7901397 L3.46526554,53.7901397 L16.8408555,13.7985886 L7.36912985,19.253198 Z M38.6569617,1.4178625 C38.4213197,1.42154708 38.1906402,1.48606505 37.9873452,1.60514522 L26.0079057,8.51454016 L12.5519617,48.7468834 L25.3650738,41.3559043 L38.7038349,1.42120683 L38.6569617,1.4178625 Z M28.411829,39.5900957 L32.8681269,37.0183025 L40.0430679,15.5643972 L40.0430679,4.80567328 L28.411829,39.5900957 Z" id="形状" fill="url(#linearGradient-23)"></path>
                    <path d="M38.857847,0.969721683 C38.622205,0.973406267 38.3915254,1.03792424 38.1882304,1.15700441 L2.91952838,21.4805248 C2.58857198,21.6723241 2.3530459,21.9936877 2.27000035,22.3667734 C2.37298068,22.2341044 2.49883162,22.1208521 2.64163752,22.0323399 L37.8768588,1.71550826 C38.3046742,1.46556499 38.8338441,1.4640898 39.2630496,1.71164391 C39.692255,1.95919803 39.9555134,2.41772434 39.95267,2.91277999 L39.95267,32.192428 C39.9496242,32.2971757 39.9361657,32.4013619 39.912493,32.5034511 C40.1208186,32.2619669 40.239109,31.9559377 40.2473012,31.6372684 L40.2473012,2.35427614 C40.2454553,1.58906717 39.6239158,0.969721683 38.857847,0.969721683 L38.857847,0.969721683 Z" id="路径" fill="url(#linearGradient-24)" style="mix-blend-mode: overlay;"></path>
                    <path d="M4.20854018,51.6062934 C3.94042141,51.6062934 3.7230682,51.3891795 3.7230682,51.1213608 L3.7230682,22.8282915 C3.72423536,22.6554167 3.81561744,22.4956771 3.96413015,22.4069054 L38.0107821,2.77231794 C38.0834487,2.72830188 38.166861,2.70542886 38.251844,2.70542886 C38.5192032,2.70725425 38.7354909,2.92329989 38.737316,3.19035975 L38.737316,31.4867734 C38.7356399,31.6586306 38.6442379,31.8171369 38.496254,31.9048152 L4.44625404,51.5394027 C4.37484082,51.5834728 4.29248217,51.6062934 4.20854018,51.6062934 Z M38.251844,2.88936965 C38.1996246,2.88936965 38.1485686,2.9048156 38.1045284,2.93284599 L4.05452838,22.5674335 C3.96302347,22.6225636 3.90718465,22.7215501 3.90718465,22.8282915 L3.90718465,51.1213608 C3.90573923,51.22877 3.96231929,51.3286392 4.05526001,51.3826785 C4.14820074,51.4367177 4.26308112,51.4365421 4.35585581,51.3822189 L38.4025077,31.7442871 C38.4952686,31.6915898 38.552736,31.5933667 38.5531714,31.4867734 L38.5531714,3.19035975 C38.5496234,3.02561783 38.4167706,2.89291371 38.251844,2.88936965 Z" id="形状" fill="#FFFFFF" style="mix-blend-mode: overlay;"></path>
                    <path d="M23.2256493,28.6307118 L34.8133632,21.9420429 L34.8133632,21.082549 L23.2256493,27.7712178 L23.2256493,28.6307118 Z M23.2256493,27.162549 L34.8133632,20.4738801 L34.8133632,19.6177305 L23.2256493,26.3063994 L23.2256493,27.162549 Z M23.2256493,25.6977305 L34.8133632,19.0090616 L34.8133632,18.1495677 L23.2256493,24.8382365 L23.2256493,25.6977305 Z M23.2256493,30.0955303 L29.1484074,26.6776205 L29.1484074,25.8147822 L23.2256493,29.2293476 L23.2256493,30.0955303 Z M22.4522422,23.8048372 L22.4522422,21.5407228 L23.376313,21.0056293 C23.4608781,20.9542877 23.5557844,20.922307 23.6542039,20.9119879 C23.7307783,20.9068939 23.8072676,20.9231007 23.8751773,20.9588086 C23.9371594,20.9993769 23.9869255,21.0560236 24.0191449,21.122681 C24.0549093,21.1990834 24.0732078,21.282477 24.0727239,21.3668174 C24.0711315,21.4734681 24.0542184,21.5793387 24.022493,21.6811848 C23.9501516,21.9095333 23.8290669,22.1194827 23.6675962,22.2965424 C23.5889187,22.3856788 23.4961813,22.4613672 23.3930535,22.5206128 L22.8774487,22.8182585 L22.8774487,23.5607008 L22.4522422,23.8048372 Z M22.8774487,22.3901837 L23.3662688,22.1059153 C23.4474956,22.058669 23.5145537,21.9905311 23.5604576,21.9085996 C23.6141237,21.8211013 23.6419761,21.7202495 23.6408116,21.6176425 C23.6408116,21.5072794 23.6106788,21.4403927 23.5504133,21.4203267 C23.4808282,21.3992199 23.4053765,21.4115752 23.3461803,21.4537701 L22.8774487,21.7246612 L22.8774487,22.3901837 Z M24.3907821,22.6878295 L24.3907821,20.4203707 L25.3583779,19.8652112 C25.4414982,19.8108371 25.5371598,19.7786018 25.6362688,19.7715699 C25.7118567,19.7652292 25.7876217,19.7815296 25.8538942,19.8183905 C25.9188617,19.8554174 25.9695455,19.9131087 25.9978617,19.9822629 C26.0324734,20.0589297 26.0496259,20.1423119 26.048083,20.2263994 C26.0455219,20.3835685 26.0101724,20.5384765 25.9442924,20.6812288 C25.8752999,20.8394889 25.7789691,20.9843894 25.6597054,21.1093036 L26.1686139,21.6611188 L25.6831419,21.9420429 L25.2278027,21.4638031 L24.8126405,21.7045952 L24.8126405,22.4436931 L24.3907821,22.6878295 Z M24.8159886,21.2698317 L25.3449856,20.9654973 C25.4283535,20.9154489 25.496611,20.843801 25.5425225,20.7581485 C25.5908465,20.6710147 25.6172718,20.5734653 25.6195284,20.4738801 C25.621155,20.4324767 25.613132,20.3912618 25.5960918,20.3534841 C25.582237,20.3252129 25.5600338,20.3018673 25.5324782,20.2865974 C25.5018172,20.2780356 25.4693929,20.2780356 25.4387319,20.2865974 C25.3999893,20.2939789 25.3626852,20.3075288 25.3282452,20.3267294 L24.8159886,20.6210308 L24.8159886,21.2698317 Z M27.3839679,20.9755303 C27.2569902,21.0572409 27.1124067,21.1076739 26.9621095,21.122681 C26.8459136,21.1345624 26.7288968,21.1100164 26.6273012,21.05245 C26.5320925,20.9948601 26.4580967,20.9080418 26.416372,20.8049692 C26.3643642,20.6835684 26.339238,20.552374 26.3427142,20.4203707 C26.3436959,20.260145 26.3696764,20.1010513 26.4197201,19.9488196 C26.4720605,19.7772906 26.5439577,19.6123365 26.6339974,19.4572024 C26.7296851,19.2986578 26.8419137,19.1506818 26.9688057,19.0157503 C27.0896749,18.8841653 27.229619,18.7714335 27.3839679,18.6813168 C27.5120297,18.6024256 27.6561989,18.5532801 27.8058263,18.5375105 C28.0395745,18.5150853 28.2592706,18.6522416 28.3415195,18.8719439 C28.3915496,18.9927697 28.4166042,19.122453 28.4151773,19.253198 C28.4125589,19.4143766 28.3866219,19.5743301 28.3381714,19.7280935 C28.2318798,20.0728511 28.0513212,20.3901871 27.8091744,20.6578185 C27.6836476,20.789832 27.5392272,20.9025341 27.3806198,20.9922519 L27.3839679,20.9755303 Z M26.781313,20.1795787 C26.7798046,20.2616249 26.7934237,20.3432481 26.82149,20.4203707 C26.8462252,20.4829569 26.8879708,20.5373972 26.942021,20.5775545 C26.9978535,20.6159467 27.0653425,20.6336871 27.1328617,20.6277195 C27.2234708,20.6197136 27.3107844,20.5898765 27.387316,20.5407668 C27.4843908,20.4853576 27.5715228,20.4141476 27.6451183,20.3300737 C27.7177523,20.2460041 27.7806485,20.1540092 27.832611,20.0558383 C27.8836794,19.9629434 27.9230396,19.8640913 27.9497939,19.7615369 C27.9755955,19.668948 27.9891035,19.5733735 27.9899803,19.4772684 C27.9904085,19.3950139 27.9756533,19.3133843 27.9464458,19.2364764 C27.9009579,19.1062154 27.7726372,19.0235205 27.6350741,19.0358163 C27.5459574,19.0435877 27.4599293,19.0722317 27.3839679,19.1194247 C27.2926499,19.1733555 27.2102099,19.2410385 27.1395579,19.3200847 C27.0647254,19.4031744 27.0006123,19.495304 26.9487172,19.5943201 C26.8970953,19.6869535 26.8577065,19.7858775 26.8315343,19.8886216 C26.8005668,19.9827359 26.7825455,20.080617 26.777965,20.1795787 L26.781313,20.1795787 Z M28.7734222,20.1595127 L28.7734222,17.8953983 L30.2365343,17.0492816 L30.2365343,17.4807008 L29.1986287,18.0793366 L29.1986287,18.6043972 L30.0657821,18.1060913 L30.0657821,18.5074115 L29.1986287,19.0057173 L29.1986287,19.9153762 L28.7734222,20.1595127 Z M30.5646464,19.1261133 L30.5646464,16.8619989 L30.9898529,16.6178625 L30.9898529,18.8819769 L30.5646464,19.1261133 Z M31.4652806,18.6043972 L31.4652806,16.3402827 L31.8904871,16.0961463 L31.8904871,17.9321859 L32.8949119,17.3502717 L32.8949119,17.7816909 L31.4652806,18.6043972 Z M34.686136,16.3101837 L34.686136,16.7416029 L33.1661065,17.6211628 L33.1661065,15.3570484 L34.6526552,14.4975545 L34.6526552,14.9289736 L33.591313,15.5409868 L33.591313,16.022571 L34.5053396,15.4941661 L34.5053396,15.8954863 L33.587965,16.4238911 L33.587965,16.9456073 L34.686136,16.3101837 Z" id="形状" fill="url(#linearGradient-25)"></path>
                    <path d="M54.6641446,52.8269714 L55.3337611,52.492538 C55.098605,52.5783453 54.8739611,52.6905415 54.6641446,52.8269714 L54.6641446,52.8269714 Z" id="路径" fill="url(#linearGradient-26)"></path>
                    <path d="M43.3007523,61.2747602 C43.1675177,61.1967606 43.0287617,61.1285781 42.88559,61.0707558 C43.0287617,61.1285781 43.1675177,61.1967606 43.3007523,61.2747602 L43.3007523,61.2747602 Z" id="路径" fill="url(#linearGradient-27)"></path>
                    <path d="M42.6713127,61.0005248 C42.601003,60.9771144 42.5340414,60.9503597 42.4637316,60.9302937 C42.5340414,60.9503597 42.601003,60.9737701 42.6713127,61.0005248 Z" id="路径" fill="url(#linearGradient-28)"></path>
                    <path d="M42.1624042,60.8767844 C42.1222272,60.8767844 42.0820502,60.8567184 42.0385251,60.853374 C42.0820502,60.8567184 42.1222272,60.8700957 42.1624042,60.8767844 Z" id="路径" fill="url(#linearGradient-29)"></path>
                </g>
            </g>
        </g>
    </g>
</svg>