<?xml version="1.0" encoding="UTF-8"?>
<svg width="227px" height="269px" viewBox="0 0 227 269" version="1.1" xmlns="http://www.w3.org/2000/svg" xmlns:xlink="http://www.w3.org/1999/xlink">
    <title>画板备份 6</title>
    <defs>
        <linearGradient x1="2.01028518%" y1="59.6110769%" x2="92.5666199%" y2="41.488%" id="linearGradient-1">
            <stop stop-color="#0084E9" offset="11%"></stop>
            <stop stop-color="#7DE7E8" offset="100%"></stop>
        </linearGradient>
        <linearGradient x1="50%" y1="0%" x2="50%" y2="100%" id="linearGradient-2">
            <stop stop-color="#83B1D3" offset="0%"></stop>
            <stop stop-color="#745EE0" offset="100%"></stop>
        </linearGradient>
        <linearGradient x1="50%" y1="0%" x2="50%" y2="99.1012893%" id="linearGradient-3">
            <stop stop-color="#6B9DC2" offset="0%"></stop>
            <stop stop-color="#6A58C5" offset="100%"></stop>
        </linearGradient>
        <linearGradient x1="2.01028518%" y1="56.8766008%" x2="92.5666199%" y2="43.9097744%" id="linearGradient-4">
            <stop stop-color="#0084E9" offset="11%"></stop>
            <stop stop-color="#7DE7E8" offset="100%"></stop>
        </linearGradient>
        <linearGradient x1="31.5270101%" y1="63.1882591%" x2="95.3154175%" y2="24.4232725%" id="linearGradient-5">
            <stop stop-color="#0084E9" offset="0%"></stop>
            <stop stop-color="#7DE7E8" offset="100%"></stop>
        </linearGradient>
        <linearGradient x1="2.01028518%" y1="53.954523%" x2="92.5666199%" y2="46.4976974%" id="linearGradient-6">
            <stop stop-color="#0084E9" offset="11%"></stop>
            <stop stop-color="#7DE7E8" offset="100%"></stop>
        </linearGradient>
        <linearGradient x1="50%" y1="0%" x2="50%" y2="99.1012893%" id="linearGradient-7">
            <stop stop-color="#6B9DC2" offset="0%"></stop>
            <stop stop-color="#6A58C5" offset="100%"></stop>
        </linearGradient>
        <linearGradient x1="38.0326674%" y1="63.1882591%" x2="97.3269098%" y2="8.38199798%" id="linearGradient-8">
            <stop stop-color="#0084E9" offset="0%"></stop>
            <stop stop-color="#7DE7E8" offset="100%"></stop>
        </linearGradient>
        <linearGradient x1="-64.1552471%" y1="36.107561%" x2="133.211612%" y2="60.1185755%" id="linearGradient-9">
            <stop stop-color="#69D7E8" offset="0%"></stop>
            <stop stop-color="#93DCFF" offset="100%"></stop>
        </linearGradient>
        <linearGradient x1="50%" y1="0%" x2="50%" y2="100%" id="linearGradient-10">
            <stop stop-color="#F1F1F1" stop-opacity="0" offset="0%"></stop>
            <stop stop-color="#7DE7E8" offset="100%"></stop>
        </linearGradient>
        <linearGradient x1="-74.3200443%" y1="49.1072135%" x2="99.2528601%" y2="50.0411616%" id="linearGradient-11">
            <stop stop-color="#0F123B" offset="0%"></stop>
            <stop stop-color="#1B2062" offset="24%"></stop>
            <stop stop-color="#1D2469" offset="30%"></stop>
            <stop stop-color="#232E7D" offset="38%"></stop>
            <stop stop-color="#2D3E9D" offset="48%"></stop>
            <stop stop-color="#3852C3" offset="58%"></stop>
            <stop stop-color="#64D5F7" offset="100%"></stop>
        </linearGradient>
        <linearGradient x1="-78.2533218%" y1="50.2276095%" x2="99.2065344%" y2="50.2276095%" id="linearGradient-12">
            <stop stop-color="#0F123B" offset="0%"></stop>
            <stop stop-color="#1B2062" offset="24%"></stop>
            <stop stop-color="#1D2469" offset="30%"></stop>
            <stop stop-color="#232E7D" offset="38%"></stop>
            <stop stop-color="#2D3E9D" offset="48%"></stop>
            <stop stop-color="#3852C3" offset="58%"></stop>
            <stop stop-color="#64D5F7" offset="100%"></stop>
        </linearGradient>
        <linearGradient x1="-76.2254108%" y1="49.1769222%" x2="99.2061639%" y2="49.9999513%" id="linearGradient-13">
            <stop stop-color="#0F123B" offset="0%"></stop>
            <stop stop-color="#1B2062" offset="24%"></stop>
            <stop stop-color="#1D2469" offset="30%"></stop>
            <stop stop-color="#232E7D" offset="38%"></stop>
            <stop stop-color="#2D3E9D" offset="48%"></stop>
            <stop stop-color="#3852C3" offset="58%"></stop>
            <stop stop-color="#64D5F7" offset="100%"></stop>
        </linearGradient>
        <linearGradient x1="20.872583%" y1="58.1841427%" x2="98.8596926%" y2="45.1339663%" id="linearGradient-14">
            <stop stop-color="#2B329A" offset="0%"></stop>
            <stop stop-color="#979BCE" offset="52%"></stop>
            <stop stop-color="#FFFFFF" offset="100%"></stop>
        </linearGradient>
        <linearGradient x1="2.92513634%" y1="49.9889899%" x2="97.9176996%" y2="49.9889899%" id="linearGradient-15">
            <stop stop-color="#2B329A" offset="0%"></stop>
            <stop stop-color="#979BCE" offset="52%"></stop>
            <stop stop-color="#FFFFFF" offset="100%"></stop>
        </linearGradient>
        <linearGradient x1="2.92513634%" y1="49.9997276%" x2="97.9176996%" y2="49.9997276%" id="linearGradient-16">
            <stop stop-color="#2B329A" offset="0%"></stop>
            <stop stop-color="#979BCE" offset="52%"></stop>
            <stop stop-color="#FFFFFF" offset="100%"></stop>
        </linearGradient>
        <linearGradient x1="2.01028518%" y1="55.5469879%" x2="92.5666199%" y2="45.0873392%" id="linearGradient-17">
            <stop stop-color="#0084E9" offset="11%"></stop>
            <stop stop-color="#7DE7E8" offset="100%"></stop>
        </linearGradient>
        <linearGradient x1="2.49543893%" y1="55.1265636%" x2="91.4756613%" y2="48.2667224%" id="linearGradient-18">
            <stop stop-color="#4CFFD5" offset="0%"></stop>
            <stop stop-color="#B9FFEE" offset="61%"></stop>
            <stop stop-color="#FFFFFF" offset="100%"></stop>
        </linearGradient>
        <linearGradient x1="50%" y1="48.1933206%" x2="-123.703261%" y2="76.0292196%" id="linearGradient-19">
            <stop stop-color="#3074E1" offset="0%"></stop>
            <stop stop-color="#2B329A" offset="100%"></stop>
        </linearGradient>
        <linearGradient x1="60.2088571%" y1="41.8089175%" x2="-9.17927104%" y2="93.6911905%" id="linearGradient-20">
            <stop stop-color="#4CFFD5" offset="0%"></stop>
            <stop stop-color="#99FFE7" stop-opacity="0.57" offset="44%"></stop>
            <stop stop-color="#FFFFFF" stop-opacity="0" offset="100%"></stop>
        </linearGradient>
        <linearGradient x1="34.7975932%" y1="67.4712801%" x2="63.191396%" y2="36.9213217%" id="linearGradient-21">
            <stop stop-color="#FFFFFF" stop-opacity="0" offset="3%"></stop>
            <stop stop-color="#FFFFFF" offset="77%"></stop>
        </linearGradient>
    </defs>
    <g id="页面-1" stroke="none" stroke-width="1" fill="none" fill-rule="evenodd">
        <g id="画板备份" transform="translate(-247.000000, -1262.000000)">
            <g id="编组-14" transform="translate(247.000000, 1262.000000)">
                <path d="M174.900595,199.369128 C175.82554,192.800399 169.700687,186.100848 156.550678,181.055587 C155.800754,180.777058 155.050546,180.498714 154.2757,180.236514 C147.649577,177.985269 140.571177,176.358442 133.250638,175.404279 C111.200377,172.390186 85.7004087,174.224658 68.150259,180.94091 C55.0002492,185.98617 49.00029,192.735081 50.1500981,199.352799 L50,199.369128 L50,213.931522 C50.0923245,217.33511 51.8445074,220.629774 54.999966,223.333977 L54.999966,246.840301 C54.999966,252.507938 60.6498851,258.175761 71.9749285,262.500297 C73.6970918,263.165724 75.4747631,263.767318 77.3000127,264.302109 C84.5075536,266.416966 92.160008,267.808685 99.9999434,268.430134 C118.59993,270.08461 138.875069,268.135275 153.300063,262.598645 C164.450086,258.339613 170.000034,252.737479 170.000034,247.135345 L170.000034,223.612506 C173.171352,220.932797 174.926367,217.649824 175,214.25904 L175,199.368943 L174.900595,199.368943 L174.900595,199.369128 Z" id="Shape备份-70" fill="url(#linearGradient-1)" fill-rule="nonzero"></path>
                <path d="M155,179.806413 L94.2539068,220 C87.058909,219.148422 80.0756034,217.657515 73.4984648,215.568436 C73.3209255,215.530785 73.1527007,215.475785 73,215.405466 L134.045285,175 C141.341613,175.949028 148.396047,177.567099 155,179.806413 Z" id="Shape备份-72" fill="url(#linearGradient-2)" fill-rule="nonzero"></path>
                <path d="M100,237.561308 L100,268 C92.0561419,267.388682 84.3025301,266.019832 77,263.939269 L77.202585,263.66528 L77.202585,234.322361 L77.40517,234 C83.0654989,235.411746 88.9393168,236.448559 94.9339397,237.09383 C96.6056965,237.28732 98.3027048,237.432437 100,237.561308 Z" id="Shape备份-74" fill="url(#linearGradient-3)" fill-rule="nonzero"></path>
                <path d="M170,224 L170,247.321925 C170,252.876438 164.450059,258.430766 153.30005,262.65327 C138.875075,268.142654 118.599963,270.075355 100,268.434997 L100,237.756116 C119.925072,239.347719 141.449962,237.236375 156.850007,231.389704 C161.970328,229.54145 166.447211,227.025536 170,224 Z" id="Shape备份-76" fill="url(#linearGradient-4)" fill-rule="nonzero"></path>
                <path d="M73,215.835705 L73,232 C71.5690137,231.557897 70.188979,231.099283 68.8598958,230.591505 C63.497533,228.696197 58.8140419,226.102021 55.1110789,222.976135 C51.8854974,220.2725 50.0943762,216.978344 50,213.575657 L50,199.016326 L50.1534337,199 C51.1244084,204.617467 57.3856611,210.120096 68.8601853,214.427396 C70.0358348,214.869498 71.23696,215.29546 72.4890369,215.672073 C72.645655,215.742572 72.8179061,215.797858 73,215.835705 Z" id="Shape备份-78" fill="url(#linearGradient-5)" fill-rule="nonzero"></path>
                <path d="M175,199 L175,214.030746 C174.926367,217.453372 173.171353,220.767355 170.000035,223.472563 C166.447243,226.552964 161.970356,229.114502 156.850029,230.996084 C141.449968,236.948779 119.925057,239.09841 99.9999646,237.477945 C98.3250968,237.3457 96.6499458,237.196784 95,236.998417 L95,220.760612 L95.0249219,220.694489 C116.300047,223.141764 140.150063,221.124378 156.850029,214.675672 C162.706686,212.570997 167.680596,209.536863 171.325146,205.845814 L171.325146,205.82933 C173.320035,203.77317 174.545458,201.432103 174.900029,199 L175,199 L175,199 Z" id="Shape备份-80" fill="url(#linearGradient-6)" fill-rule="nonzero"></path>
                <path d="M95,220.708801 L94.9745524,220.774871 L94.9745524,237 C88.9333509,236.338357 83.0138931,235.275237 77.3095831,233.827671 C75.4715726,233.364989 73.7101941,232.869365 72,232.30767 L72,216 C78.7384078,218.118567 85.8926524,219.630519 93.2643583,220.494118 C93.8510989,220.576659 94.4384178,220.64273 95,220.708801 Z" id="Shape备份-82" fill="url(#linearGradient-7)" fill-rule="nonzero"></path>
                <path d="M78,233.54091 L77.797415,233.868868 L77.797415,263.721254 L77.59483,264 C75.7457395,263.464793 73.9442823,262.862731 72.1993537,262.196786 C60.7246051,257.868886 55,252.19684 55,246.524608 L55,223 C58.6703471,226.128976 63.3125858,228.725715 68.6277166,230.622897 C69.9448062,231.131177 71.3126856,231.590059 72.7313546,232.032784 C74.4286498,232.59009 76.1764478,233.081842 78,233.54091 Z" id="Shape备份-84" fill="url(#linearGradient-8)" fill-rule="nonzero"></path>
                <line x1="71.8830043" y1="215.906913" x2="71.8581514" y2="215.923296" id="Shape备份-86" fill="#C03A2B" fill-rule="nonzero"></line>
                <ellipse id="椭圆形备份-28" stroke="#FFFFFF" stroke-width="1.68608563" fill="url(#linearGradient-9)" opacity="0.299999982" cx="112.5" cy="192" rx="62.5" ry="24"></ellipse>
                <path d="M0,0 L227,0 L174.966714,189.807227 C162.290263,201.935742 140.578911,208 109.832659,208 C79.8132281,208 53.4676293,199.773469 50.6832293,189.807227 C38.7867417,147.225961 21.8923319,83.9568855 0,0 Z" id="路径-2备份-8" fill="url(#linearGradient-10)" opacity="0.299999982"></path>
                <g id="编组-6备份-5" transform="translate(81.000000, 132.000000)" fill-rule="nonzero">
                    <path d="M62.6445488,42.7064531 C61.7311414,44.5531624 60.4707708,46.2067686 58.9322354,47.5770083 C57.5701856,48.8114844 56.0762434,49.8921026 54.4774594,50.7992963 C53.395433,51.4107057 52.2799898,51.960991 51.1363773,52.4475635 C38.869019,57.3854173 25.1669078,57.3854173 12.8995495,52.4475635 C11.7559369,51.960991 10.6404938,51.4107057 9.55846743,50.7992963 C7.95666727,49.8968038 6.46222032,48.8158205 5.10369137,47.5770083 C3.5576159,46.2101753 2.29178251,44.5560186 1.37652873,42.7064531 C0.631622993,41.1897822 0.23585641,39.525533 0.218286957,37.835898 L0.218286957,47.5176113 C0.2343429,49.2074314 0.630188168,50.8720115 1.37652873,52.3881664 C2.2952487,54.2398865 3.56047481,55.8982904 5.10369137,57.2735709 C6.46274809,58.5074896 7.95719982,59.5834949 9.55846743,60.4810096 C10.6402315,61.0973364 11.7556731,61.6525784 12.8995495,62.144126 C25.1683994,67.0742736 38.8675274,67.0742736 51.1363773,62.144126 C52.2802537,61.6525784 53.3956953,61.0973364 54.4774594,60.4810096 C56.0757199,59.5787849 57.5696656,58.5031439 58.9322354,57.2735709 C60.4712015,55.897945 61.7314898,54.2394056 62.6445488,52.3881664 C63.3955483,50.8730419 63.7964558,49.2085146 63.8176398,47.5176113 L63.8176398,37.776501 C63.8033315,39.487249 63.4022972,41.1726081 62.6445488,42.7064531 Z" id="路径" fill="url(#linearGradient-11)"></path>
                    <path d="M62.6445488,32.9653428 C61.7311414,34.8120521 60.4707708,36.4656583 58.9322354,37.835898 C57.5701856,39.0703741 56.0762434,40.1509922 54.4774594,41.058186 C53.395433,41.6695954 52.2799898,42.2198807 51.1363773,42.7064531 C38.8675274,47.6366007 25.1683994,47.6366007 12.8995495,42.7064531 C11.7559369,42.2198807 10.6404938,41.6695954 9.55846743,41.058186 C7.95666727,40.1556935 6.46222032,39.0747102 5.10369137,37.835898 C3.56090697,36.4660023 2.29559894,34.812532 1.37652873,32.9653428 C0.633518187,31.4479915 0.237855035,29.7841772 0.218286957,28.0947877 L0.218286957,37.835898 C0.23585641,39.525533 0.631622993,41.1897822 1.37652873,42.7064531 C2.3070403,44.5373089 3.58273417,46.1710039 5.13338988,47.5176113 C6.49191882,48.7564235 7.98636578,49.8374068 9.58816593,50.7398993 C10.6701923,51.3513087 11.7856355,51.901594 12.929248,52.3881664 C25.1966063,57.3260203 38.8987175,57.3260203 51.1660758,52.3881664 C52.3096883,51.901594 53.4251315,51.3513087 54.5071579,50.7398993 C56.1059419,49.8327055 57.5998841,48.7520874 58.9619339,47.5176113 C60.5004693,46.1473716 61.7608399,44.4937654 62.6742473,42.6470561 C63.4233407,41.1312402 63.8241425,39.467152 63.8473383,37.776501 L63.8473383,28.0353907 C63.8222603,29.7482508 63.4111268,31.4333908 62.6445488,32.9653428 Z" id="路径" fill="url(#linearGradient-12)"></path>
                    <path d="M63.713695,19.4970699 C63.5661931,20.7776826 63.1995155,22.0233822 62.6296995,23.1796848 C61.7224253,25.0388038 60.4614767,26.7032559 58.9173862,28.0799384 C57.5588572,29.3187506 56.0644103,30.3997339 54.4626101,31.3022264 C53.3953334,31.9170727 52.294801,32.4722962 51.1660758,32.9653428 C38.8972259,37.8954904 25.1980979,37.8954904 12.929248,32.9653428 C11.7853716,32.4737952 10.66993,31.9185532 9.58816593,31.3022264 C7.98879117,30.3959521 6.49475136,29.3152633 5.13338988,28.0799384 C3.58929933,26.7032559 2.32835075,25.0388038 1.42107649,23.1796848 C0.857936361,22.0207876 0.491599706,20.7762467 0.337080985,19.4970699 L0.247985464,19.4970699 L0.247985464,28.0947877 C0.267553542,29.7841772 0.663216694,31.4479915 1.40622724,32.9653428 C2.32529745,34.812532 3.59060548,36.4660023 5.13338988,37.835898 C6.49191882,39.0747102 7.98636578,40.1556935 9.58816593,41.058186 C10.6701923,41.6695954 11.7856355,42.2198807 12.929248,42.7064531 C25.1980979,47.6366007 38.8972259,47.6366007 51.1660758,42.7064531 C52.3096883,42.2198807 53.4251315,41.6695954 54.5071579,41.058186 C56.1059419,40.1509922 57.5998841,39.0703741 58.9619339,37.835898 C60.5004693,36.4656583 61.7608399,34.8120521 62.6742473,32.9653428 C63.4219245,31.449014 63.822648,29.7852505 63.8473383,28.0947877 L63.8473383,19.4970699 L63.713695,19.4970699 Z" id="路径" fill="url(#linearGradient-13)"></path>
                    <path d="M63.713695,19.4970699 C63.6200783,20.2607309 63.4458659,21.0123331 63.1939712,21.7393072 L63.1939712,27.471119 C63.1764017,29.1607541 62.7806351,30.8250033 62.0357294,32.3416742 C61.1166592,34.1888634 59.8513512,35.8423336 58.3085668,37.2122293 C56.9465169,38.4467055 55.4525748,39.5273236 53.8537907,40.4345174 C52.7717644,41.0459267 51.6563212,41.596212 50.5127087,42.0827845 C38.2488196,47.0120318 24.5546192,47.0120318 12.2907301,42.0827845 C11.1471175,41.596212 10.0316744,41.0459267 8.94964803,40.4345174 C7.35086394,39.5273236 5.85692183,38.4467055 4.49487197,37.2122293 C4.28698242,37.0340383 4.12364064,36.840998 3.93060034,36.662807 C4.30183168,37.0488876 4.68791227,37.4498174 5.11854062,37.835898 C6.47706957,39.0747102 7.97151652,40.1556935 9.57331668,41.058186 C10.655343,41.6695954 11.7707862,42.2198807 12.9143987,42.7064531 C25.1832486,47.6366007 38.8823767,47.6366007 51.1512266,42.7064531 C52.2948391,42.2198807 53.4102823,41.6695954 54.4923086,41.058186 C56.0910927,40.1509922 57.5850348,39.0703741 58.9470847,37.835898 C60.4856201,36.4656583 61.7459907,34.8120521 62.659398,32.9653428 C63.4070752,31.449014 63.8077988,29.7852505 63.8324891,28.0947877 L63.8324891,19.4970699 L63.713695,19.4970699 Z" id="路径" fill="url(#linearGradient-14)"></path>
                    <path d="M63.713695,29.2381802 C63.6200783,30.0018412 63.4458659,30.7534434 63.1939712,31.4804175 L63.1939712,37.2122293 C63.1779152,38.9020495 62.78207,40.5666296 62.0357294,42.0827845 C61.1170094,43.9345046 59.8517833,45.5929085 58.3085668,46.9681889 C56.9421744,48.193018 55.4487647,49.2682731 53.8537907,50.1756277 C52.7720266,50.7919545 51.6565851,51.3471965 50.5127087,51.8387441 C38.2488196,56.7679913 24.5546192,56.7679913 12.2907301,51.8387441 C11.1468537,51.3471965 10.0314121,50.7919545 8.94964803,50.1756277 C7.35467408,49.2682731 5.86126429,48.193018 4.49487197,46.9681889 L3.93060034,46.4039173 C4.30183168,46.8048471 4.68791227,47.1909277 5.11854062,47.5770083 C6.47706957,48.8158205 7.97151652,49.8968038 9.57331668,50.7992963 C10.655343,51.4107057 11.7707862,51.960991 12.9143987,52.4475635 C25.181757,57.3854173 38.8838683,57.3854173 51.1512266,52.4475635 C52.2948391,51.960991 53.4102823,51.4107057 54.4923086,50.7992963 C56.0910927,49.8921026 57.5850348,48.8114844 58.9470847,47.5770083 C60.4889317,46.2098399 61.7498299,44.5555414 62.659398,42.7064531 C63.4084915,41.1906372 63.8092932,39.526549 63.8324891,37.835898 L63.8324891,29.2381802 L63.713695,29.2381802 Z" id="路径" fill="url(#linearGradient-15)"></path>
                    <path d="M63.713695,38.9941398 C63.6184067,39.75266 63.4442221,40.4991655 63.1939712,41.2215278 L63.1939712,46.9681889 C63.1744031,48.6575784 62.7787399,50.3213927 62.0357294,51.8387441 C61.1166592,53.6859333 59.8513512,55.3394035 58.3085668,56.7092992 C56.9465169,57.9437753 55.4525748,59.0243935 53.8537907,59.9315872 C52.7717644,60.5429966 51.6563212,61.0932819 50.5127087,61.5798544 C38.2488196,66.5091017 24.5546192,66.5091017 12.2907301,61.5798544 C11.1471175,61.0932819 10.0316744,60.5429966 8.94964803,59.9315872 C7.35086394,59.0243935 5.85692183,57.9437753 4.49487197,56.7092992 C4.28698242,56.5311082 4.12364064,56.3380679 3.93060034,56.1450276 C4.30183168,56.5459574 4.68791227,56.9468873 5.11854062,57.3329679 C6.47759735,58.5668866 7.97204908,59.6428919 9.57331668,60.5404066 C10.6550808,61.1567334 11.7705223,61.7119754 12.9143987,62.203523 C25.1832486,67.1336706 38.8823767,67.1336706 51.1512266,62.203523 C52.295103,61.7119754 53.4105445,61.1567334 54.4923086,60.5404066 C56.0905691,59.6381819 57.5845149,58.5625409 58.9470847,57.3329679 C60.4860508,55.957342 61.746339,54.2988027 62.659398,52.4475635 C63.4103976,50.9324389 63.8113051,49.2679116 63.8324891,47.5770083 L63.8324891,38.9941398 L63.713695,38.9941398 Z" id="路径" fill="url(#linearGradient-16)"></path>
                    <ellipse id="椭圆形" fill="url(#linearGradient-17)" cx="32.0550865" cy="18.3388281" rx="31.7625533" ry="18.3388281"></ellipse>
                    <path d="M8.97934654,6.60791782 C21.3784732,-0.549422381 41.4843625,-0.549422381 53.8834892,6.60791782 C62.0951264,11.3448297 64.8422383,18.0269938 62.1842219,24.0854892 C65.8074398,17.7151595 63.2830667,10.4390252 54.5071579,5.37542978 C42.1080312,-1.78191042 22.0021419,-1.78191042 9.58816593,5.37542978 C5.99391791,7.24051961 3.09048548,10.2063914 1.30228246,13.8395043 C3.17557447,10.7915161 5.82494639,8.2958795 8.97934654,6.60791782 L8.97934654,6.60791782 Z" id="路径" fill="url(#linearGradient-18)" style="mix-blend-mode: screen;"></path>
                    <ellipse id="椭圆形" fill="url(#linearGradient-19)" cx="32.0550865" cy="18.3388281" rx="25.1397862" ry="14.52257"></ellipse>
                    <path d="M46.7112998,27.3820235 C46.3536526,27.8591985 45.8846229,28.2415596 45.3451684,28.4957175 C45.0031577,28.7135521 44.6072308,28.831816 44.2017759,28.8372504 C43.7679016,28.8119545 43.3481632,28.673748 42.9841371,28.4363205 L40.8903924,27.2186817 C39.3421811,28.1258757 37.7051832,28.8722273 36.004988,29.4460697 C34.8574467,29.8626783 33.5861195,29.7653 32.5154134,29.1787832 C31.7418429,28.8271945 31.247398,28.0535335 31.2532268,27.2038325 C33.4555605,26.8124607 35.6141189,26.205677 37.6978029,25.3922235 L31.5353626,21.8284027 C29.405845,22.5735876 27.1686255,22.9648502 24.9125956,22.9866445 C23.109904,22.9431246 21.3495415,22.4313913 19.8044524,21.5017191 C17.7255569,20.3137788 16.8346017,18.977346 17.087039,17.5369684 C17.5670245,15.8231671 18.7328533,14.3833417 20.309327,13.5573685 L17.3394763,11.8200058 C17.7059864,11.4166264 18.1315542,11.0711654 18.6016628,10.7954073 C18.9947095,10.5208444 19.4589206,10.3661074 19.9380956,10.3499297 C20.2758591,10.383963 20.6011467,10.4957806 20.8884479,10.6766133 L23.0712881,11.9387998 C24.4832844,11.1111797 25.975914,10.4295455 27.5260642,9.9044521 C28.520637,9.60257371 29.5958309,9.72622101 30.4959149,10.2459849 C31.2557384,10.6036746 31.7776509,11.3276177 31.8768955,12.1615386 C29.9462201,12.5565725 28.049576,13.1027266 26.2044806,13.7949565 L32.144182,17.2102848 C34.2486034,16.5387337 36.4191974,16.0956537 38.6184566,15.8887013 C40.7423526,15.7517544 42.8570998,16.2700748 44.676952,17.3736266 C46.6519027,18.5170192 47.4834609,19.794055 47.1716266,21.2344325 C46.5554343,23.0645442 45.2504573,24.5825787 43.5335595,25.4664698 L46.7112998,27.3820235 Z M23.7989016,14.8492535 C22.7149061,15.5026207 22.1357852,16.0965908 22.0615389,16.6460132 C21.9872926,17.1954356 22.3436747,17.7003102 23.1158359,18.1309386 C23.9231836,18.6224965 24.8594732,18.8604485 25.8035508,18.8140042 C27.0567662,18.7180165 28.2962223,18.4890407 29.5010149,18.1309386 L23.7989016,14.8492535 Z M34.193379,20.9968445 L39.9548894,24.3230773 C41.3061715,23.5063683 42.0634834,22.8381519 42.2119759,22.3481266 C42.3604685,21.8581012 42.0486341,21.3383773 41.2022267,20.8632012 C40.176579,20.2939184 38.9914371,20.0798619 37.8314461,20.2543818 C36.5749215,20.3944076 35.3328577,20.6428203 34.1191328,20.9968445 L34.193379,20.9968445 Z" id="形状" fill="#1B2062"></path>
                    <path d="M46.7112998,26.1495355 C46.3477618,26.6172586 45.8799439,26.9935469 45.3451684,27.2483802 C45.0010025,27.4634718 44.6072023,27.5862147 44.2017759,27.6047623 C43.7667965,27.5736703 43.3472901,27.4304242 42.9841371,27.1889832 L40.7715983,25.9861937 C39.2234563,26.8895662 37.5863411,27.6309953 35.8861939,28.1987325 C34.7407622,28.6198845 33.4695097,28.5279216 32.3966194,27.9462951 C31.6207048,27.5895195 31.1265304,26.8104681 31.1344328,25.9564952 C33.3383059,25.571875 35.4975288,24.9649045 37.5790088,24.1448862 L31.4165686,20.5959146 C29.284692,21.3301714 27.0484632,21.7162468 24.7938015,21.7393072 C22.9991368,21.7228264 21.239315,21.2419448 19.6856583,20.3434773 C17.6067628,19.1406878 16.7158076,17.8191042 16.9682449,16.3638774 C17.448638,14.6539649 18.6149384,13.2189316 20.190533,12.3991267 L17.2206822,10.661764 C17.5868991,10.2539405 18.0123901,9.90353617 18.4828688,9.62231629 C18.8730679,9.3439695 19.3400012,9.19351322 19.8193016,9.19168793 C20.1545291,9.22746263 20.4784,9.33373277 20.7696538,9.50352226 L22.9524941,10.7657088 C24.3639893,9.94107962 25.8568232,9.26432823 27.4072702,8.74621033 C28.3998131,8.43984961 29.4749039,8.55810959 30.3771209,9.07289391 C31.1369443,9.43058355 31.6588568,10.1545267 31.7581015,10.9884476 C29.8291351,11.3904051 27.9330168,11.9364077 26.0856866,12.6218655 L32.025388,16.0520431 C34.1275547,15.3690337 36.2988689,14.9208266 38.4996626,14.7156102 C40.624411,14.5688722 42.7420775,15.0879081 44.558158,16.2005356 C46.5331087,17.3439281 47.3646669,18.6209639 47.0528326,20.0613415 C46.4366403,21.8914531 45.1316633,23.4094877 43.4147655,24.2933788 L46.7112998,26.1495355 Z M23.8731478,13.6167655 C22.7891523,14.2552834 22.2100314,14.8641028 22.1357852,15.4135252 C22.0615389,15.9629475 22.417921,16.4678222 23.1900822,16.8984505 C24.0014607,17.3789963 24.9358485,17.6113027 25.8777971,17.5666669 C27.1319679,17.4780986 28.3722269,17.2489744 29.5752612,16.8836013 L23.8731478,13.6167655 Z M34.2676253,19.7495072 L40.0291357,23.0905892 C41.3804177,22.2738803 42.1377297,21.6056639 42.2862222,21.1007893 C42.4347147,20.5959146 42.1228804,20.1058893 41.276473,19.6158639 C40.2531563,19.0400772 39.0657748,18.8256162 37.9056924,19.0070445 C36.624144,19.1428045 35.3570549,19.3912534 34.1191328,19.7495072 L34.2676253,19.7495072 Z" id="形状" fill="#FFFFFF"></path>
                    <path d="M47.1419281,20.1058893 C47.4537624,18.6209639 46.6222042,17.3884759 44.6472535,16.2450834 C42.8311731,15.1324559 40.7135066,14.6134199 38.5887581,14.760158 C36.3879644,14.9653744 34.2166502,15.4135814 32.1144835,16.0965908 L26.1747821,12.6664133 C28.0221123,11.9809555 29.9182306,11.4349528 31.847197,11.0329954 C31.7479524,10.1990745 31.2260399,9.47513131 30.4662164,9.11744167 C29.5639994,8.60265735 28.4889086,8.48439737 27.4963657,8.79075809 C25.9459187,9.30887599 24.4530848,9.98562738 23.0415896,10.8102566 L20.8587494,9.54807002 C20.5653215,9.38039465 20.2429027,9.26956319 19.9083971,9.22138644 C19.4292221,9.23756413 18.965011,9.39230117 18.5719643,9.66686405 C18.1014856,9.94808393 17.6759946,10.2984883 17.3097778,10.7063118 L20.2796285,12.4436745 C18.7028094,13.2370989 17.5215317,14.6438933 17.0127927,16.3341789 C16.7455061,17.8191042 17.6513106,19.1109893 19.7302061,20.3137788 C21.2838628,21.2122463 23.0436846,21.6931279 24.8383493,21.7096087 C27.0930109,21.6865483 29.3292398,21.3004729 31.4611164,20.5662161 L37.6235566,24.1151877 C35.5420765,24.935206 33.3828536,25.5421764 31.1789806,25.9267967 C31.1710782,26.7807696 31.6652525,27.559821 32.4411671,27.9165966 C33.5140574,28.4982231 34.7853099,28.590186 35.9307417,28.1690339 C37.6144008,27.6079552 39.2364191,26.8765543 40.7715983,25.9861937 L42.8653431,27.1889832 C43.2284961,27.4304242 43.6480024,27.5736703 44.0829819,27.6047623 C44.4884083,27.5862147 44.8822085,27.4634718 45.2263744,27.2483802 C45.7611498,26.9935469 46.2289678,26.6172586 46.5925057,26.1495355 L43.4593132,24.3379265 C45.1930702,23.4631359 46.515083,21.9438873 47.1419281,20.1058893 L47.1419281,20.1058893 Z M25.8035508,17.5815162 C24.8616022,17.6261519 23.9272145,17.3938456 23.1158359,16.9132998 C22.3436747,16.4678222 21.9872926,15.9629475 22.0615389,15.4283744 C22.1357852,14.8938013 22.7149061,14.2701326 23.7989016,13.6316147 L29.5010149,16.9132998 C28.2974014,17.2736409 27.0571535,17.4977821 25.8035508,17.5815162 L25.8035508,17.5815162 Z M42.1377297,21.1007893 C41.9892371,21.6056639 41.2319252,22.2738803 39.8806431,23.0905892 L34.1191328,19.7495072 C35.3086547,19.3996284 36.525704,19.151251 37.7571999,19.0070445 C38.9172822,18.8256162 40.1046638,19.0400772 41.1279804,19.6158639 C41.9743879,20.1058893 42.2565237,20.5959146 42.1377297,21.1007893 L42.1377297,21.1007893 Z" id="形状" fill="url(#linearGradient-20)"></path>
                    <path d="M27.4815164,9.35502972 C28.4767203,9.06027038 29.5490526,9.1835886 30.4513671,9.69656255 C31.0036076,9.98471869 31.4429241,10.450185 31.6987044,11.0181461 L31.8323477,11.0181461 C31.7331031,10.1842252 31.2111906,9.46028205 30.4513671,9.10259241 C29.5491502,8.5878081 28.4740594,8.46954811 27.4815164,8.77590884 C25.9310695,9.29402674 24.4382356,9.97077812 23.0267404,10.7954073 L20.8439001,9.53322077 C20.5504722,9.3655454 20.2280534,9.25471394 19.8935479,9.20653719 C19.4143728,9.22271488 18.9501617,9.37745192 18.5571151,9.65201479 C18.0866364,9.93323468 17.6611454,10.283639 17.2949285,10.6914625 L17.6958584,10.9290506 C17.961719,10.6846147 18.2500868,10.465853 18.5571151,10.2756834 C18.9501617,10.0011206 19.4143728,9.84638353 19.8935479,9.83020584 C20.2296982,9.87141444 20.5534594,9.98270735 20.8439001,10.1568894 L23.0267404,11.419076 C24.43753,10.5812057 25.930199,9.88960246 27.4815164,9.35502972 Z M17.0127927,16.3341789 C16.9903491,16.5315329 16.9903491,16.730795 17.0127927,16.928149 C17.4965076,15.2281427 18.6557099,13.8006064 20.2202315,12.9782476 L19.7450553,12.710961 C18.4024545,13.5226232 17.4239926,14.8201488 17.0127927,16.3341789 Z M25.8035508,17.5518177 C24.8616022,17.5964534 23.9272145,17.3641471 23.1158359,16.8836013 C22.6662542,16.6683584 22.3082105,16.299784 22.1060867,15.8441535 C22.099407,15.8983959 22.099407,15.9532529 22.1060867,16.0074953 C22.0318404,16.5569177 22.3882225,17.0617923 23.1603837,17.4924207 C23.9717622,17.9729665 24.90615,18.2052728 25.8480985,18.1606371 C27.101314,18.0646494 28.34077,17.8356735 29.5455627,17.4775714 L28.7734015,17.0320938 C27.8034143,17.310276 26.8088608,17.4942684 25.8035508,17.5815162 L25.8035508,17.5518177 Z M26.1896314,13.2158356 L32.1293328,16.6460132 C34.2314995,15.9630038 36.4028137,15.5147967 38.6036073,15.3095804 C40.7275034,15.1726335 42.8422505,15.6909539 44.6621028,16.7945057 C45.8550146,17.3293179 46.7664536,18.3432264 47.1716266,19.5861654 C47.1716266,18.3388281 46.4291639,17.1954356 44.6621028,16.1856863 C42.8460223,15.0730588 40.7283558,14.5540229 38.6036073,14.700761 C36.4028137,14.9059773 34.2314995,15.3541844 32.1293328,16.0371938 L26.8578478,12.9930968 L26.1896314,13.2158356 Z M43.503861,24.9318967 L46.2658222,26.5207668 C46.4133005,26.4112369 46.5391749,26.2752926 46.6370535,26.119837 L43.9790371,24.6349116 C43.8156953,24.7240071 43.7414491,24.8428012 43.503861,24.9615952 L43.503861,24.9318967 Z M39.8806431,23.0608907 L34.8615954,20.09104 L34.1191328,20.2840803 L39.8806431,23.7588056 C41.2319252,22.9420967 41.9892371,22.2738803 42.1377297,21.7838549 C42.1966407,21.6054516 42.1966407,21.4128359 42.1377297,21.2344325 C41.5645605,22.043551 40.7852168,22.6844586 39.8806431,23.0905892 L39.8806431,23.0608907 Z M31.1789806,25.9267967 C31.1734922,26.1322911 31.1985132,26.3374633 31.2532268,26.5356161 C33.4300239,26.1451798 35.5635625,25.5434125 37.6235566,24.7388564 L36.9701894,24.367625 C35.0897153,25.0648091 33.1519522,25.5964518 31.1789806,25.9564952 L31.1789806,25.9267967 Z" id="形状" fill="url(#linearGradient-21)"></path>
                </g>
            </g>
        </g>
    </g>
</svg>