<svg xmlns="http://www.w3.org/2000/svg" viewBox="0 0 1355.83 281.3"><defs><style>.cls-1{fill:#306399;}.cls-2{fill:#fff;}</style></defs><title>资源 1</title><g id="图层_2" data-name="图层 2"><g id="图层_1-2" data-name="图层 1"><path class="cls-1" d="M819.78,62.43H922.27V16.61h43.4V62.43h98.87V91.37H968.08V98.6l71.14,117s7.23,9.65,18.08,10.85H1079v28.94h-38.58s-27.73-1.21-42.2-32.55l-55.46-91.64-57.87,96.46s-16.88,28.94-41,27.73H807.72V225.2h21.71s12.05,0,16.88-9.65l69.93-117V91.37H819.78Z"/><path class="cls-1" d="M1126.75,17.82S1105,78.1,1095.4,80.51h43.4s14.47-16.88,16.88-26.52h4.83l9.64,21.7h41L1201.5,56.4V51.58h24.11V29.88h-57.87l2.41-12.06Z"/><path class="cls-1" d="M1225.61,80.51s28.94-48.22,28.94-60.28h41v9.65h60.29V54H1329.3l9.65,21.7h-41l-12-26.52s-14.47,26.52-19.29,31.34Z"/><path class="cls-1" d="M1107.46,99.81,1105,225.2s-2.41,31.35-7.23,31.35h41s4.83-26.53,4.83-31.35V123.92h115.74s16.88,67.52,19.29,69.93c0,0-21.7,21.7-24.11,19.29v38.58s26.53-14.47,31.35-21.7c0,0,14.47,28.94,36.17,26.53h31.35V232.43h-19.29s-14.47,2.41-19.3-31.35c0,0,26.53-21.7,31.35-57.87h-31.35l-7.23,12.06S1298,136,1298,123.92h55.47V97.39h-9.65l-2.41-7.23H1307.6v9.65h-16.88l-2.41-9.65h-38.58l2.41,9.65Z"/><rect class="cls-1" x="1155.68" y="135.98" width="86.81" height="24.11"/><path class="cls-1" d="M1155.68,174.56v69.93h86.81V174.56Zm57.88,50.64h-28.94V191.44h28.94Z"/><rect class="cls-1" width="743.28" height="281.3"/><path class="cls-2" d="M140.57,140.59q0,30.12-12.13,51-13.08,22.24-34.62,22.25H59.51q-18.84,0-18.83-24.05V90.25q0-24,18.67-24H93.82q21.86,0,34.78,22.7Q140.57,109.57,140.57,140.59Zm-22.66-.9q0-19.09-6.38-31.24Q104.5,95,91.42,95H70.2c-3.41,0-5.48,1.2-6.23,3.59a22.94,22.94,0,0,0-.63,6.29v71q0,6.75,2.07,8.09a8.94,8.94,0,0,0,4.63.9H91.58q12.45,0,19.79-14.16Q117.91,157.89,117.91,139.69Z"/><path class="cls-2" d="M263.12,201.27A18.55,18.55,0,0,1,259,213.63q-4.16,4.94-9.41,4.94-6.87,0-10.22-9.88l-7.5-22.25h-53l-7.5,22.25q-3.19,9.88-10.38,9.88-5.1,0-9.09-4.94a19.09,19.09,0,0,1-4.15-12.36,24,24,0,0,1,1.44-8.09l44-121.59q3.51-9.66,12.12-9.66,8.78,0,12.29,9.66l44,121.59A24,24,0,0,1,263.12,201.27Zm-62.8-79L188.6,157h33.67l-11.81-34.74"/><path class="cls-2" d="M327.54,95l-44.63,0a7.76,7.76,0,0,1-7.19-4.28,20.24,20.24,0,0,1-2.55-10.56q0-13.93,10.05-13.93h68.94a11.94,11.94,0,0,1,9.73,4.49q3.67,4.28,3.67,11.69a26.34,26.34,0,0,1-4.62,14.83l-52.39,80.31h0v7.34h53.67q4.64,0,7,4.5a21.53,21.53,0,0,1,2.56,10.79q0,13.71-10.38,13.71h-81.7q-11,0-11-13.94A24.88,24.88,0,0,1,273,186.44l54.52-84.24"/><path class="cls-2" d="M481.25,203.52q0,14.83-11.81,14.83a9.13,9.13,0,0,1-8-4.27,18.19,18.19,0,0,1-3-10.79V150.7H405.77v51.69q0,7.2-3.19,11.69a10.06,10.06,0,0,1-8.46,4.27q-11.16,0-11.17-16.18V78.78a21.88,21.88,0,0,1,3.2-12.13,9.65,9.65,0,0,1,8.61-4.72q11,0,11,16.85v43.16h52.66V78.11q0-16.19,11.17-16.18,11.65,0,11.65,15.95Z"/><path class="cls-2" d="M595.18,199.92q0,13.94-11.17,13.94H514.76q-8.46,0-13.08-6.07-4.47-6.3-4.47-16.63V88.45q0-22.26,16.91-22.25h69.1a8.83,8.83,0,0,1,7.5,4q2.7,4.28,2.71,11a15.28,15.28,0,0,1-3,9.43q-3,4.05-7.18,4H527.53c-3,0-5,.67-6.07,2s-1.59,4-1.59,8.09v18.43h56.48c3,0,5.38,1.43,7.19,4.27a19,19,0,0,1,2.71,10.34q0,6.53-2.87,10.56a8.7,8.7,0,0,1-7.5,3.83H520v23.37q0,9.21,8.45,9.21h56.33c3,0,5.48,1.43,7.5,4.27A18.91,18.91,0,0,1,595.18,199.92Z"/><path class="cls-2" d="M630.61,135.31v67.08q0,16-12,16-10.7,0-10.69-16.18V78.11q0-16.19,10.69-16.18,7.33,0,11.65,7.86l40.83,73.59h9.24l0-65.27q0-16.19,10.69-16.18,11.82,0,11.81,16.18V201.94q0,16.63-10,16.63-6.71,0-11.33-8.31L640,135.31"/></g></g></svg>