<?xml version="1.0" encoding="UTF-8"?>
<svg width="227px" height="269px" viewBox="0 0 227 269" version="1.1" xmlns="http://www.w3.org/2000/svg" xmlns:xlink="http://www.w3.org/1999/xlink">
    <title>画板备份 5</title>
    <defs>
        <linearGradient x1="2.01028518%" y1="59.6110769%" x2="92.5666199%" y2="41.488%" id="linearGradient-1">
            <stop stop-color="#0084E9" offset="11%"></stop>
            <stop stop-color="#7DE7E8" offset="100%"></stop>
        </linearGradient>
        <linearGradient x1="50%" y1="0%" x2="50%" y2="100%" id="linearGradient-2">
            <stop stop-color="#83B1D3" offset="0%"></stop>
            <stop stop-color="#745EE0" offset="100%"></stop>
        </linearGradient>
        <linearGradient x1="50%" y1="0%" x2="50%" y2="99.1012893%" id="linearGradient-3">
            <stop stop-color="#6B9DC2" offset="0%"></stop>
            <stop stop-color="#6A58C5" offset="100%"></stop>
        </linearGradient>
        <linearGradient x1="2.01028518%" y1="56.8766008%" x2="92.5666199%" y2="43.9097744%" id="linearGradient-4">
            <stop stop-color="#0084E9" offset="11%"></stop>
            <stop stop-color="#7DE7E8" offset="100%"></stop>
        </linearGradient>
        <linearGradient x1="31.5270101%" y1="63.1882591%" x2="95.3154175%" y2="24.4232725%" id="linearGradient-5">
            <stop stop-color="#0084E9" offset="0%"></stop>
            <stop stop-color="#7DE7E8" offset="100%"></stop>
        </linearGradient>
        <linearGradient x1="2.01028518%" y1="53.954523%" x2="92.5666199%" y2="46.4976974%" id="linearGradient-6">
            <stop stop-color="#0084E9" offset="11%"></stop>
            <stop stop-color="#7DE7E8" offset="100%"></stop>
        </linearGradient>
        <linearGradient x1="50%" y1="0%" x2="50%" y2="99.1012893%" id="linearGradient-7">
            <stop stop-color="#6B9DC2" offset="0%"></stop>
            <stop stop-color="#6A58C5" offset="100%"></stop>
        </linearGradient>
        <linearGradient x1="38.0326674%" y1="63.1882591%" x2="97.3269098%" y2="8.38199798%" id="linearGradient-8">
            <stop stop-color="#0084E9" offset="0%"></stop>
            <stop stop-color="#7DE7E8" offset="100%"></stop>
        </linearGradient>
        <linearGradient x1="-64.1552471%" y1="36.107561%" x2="133.211612%" y2="60.1185755%" id="linearGradient-9">
            <stop stop-color="#69D7E8" offset="0%"></stop>
            <stop stop-color="#93DCFF" offset="100%"></stop>
        </linearGradient>
        <linearGradient x1="50%" y1="0%" x2="50%" y2="100%" id="linearGradient-10">
            <stop stop-color="#F1F1F1" stop-opacity="0" offset="0%"></stop>
            <stop stop-color="#7DE7E8" offset="100%"></stop>
        </linearGradient>
        <linearGradient x1="-2.38902969%" y1="52.7275426%" x2="98.6106672%" y2="47.4680581%" id="linearGradient-11">
            <stop stop-color="#FFFFFF" stop-opacity="0" offset="3%"></stop>
            <stop stop-color="#4CFFD5" offset="100%"></stop>
        </linearGradient>
        <linearGradient x1="5.91827131%" y1="52.2438022%" x2="105.602933%" y2="48.382227%" id="linearGradient-12">
            <stop stop-color="#0F123B" offset="0%"></stop>
            <stop stop-color="#111542" offset="30%"></stop>
            <stop stop-color="#171C56" offset="75%"></stop>
            <stop stop-color="#1B2062" offset="97%"></stop>
        </linearGradient>
        <linearGradient x1="8.007794%" y1="57.3829771%" x2="92.5666199%" y2="44.8001405%" id="linearGradient-13">
            <stop stop-color="#0084E9" offset="0%"></stop>
            <stop stop-color="#7DE7E8" offset="100%"></stop>
        </linearGradient>
        <linearGradient x1="10.2288028%" y1="56.5836708%" x2="92.5666199%" y2="44.8001405%" id="linearGradient-14">
            <stop stop-color="#0084E9" offset="0%"></stop>
            <stop stop-color="#7DE7E8" offset="100%"></stop>
        </linearGradient>
        <linearGradient x1="69.8937232%" y1="42.648297%" x2="-40.7075976%" y2="94.5539782%" id="linearGradient-15">
            <stop stop-color="#55D1FF" offset="0%"></stop>
            <stop stop-color="#4BB8DF" stop-opacity="0.88" offset="11%"></stop>
            <stop stop-color="#235868" stop-opacity="0.41" offset="56%"></stop>
            <stop stop-color="#0B1C1D" stop-opacity="0.12" offset="86%"></stop>
            <stop stop-color="#010400" stop-opacity="0" offset="100%"></stop>
        </linearGradient>
        <linearGradient x1="169.551049%" y1="26.8037722%" x2="-316.376224%" y2="134.182228%" id="linearGradient-16">
            <stop stop-color="#55D1FF" offset="0%"></stop>
            <stop stop-color="#4BB8DF" stop-opacity="0.88" offset="11%"></stop>
            <stop stop-color="#235868" stop-opacity="0.41" offset="56%"></stop>
            <stop stop-color="#0B1C1D" stop-opacity="0.12" offset="86%"></stop>
            <stop stop-color="#010400" stop-opacity="0" offset="100%"></stop>
        </linearGradient>
        <linearGradient x1="58.4615908%" y1="50.9761493%" x2="-413.921822%" y2="152.628394%" id="linearGradient-17">
            <stop stop-color="#55D1FF" offset="0%"></stop>
            <stop stop-color="#4BB8DF" stop-opacity="0.88" offset="11%"></stop>
            <stop stop-color="#235868" stop-opacity="0.41" offset="56%"></stop>
            <stop stop-color="#0B1C1D" stop-opacity="0.12" offset="86%"></stop>
            <stop stop-color="#010400" stop-opacity="0" offset="100%"></stop>
        </linearGradient>
        <linearGradient x1="118.03197%" y1="-28.9149364%" x2="-133.435236%" y2="343.599464%" id="linearGradient-18">
            <stop stop-color="#55D1FF" offset="0%"></stop>
            <stop stop-color="#4BB8DF" stop-opacity="0.88" offset="11%"></stop>
            <stop stop-color="#235868" stop-opacity="0.41" offset="56%"></stop>
            <stop stop-color="#0B1C1D" stop-opacity="0.12" offset="86%"></stop>
            <stop stop-color="#010400" stop-opacity="0" offset="100%"></stop>
        </linearGradient>
        <linearGradient x1="72.7136748%" y1="41.0020959%" x2="-65.4990742%" y2="105.163211%" id="linearGradient-19">
            <stop stop-color="#55D1FF" offset="0%"></stop>
            <stop stop-color="#4BB8DF" stop-opacity="0.88" offset="11%"></stop>
            <stop stop-color="#235868" stop-opacity="0.41" offset="56%"></stop>
            <stop stop-color="#0B1C1D" stop-opacity="0.12" offset="86%"></stop>
            <stop stop-color="#010400" stop-opacity="0" offset="100%"></stop>
        </linearGradient>
        <linearGradient x1="89.1806584%" y1="35.3065912%" x2="-138.899705%" y2="140.012696%" id="linearGradient-20">
            <stop stop-color="#55D1FF" offset="0%"></stop>
            <stop stop-color="#4BB8DF" stop-opacity="0.88" offset="11%"></stop>
            <stop stop-color="#235868" stop-opacity="0.41" offset="56%"></stop>
            <stop stop-color="#0B1C1D" stop-opacity="0.12" offset="86%"></stop>
            <stop stop-color="#010400" stop-opacity="0" offset="100%"></stop>
        </linearGradient>
        <linearGradient x1="86.9991095%" y1="37.4374462%" x2="-521.727516%" y2="243.800373%" id="linearGradient-21">
            <stop stop-color="#55D1FF" offset="0%"></stop>
            <stop stop-color="#4BB8DF" stop-opacity="0.88" offset="11%"></stop>
            <stop stop-color="#235868" stop-opacity="0.41" offset="56%"></stop>
            <stop stop-color="#0B1C1D" stop-opacity="0.12" offset="86%"></stop>
            <stop stop-color="#010400" stop-opacity="0" offset="100%"></stop>
        </linearGradient>
        <linearGradient x1="135.796972%" y1="20.8916435%" x2="-472.929653%" y2="227.254571%" id="linearGradient-22">
            <stop stop-color="#55D1FF" offset="0%"></stop>
            <stop stop-color="#4BB8DF" stop-opacity="0.88" offset="11%"></stop>
            <stop stop-color="#235868" stop-opacity="0.41" offset="56%"></stop>
            <stop stop-color="#0B1C1D" stop-opacity="0.12" offset="86%"></stop>
            <stop stop-color="#010400" stop-opacity="0" offset="100%"></stop>
        </linearGradient>
        <linearGradient x1="184.670232%" y1="4.31558303%" x2="-424.509804%" y2="211.046523%" id="linearGradient-23">
            <stop stop-color="#55D1FF" offset="0%"></stop>
            <stop stop-color="#4BB8DF" stop-opacity="0.88" offset="11%"></stop>
            <stop stop-color="#235868" stop-opacity="0.41" offset="56%"></stop>
            <stop stop-color="#0B1C1D" stop-opacity="0.12" offset="86%"></stop>
            <stop stop-color="#010400" stop-opacity="0" offset="100%"></stop>
        </linearGradient>
        <linearGradient x1="233.511586%" y1="-12.2597261%" x2="-375.757576%" y2="194.471213%" id="linearGradient-24">
            <stop stop-color="#55D1FF" offset="0%"></stop>
            <stop stop-color="#4BB8DF" stop-opacity="0.88" offset="11%"></stop>
            <stop stop-color="#235868" stop-opacity="0.41" offset="56%"></stop>
            <stop stop-color="#0B1C1D" stop-opacity="0.12" offset="86%"></stop>
            <stop stop-color="#010400" stop-opacity="0" offset="100%"></stop>
        </linearGradient>
        <linearGradient x1="282.352941%" y1="-28.8861937%" x2="-326.916221%" y2="177.844746%" id="linearGradient-25">
            <stop stop-color="#55D1FF" offset="0%"></stop>
            <stop stop-color="#4BB8DF" stop-opacity="0.88" offset="11%"></stop>
            <stop stop-color="#235868" stop-opacity="0.41" offset="56%"></stop>
            <stop stop-color="#0B1C1D" stop-opacity="0.12" offset="86%"></stop>
            <stop stop-color="#010400" stop-opacity="0" offset="100%"></stop>
        </linearGradient>
        <linearGradient x1="331.105169%" y1="-45.4103445%" x2="-278.074866%" y2="161.320595%" id="linearGradient-26">
            <stop stop-color="#55D1FF" offset="0%"></stop>
            <stop stop-color="#4BB8DF" stop-opacity="0.88" offset="11%"></stop>
            <stop stop-color="#235868" stop-opacity="0.41" offset="56%"></stop>
            <stop stop-color="#0B1C1D" stop-opacity="0.12" offset="86%"></stop>
            <stop stop-color="#010400" stop-opacity="0" offset="100%"></stop>
        </linearGradient>
        <linearGradient x1="379.946524%" y1="-61.9856537%" x2="-229.322638%" y2="144.745286%" id="linearGradient-27">
            <stop stop-color="#55D1FF" offset="0%"></stop>
            <stop stop-color="#4BB8DF" stop-opacity="0.88" offset="11%"></stop>
            <stop stop-color="#235868" stop-opacity="0.41" offset="56%"></stop>
            <stop stop-color="#0B1C1D" stop-opacity="0.12" offset="86%"></stop>
            <stop stop-color="#010400" stop-opacity="0" offset="100%"></stop>
        </linearGradient>
        <linearGradient x1="428.787879%" y1="-78.5609629%" x2="-180.481283%" y2="128.169977%" id="linearGradient-28">
            <stop stop-color="#55D1FF" offset="0%"></stop>
            <stop stop-color="#4BB8DF" stop-opacity="0.88" offset="11%"></stop>
            <stop stop-color="#235868" stop-opacity="0.41" offset="56%"></stop>
            <stop stop-color="#0B1C1D" stop-opacity="0.12" offset="86%"></stop>
            <stop stop-color="#010400" stop-opacity="0" offset="100%"></stop>
        </linearGradient>
        <linearGradient x1="477.540107%" y1="-95.0851137%" x2="-131.639929%" y2="111.645826%" id="linearGradient-29">
            <stop stop-color="#55D1FF" offset="0%"></stop>
            <stop stop-color="#4BB8DF" stop-opacity="0.88" offset="11%"></stop>
            <stop stop-color="#235868" stop-opacity="0.41" offset="56%"></stop>
            <stop stop-color="#0B1C1D" stop-opacity="0.12" offset="86%"></stop>
            <stop stop-color="#010400" stop-opacity="0" offset="100%"></stop>
        </linearGradient>
        <linearGradient x1="526.381462%" y1="-111.660423%" x2="-82.8877005%" y2="95.0705166%" id="linearGradient-30">
            <stop stop-color="#55D1FF" offset="0%"></stop>
            <stop stop-color="#4BB8DF" stop-opacity="0.88" offset="11%"></stop>
            <stop stop-color="#235868" stop-opacity="0.41" offset="56%"></stop>
            <stop stop-color="#0B1C1D" stop-opacity="0.12" offset="86%"></stop>
            <stop stop-color="#010400" stop-opacity="0" offset="100%"></stop>
        </linearGradient>
    </defs>
    <g id="页面-1" stroke="none" stroke-width="1" fill="none" fill-rule="evenodd">
        <g id="画板备份" transform="translate(-1354.000000, -838.000000)">
            <g id="编组-15" transform="translate(1354.000000, 838.000000)">
                <path d="M174.900595,199.369128 C175.82554,192.800399 169.700687,186.100848 156.550678,181.055587 C155.800754,180.777058 155.050546,180.498714 154.2757,180.236514 C147.649577,177.985269 140.571177,176.358442 133.250638,175.404279 C111.200377,172.390186 85.7004087,174.224658 68.150259,180.94091 C55.0002492,185.98617 49.00029,192.735081 50.1500981,199.352799 L50,199.369128 L50,213.931522 C50.0923245,217.33511 51.8445074,220.629774 54.999966,223.333977 L54.999966,246.840301 C54.999966,252.507938 60.6498851,258.175761 71.9749285,262.500297 C73.6970918,263.165724 75.4747631,263.767318 77.3000127,264.302109 C84.5075536,266.416966 92.160008,267.808685 99.9999434,268.430134 C118.59993,270.08461 138.875069,268.135275 153.300063,262.598645 C164.450086,258.339613 170.000034,252.737479 170.000034,247.135345 L170.000034,223.612506 C173.171352,220.932797 174.926367,217.649824 175,214.25904 L175,199.368943 L174.900595,199.368943 L174.900595,199.369128 Z" id="Shape备份-69" fill="url(#linearGradient-1)" fill-rule="nonzero"></path>
                <path d="M155,179.806413 L93.5131008,220 C86.2303591,219.148422 79.1618913,217.657515 72.5045436,215.568436 C72.3248393,215.530785 72.1545629,215.475785 72,215.405466 L133.78974,175 C141.175047,175.949028 148.315511,177.567099 155,179.806413 Z" id="Shape备份-68" fill="url(#linearGradient-2)" fill-rule="nonzero"></path>
                <path d="M101,237.561308 L101,268 C93.0561419,267.388682 85.3025301,266.019832 78,263.939269 L78.202585,263.66528 L78.202585,234.322361 L78.40517,234 C84.0654989,235.411746 89.9393168,236.448559 95.9339397,237.09383 C97.6056965,237.28732 99.3027048,237.432437 101,237.561308 Z" id="Shape备份-67" fill="url(#linearGradient-3)" fill-rule="nonzero"></path>
                <path d="M171,224 L171,247.321925 C171,252.876438 165.450059,258.430766 154.30005,262.65327 C139.875075,268.142654 119.599963,270.075355 101,268.434997 L101,237.756116 C120.925072,239.347719 142.449962,237.236375 157.850007,231.389704 C162.970328,229.54145 167.447211,227.025536 171,224 Z" id="Shape备份-66" fill="url(#linearGradient-4)" fill-rule="nonzero"></path>
                <path d="M73,215.835705 L73,232 C71.5690137,231.557897 70.188979,231.099283 68.8598958,230.591505 C63.497533,228.696197 58.8140419,226.102021 55.1110789,222.976135 C51.8854974,220.2725 50.0943762,216.978344 50,213.575657 L50,199.016326 L50.1534337,199 C51.1244084,204.617467 57.3856611,210.120096 68.8601853,214.427396 C70.0358348,214.869498 71.23696,215.29546 72.4890369,215.672073 C72.645655,215.742572 72.8179061,215.797858 73,215.835705 Z" id="Shape备份-65" fill="url(#linearGradient-5)" fill-rule="nonzero"></path>
                <path d="M175,199 L175,214.030746 C174.926367,217.453372 173.171353,220.767355 170.000035,223.472563 C166.447243,226.552964 161.970356,229.114502 156.850029,230.996084 C141.449968,236.948779 119.925057,239.09841 99.9999646,237.477945 C98.3250968,237.3457 96.6499458,237.196784 95,236.998417 L95,220.760612 L95.0249219,220.694489 C116.300047,223.141764 140.150063,221.124378 156.850029,214.675672 C162.706686,212.570997 167.680596,209.536863 171.325146,205.845814 L171.325146,205.82933 C173.320035,203.77317 174.545458,201.432103 174.900029,199 L175,199 L175,199 Z" id="Shape备份-64" fill="url(#linearGradient-6)" fill-rule="nonzero"></path>
                <path d="M96,220.708801 L95.9745524,220.774871 L95.9745524,237 C89.9333509,236.338357 84.0138931,235.275237 78.3095831,233.827671 C76.4715726,233.364989 74.7101941,232.869365 73,232.30767 L73,216 C79.7384078,218.118567 86.8926524,219.630519 94.2643583,220.494118 C94.8510989,220.576659 95.4384178,220.64273 96,220.708801 Z" id="Shape备份-63" fill="url(#linearGradient-7)" fill-rule="nonzero"></path>
                <path d="M78,233.54091 L77.797415,233.868868 L77.797415,263.721254 L77.59483,264 C75.7457395,263.464793 73.9442823,262.862731 72.1993537,262.196786 C60.7246051,257.868886 55,252.19684 55,246.524608 L55,223 C58.6703471,226.128976 63.3125858,228.725715 68.6277166,230.622897 C69.9448062,231.131177 71.3126856,231.590059 72.7313546,232.032784 C74.4286498,232.59009 76.1764478,233.081842 78,233.54091 Z" id="Shape备份-62" fill="url(#linearGradient-8)" fill-rule="nonzero"></path>
                <line x1="71.8830043" y1="215.906913" x2="71.8581514" y2="215.923296" id="Shape备份-61" fill="#C03A2B" fill-rule="nonzero"></line>
                <ellipse id="椭圆形备份-21" stroke="#FFFFFF" stroke-width="1.68608563" fill="url(#linearGradient-9)" opacity="0.299999982" cx="112.5" cy="192" rx="62.5" ry="24"></ellipse>
                <path d="M0,0 L227,0 L174.966714,189.807227 C162.290263,201.935742 140.578911,208 109.832659,208 C79.8132281,208 53.4676293,199.773469 50.6832293,189.807227 C38.7867417,147.225961 21.8923319,83.9568855 0,0 Z" id="路径-2备份-7" fill="url(#linearGradient-10)" opacity="0.299999982"></path>
                <g id="编组-18" transform="translate(78.000000, 130.000000)">
                    <path d="M1.32769942,45.3615609 L33.730775,64.0118085 C34.5518042,64.4843736 35.5633539,64.4843736 36.3843831,64.0118085 L81.3589803,38.1238335 C82.1808367,37.6514898 82.6872525,36.7776914 82.6872525,35.8319574 C82.6872525,34.8862235 82.1808367,34.0124251 81.3589803,33.5400814 L48.9559047,14.8898338 C48.1348755,14.4172687 47.1233258,14.4172687 46.3022966,14.8898338 L1.32769942,40.7735489 C0.506047637,41.2470615 0,42.1214133 0,43.0675549 C0,44.0136965 0.506047637,44.8880483 1.32769942,45.3615609 Z" id="路径备份-10" fill="url(#linearGradient-11)" fill-rule="nonzero" style="mix-blend-mode: screen;"></path>
                    <path d="M35.0597156,63.4750499 C34.7494111,63.4750499 34.4444582,63.3944771 34.1751796,63.2407499 L1.78065024,44.5905022 C1.23532176,44.2760327 0.899496655,43.6956072 0.899496655,43.0675549 C0.899496655,42.4395025 1.23532176,41.8590771 1.78065024,41.5446075 L46.7467012,15.6566324 C47.2932001,15.3440969 47.9650012,15.3440969 48.5115001,15.6566324 L80.9145757,34.3068801 C81.4597046,34.6225132 81.7951673,35.2034938 81.7951673,35.8319574 C81.7951673,36.4604211 81.4597046,37.0414017 80.9145757,37.3570348 L35.9399785,63.2407499 C35.6721859,63.3943133 35.3686495,63.4750499 35.0597156,63.4750499 Z" id="路径备份-9"></path>
                    <path d="M81.3589803,38.1238335 L36.3929293,64.0118085 C35.5719001,64.4843736 34.5603504,64.4843736 33.7393212,64.0118085 L1.33624567,45.3615609 C0.51019471,44.8912392 0.0023375845,44.0137665 0.00726896396,43.0654249 L0.00726896396,45.4893607 C0.00298097235,46.4364201 0.510872595,47.3123243 1.33624567,47.7812367 L33.730775,66.4357443 C34.5518042,66.9083094 35.5633539,66.9083094 36.3843831,66.4357443 L81.3589803,40.5520292 C82.1460712,40.1018174 82.6450495,39.2791814 82.6793746,38.375173 L82.6793746,38.375173 L82.6793746,35.9299373 C82.6533532,36.8408161 82.1529284,37.6722951 81.3589803,38.1238335 Z" id="形状备份-2" fill="url(#linearGradient-12)" fill-rule="nonzero"></path>
                    <path d="M1.3355773,30.826151 L33.7386529,49.4763986 C34.5596821,49.9489637 35.5712317,49.9489637 36.3922609,49.4763986 L81.3668581,23.5884235 C82.1887146,23.1160798 82.6951304,22.2422814 82.6951304,21.2965475 C82.6951304,20.3508136 82.1887146,19.4770152 81.3668581,19.0046715 L48.9637825,0.35442382 C48.1427534,-0.118141273 47.1312037,-0.118141273 46.3101745,0.35442382 L1.3355773,26.2381389 C0.513925511,26.7116516 0.00787787371,27.5860033 0.00787787371,28.5321449 C0.00787787371,29.4782866 0.513925511,30.3526383 1.3355773,30.826151 Z" id="路径" fill="url(#linearGradient-11)" fill-rule="nonzero" style="mix-blend-mode: screen;"></path>
                    <path d="M1.3355773,38.1014175 L33.7386529,56.7516652 C34.5596821,57.2242303 35.5712317,57.2242303 36.3922609,56.7516652 L81.3668581,30.8636901 C82.1887146,30.3913464 82.6951304,29.517548 82.6951304,28.5718141 C82.6951304,27.6260801 82.1887146,26.7522817 81.3668581,26.279938 L48.9637825,7.62969038 C48.1427534,7.15712529 47.1312037,7.15712529 46.3101745,7.62969038 L1.3355773,33.5134055 C0.513925511,33.9869181 0.00787787371,34.8612699 0.00787787371,35.8074115 C0.00787787371,36.7535531 0.513925511,37.6279049 1.3355773,38.1014175 Z" id="路径备份-7" fill="url(#linearGradient-11)" fill-rule="nonzero" style="mix-blend-mode: screen;"></path>
                    <path d="M35.0675935,57.106089 C34.757289,57.106089 34.4523361,57.0255162 34.1830574,56.871789 L1.78852811,38.2215414 C1.24319963,37.9070718 0.907374529,37.3266464 0.907374529,36.698594 C0.907374529,36.0705416 1.24319963,35.4901162 1.78852811,35.1756466 L46.7545791,9.28767155 C47.301078,8.97513601 47.9728791,8.97513601 48.519378,9.28767155 L80.9224536,27.9379192 C81.4675824,28.2535523 81.8030452,28.8345329 81.8030452,29.4629966 C81.8030452,30.0914602 81.4675824,30.6724408 80.9224536,30.9880739 L35.9478564,56.871789 C35.6800638,57.0253524 35.3765274,57.106089 35.0675935,57.106089 Z" id="路径备份-8" fill="url(#linearGradient-13)" fill-rule="nonzero"></path>
                    <path d="M35.0675935,64.3662324 C34.757289,64.3662324 34.4523361,64.2856596 34.1830574,64.1319324 L1.78852811,45.4816847 C1.24319963,45.1672152 0.907374529,44.5867897 0.907374529,43.9587374 C0.907374529,43.330685 1.24319963,42.7502596 1.78852811,42.43579 L46.7545791,16.5478149 C47.301078,16.2352794 47.9728791,16.2352794 48.519378,16.5478149 L80.9224536,35.1980626 C81.4675824,35.5136957 81.8030452,36.0946763 81.8030452,36.7231399 C81.8030452,37.3516036 81.4675824,37.9325842 80.9224536,38.2482173 L35.9478564,64.1319324 C35.6800638,64.2854958 35.3765274,64.3662324 35.0675935,64.3662324 Z" id="路径备份-11" fill="url(#linearGradient-13)" fill-rule="nonzero"></path>
                    <path d="M81.3668581,23.5884235 L36.4008072,49.4763986 C35.579778,49.9489637 34.5682283,49.9489637 33.7471991,49.4763986 L1.34412354,30.826151 C0.518072583,30.3558292 0.0102154582,29.4783566 0.0151468377,28.5300149 L0.0151468377,30.9539507 C0.0108588461,31.9010101 0.518750469,32.7769143 1.34412354,33.2458268 L33.7386529,51.9003344 C34.5596821,52.3728995 35.5712317,52.3728995 36.3922609,51.9003344 L81.3668581,26.0166193 C82.1539491,25.5664074 82.6529273,24.7437715 82.6872525,23.8397631 L82.6872525,23.8397631 L82.6872525,21.3945273 C82.6612311,22.3054062 82.1608062,23.1368851 81.3668581,23.5884235 Z" id="形状" fill="url(#linearGradient-12)" fill-rule="nonzero"></path>
                    <path d="M81.3668581,30.8636901 L36.4008072,56.7516652 C35.579778,57.2242303 34.5682283,57.2242303 33.7471991,56.7516652 L1.34412354,38.1014175 C0.518072583,37.6310958 0.0102154582,36.7536231 0.0151468377,35.8052815 L0.0151468377,38.2292173 C0.0108588461,39.1762767 0.518750469,40.0521809 1.34412354,40.5210933 L33.7386529,59.175601 C34.5596821,59.6481661 35.5712317,59.6481661 36.3922609,59.175601 L81.3668581,33.2918859 C82.1539491,32.841674 82.6529273,32.019038 82.6872525,31.1150296 L82.6872525,31.1150296 L82.6872525,28.6697939 C82.6612311,29.5806727 82.1608062,30.4121517 81.3668581,30.8636901 Z" id="形状备份" fill="url(#linearGradient-12)" fill-rule="nonzero"></path>
                    <path d="M35.0675935,48.9396399 C34.757289,48.9396399 34.4523361,48.8590671 34.1830574,48.7053399 L1.78852811,30.0550923 C1.24319963,29.7406227 0.907374529,29.1601973 0.907374529,28.5321449 C0.907374529,27.9040926 1.24319963,27.3236671 1.78852811,27.0091976 L46.7545791,1.12122249 C47.301078,0.808686945 47.9728791,0.808686945 48.519378,1.12122249 L80.9224536,19.7714701 C81.4675824,20.0871032 81.8030452,20.6680838 81.8030452,21.2965475 C81.8030452,21.9250112 81.4675824,22.5059918 80.9224536,22.8216248 L35.9478564,48.7053399 C35.6800638,48.8589034 35.3765274,48.9396399 35.0675935,48.9396399 Z" id="路径" fill="url(#linearGradient-14)" fill-rule="nonzero"></path>
                    <g id="编组" style="mix-blend-mode: color-dodge;" transform="translate(27.565976, 17.267334)" fill-rule="nonzero">
                        <path d="M13.603387,0.0993539474 L13.603387,0.440613158 C10.3016035,0.488130263 7.03015129,1.231125 4.50398359,2.67823684 L4.09234392,2.44497105 C-0.557017899,5.11888816 -1.30663541,9.35655 2.31146069,12.5099579 L2.7967622,12.3242092 C3.32463026,12.7810202 3.89648196,13.1847168 4.50398359,13.5294158 C7.13414447,15.0456434 10.6049169,15.7929579 14.0626902,15.7713592 L14.0626902,16.1082987 C17.7284498,16.0867 21.1688909,15.2443513 23.7600543,13.7626816 L23.3527477,13.5294158 C28.5524068,10.5358382 28.5524068,5.67181447 23.3527477,2.67823684 L23.7600543,2.44497105 C21.0735638,0.863947368 17.4554677,0.0431973684 13.603387,0.0993539474 Z M23.11443,13.3911842 L22.7027903,13.1535987 C20.4019412,14.4797579 17.3384754,15.2184329 14.0843554,15.2400316 L14.0843554,15.5510526 C10.7262423,15.5510526 7.35946303,14.8426158 4.80296399,13.3911842 C4.21210032,13.0569647 3.65616077,12.6648061 3.14340614,12.2205355 L3.6243746,12.0391066 C0.409252078,9.23127763 1.07220861,5.46878684 5.21027062,3.08861184 L4.80296399,2.85102632 C7.2424707,1.44711184 10.435928,0.725715789 13.6250522,0.691157895 L13.6250522,1.01945789 C17.0481611,0.967621053 20.2676167,1.70629605 22.6854581,3.10157105 L23.0970978,2.86398553 C28.1624323,5.74093026 28.1624323,10.4667224 23.11443,13.3911842 Z" id="形状" fill="url(#linearGradient-15)"></path>
                        <path d="M14.0800224,13.2399934 C16.2367837,13.2677426 18.3654739,12.7505799 20.2676167,11.736725 L19.9079736,11.5250579 C18.1152005,12.4869793 16.1071827,12.9803822 14.0713563,12.9592105 L14.0800224,13.2399934 Z" id="路径" fill="url(#linearGradient-16)"></path>
                        <path d="M20.2719497,4.47092763 C18.3129902,3.43000429 16.117185,2.91213036 13.8980343,2.96765921 L13.8980343,3.26572105 C15.9906696,3.21073034 18.0617046,3.69898734 19.9079736,4.68259474 L20.2719497,4.47092763 Z" id="路径" fill="url(#linearGradient-17)"></path>
                        <path d="M6.28053377,7.04549079 L5.53091626,6.94181711 L5.77790006,6.976375 C6.25130309,5.98845161 7.03675402,5.18265108 8.01375346,4.68259474 L7.64977733,4.47092763 C6.61994919,5.00750855 5.79386232,5.86442407 5.2969316,6.91157895 L4.79863094,6.84678289 C4.40406478,7.77612088 4.46326191,8.83520551 4.95895376,9.71508816 L5.69557213,9.58117632 L5.44858832,9.62437368 C5.72550081,10.1173925 6.08955649,10.5564294 6.52318453,10.9202947 L6.95648945,10.7604645 C6.54859594,10.4121133 6.20665312,9.99367899 5.94688898,9.52501974 L6.43652355,9.438625 C6.01769185,8.70740831 5.96014817,7.82459568 6.28053377,7.04549079 Z" id="路径" fill="url(#linearGradient-18)"></path>
                        <path d="M21.4808704,3.77545 C18.8810409,2.28082105 15.2846101,1.723575 11.9481622,2.09507237 L11.844169,1.78837105 C9.81959334,1.97886492 7.85548119,2.58010654 6.07254741,3.55514342 L6.45385574,3.77545 C2.30712764,6.15994474 2.30712764,10.0477079 6.45385574,12.4149237 L6.07254741,12.6352303 C8.03239942,13.7029142 10.20423,14.3267983 12.4334637,14.4624789 L12.5114586,14.1428184 C15.7005828,14.3976829 19.0500298,13.8274776 21.4982026,12.4149237 C21.983864,12.1410478 22.4410732,11.8198142 22.8631131,11.4559421 L23.2964181,11.6287316 C25.7965875,9.46886316 25.7315917,6.55304079 23.1404283,4.41045132 L22.6854581,4.5962 C22.3092373,4.28741349 21.9061069,4.01273918 21.4808704,3.77545 Z M21.2078883,12.2766921 C18.8507096,13.6330895 15.6182548,14.1860158 12.5417899,13.9397908 L12.6241178,13.5985316 C10.7017408,13.4834847 8.8285799,12.9465686 7.13847752,12.0261474 L6.7051726,12.2766921 C2.70576817,9.97427237 2.70576817,6.22906053 6.7051726,3.93096053 L7.13847752,4.18150526 C8.67554932,3.34180704 10.3680554,2.82297507 12.112818,2.65663816 L11.9958257,2.31105921 C15.2326135,1.95252105 18.7077189,2.49248816 21.2035553,3.93096053 C21.6156793,4.1647043 22.0057929,4.43506536 22.3691455,4.73875132 L21.8708449,4.93745921 C24.1066983,6.78198684 24.1586949,9.27879474 22.0051694,11.1578803 L22.5164692,11.3522684 C22.1110728,11.7015978 21.672854,12.0111696 21.2078883,12.2766921 Z" id="形状" fill="url(#linearGradient-19)"></path>
                        <path d="M18.625391,5.42126974 C16.0472267,3.93528026 11.8701673,3.93528026 9.29633603,5.42126974 C6.72250479,6.90725921 6.6965065,9.30903289 9.29633603,10.7907026 C11.8961656,12.2723724 16.0472267,12.2723724 18.625391,10.7907026 C21.2035553,9.30903289 21.1992222,6.91157895 18.625391,5.42126974 Z" id="路径" fill="url(#linearGradient-20)"></path>
                    </g>
                    <g id="编组" style="mix-blend-mode: color-dodge;" transform="translate(10.317671, 7.275267)" fill-rule="nonzero">
                        <polygon id="路径" fill="url(#linearGradient-21)" points="30.9990019 3.48982122 32.2796025 2.75125397 31.5810931 0.472246449 27.6175812 0.0713099415 26.3369806 0.809877193 30.289909 1.20026274"></polygon>
                        <polygon id="路径" fill="url(#linearGradient-22)" points="28.0832542 5.16742398 29.3638548 4.43413221 28.6653454 2.14984921 24.7018335 1.7489127 23.4212329 2.48747995 27.3741613 2.8778655"></polygon>
                        <polygon id="路径" fill="url(#linearGradient-23)" points="25.1675065 6.84502673 26.4428154 6.11173496 25.7495977 3.82745196 21.7860858 3.42651546 20.5054852 4.16508271 24.4584136 4.55546825"></polygon>
                        <polygon id="路径" fill="url(#linearGradient-24)" points="22.2517588 8.52262949 23.5270677 7.78933772 22.83385 5.50505472 18.8703381 5.10411821 17.5897375 5.84268546 21.5426659 6.23834649"></polygon>
                        <polygon id="路径" fill="url(#linearGradient-25)" points="19.3360111 10.2055077 20.61132 9.46694048 19.9181023 7.18265748 15.9545904 6.78699645 14.6739898 7.52028822 18.6269182 7.91594925"></polygon>
                        <polygon id="路径" fill="url(#linearGradient-26)" points="16.4202634 11.8831105 17.6955723 11.1445432 17.0023546 8.86026023 13.0388427 8.46459921 11.7582421 9.19789098 15.7111705 9.59355201"></polygon>
                        <polygon id="路径" fill="url(#linearGradient-27)" points="13.5045157 13.5607132 14.7798246 12.822146 14.0866069 10.5431385 10.123095 10.142202 8.84249439 10.8754937 12.7954228 11.2711548"></polygon>
                        <polygon id="路径" fill="url(#linearGradient-28)" points="10.5834762 15.238316 11.8640769 14.4997487 11.1708592 12.2207412 7.20734732 11.8198047 5.92674669 12.558372 9.87967506 12.9487575"></polygon>
                        <polygon id="路径" fill="url(#linearGradient-29)" points="7.67302027 16.9159188 8.94832916 16.182627 8.25511146 13.898344 4.29159961 13.4974075 3.01099899 14.2359747 6.96392736 14.6263603"></polygon>
                        <polygon id="路径" fill="url(#linearGradient-30)" points="4.75198083 18.5935215 6.03258145 17.8602297 5.33936376 15.5759467 1.37056017 15.1750102 0.0952512861 15.9135775 4.04817966 16.303963"></polygon>
                    </g>
                    <g id="编组备份" style="mix-blend-mode: color-dodge;" transform="translate(39.387540, 24.302334)" fill-rule="nonzero">
                        <polygon id="路径" fill="url(#linearGradient-21)" points="30.9990019 3.48982122 32.2796025 2.75125397 31.5810931 0.472246449 27.6175812 0.0713099415 26.3369806 0.809877193 30.289909 1.20026274"></polygon>
                        <polygon id="路径" fill="url(#linearGradient-22)" points="28.0832542 5.16742398 29.3638548 4.43413221 28.6653454 2.14984921 24.7018335 1.7489127 23.4212329 2.48747995 27.3741613 2.8778655"></polygon>
                        <polygon id="路径" fill="url(#linearGradient-23)" points="25.1675065 6.84502673 26.4428154 6.11173496 25.7495977 3.82745196 21.7860858 3.42651546 20.5054852 4.16508271 24.4584136 4.55546825"></polygon>
                        <polygon id="路径" fill="url(#linearGradient-24)" points="22.2517588 8.52262949 23.5270677 7.78933772 22.83385 5.50505472 18.8703381 5.10411821 17.5897375 5.84268546 21.5426659 6.23834649"></polygon>
                        <polygon id="路径" fill="url(#linearGradient-25)" points="19.3360111 10.2055077 20.61132 9.46694048 19.9181023 7.18265748 15.9545904 6.78699645 14.6739898 7.52028822 18.6269182 7.91594925"></polygon>
                        <polygon id="路径" fill="url(#linearGradient-26)" points="16.4202634 11.8831105 17.6955723 11.1445432 17.0023546 8.86026023 13.0388427 8.46459921 11.7582421 9.19789098 15.7111705 9.59355201"></polygon>
                        <polygon id="路径" fill="url(#linearGradient-27)" points="13.5045157 13.5607132 14.7798246 12.822146 14.0866069 10.5431385 10.123095 10.142202 8.84249439 10.8754937 12.7954228 11.2711548"></polygon>
                        <polygon id="路径" fill="url(#linearGradient-28)" points="10.5834762 15.238316 11.8640769 14.4997487 11.1708592 12.2207412 7.20734732 11.8198047 5.92674669 12.558372 9.87967506 12.9487575"></polygon>
                        <polygon id="路径" fill="url(#linearGradient-29)" points="7.67302027 16.9159188 8.94832916 16.182627 8.25511146 13.898344 4.29159961 13.4974075 3.01099899 14.2359747 6.96392736 14.6263603"></polygon>
                        <polygon id="路径" fill="url(#linearGradient-30)" points="4.75198083 18.5935215 6.03258145 17.8602297 5.33936376 15.5759467 1.37056017 15.1750102 0.0952512861 15.9135775 4.04817966 16.303963"></polygon>
                    </g>
                </g>
            </g>
        </g>
    </g>
</svg>