<?xml version="1.0" encoding="UTF-8"?>
<svg width="227px" height="269px" viewBox="0 0 227 269" version="1.1" xmlns="http://www.w3.org/2000/svg" xmlns:xlink="http://www.w3.org/1999/xlink">
    <title>画板备份 4</title>
    <defs>
        <linearGradient x1="2.01028518%" y1="59.6110769%" x2="92.5666199%" y2="41.488%" id="linearGradient-1">
            <stop stop-color="#0084E9" offset="11%"></stop>
            <stop stop-color="#7DE7E8" offset="100%"></stop>
        </linearGradient>
        <linearGradient x1="50%" y1="0%" x2="50%" y2="100%" id="linearGradient-2">
            <stop stop-color="#83B1D3" offset="0%"></stop>
            <stop stop-color="#745EE0" offset="100%"></stop>
        </linearGradient>
        <linearGradient x1="50%" y1="0%" x2="50%" y2="99.1012893%" id="linearGradient-3">
            <stop stop-color="#6B9DC2" offset="0%"></stop>
            <stop stop-color="#6A58C5" offset="100%"></stop>
        </linearGradient>
        <linearGradient x1="2.01028518%" y1="56.8766008%" x2="92.5666199%" y2="43.9097744%" id="linearGradient-4">
            <stop stop-color="#0084E9" offset="11%"></stop>
            <stop stop-color="#7DE7E8" offset="100%"></stop>
        </linearGradient>
        <linearGradient x1="31.5270101%" y1="63.1882591%" x2="95.3154175%" y2="24.4232725%" id="linearGradient-5">
            <stop stop-color="#0084E9" offset="0%"></stop>
            <stop stop-color="#7DE7E8" offset="100%"></stop>
        </linearGradient>
        <linearGradient x1="2.01028518%" y1="53.954523%" x2="92.5666199%" y2="46.4976974%" id="linearGradient-6">
            <stop stop-color="#0084E9" offset="11%"></stop>
            <stop stop-color="#7DE7E8" offset="100%"></stop>
        </linearGradient>
        <linearGradient x1="50%" y1="0%" x2="50%" y2="99.1012893%" id="linearGradient-7">
            <stop stop-color="#6B9DC2" offset="0%"></stop>
            <stop stop-color="#6A58C5" offset="100%"></stop>
        </linearGradient>
        <linearGradient x1="38.0326674%" y1="63.1882591%" x2="97.3269098%" y2="8.38199798%" id="linearGradient-8">
            <stop stop-color="#0084E9" offset="0%"></stop>
            <stop stop-color="#7DE7E8" offset="100%"></stop>
        </linearGradient>
        <linearGradient x1="-64.1552471%" y1="36.107561%" x2="133.211612%" y2="60.1185755%" id="linearGradient-9">
            <stop stop-color="#69D7E8" offset="0%"></stop>
            <stop stop-color="#93DCFF" offset="100%"></stop>
        </linearGradient>
        <linearGradient x1="50%" y1="0%" x2="50%" y2="100%" id="linearGradient-10">
            <stop stop-color="#F1F1F1" stop-opacity="0" offset="0%"></stop>
            <stop stop-color="#7DE7E8" offset="100%"></stop>
        </linearGradient>
        <linearGradient x1="-22.1034596%" y1="50.0598538%" x2="77.9033889%" y2="50.0598538%" id="linearGradient-11">
            <stop stop-color="#42E8E0" offset="0%"></stop>
            <stop stop-color="#3CCACE" offset="10%"></stop>
            <stop stop-color="#2F87A5" offset="34%"></stop>
            <stop stop-color="#255385" offset="56%"></stop>
            <stop stop-color="#1E2D6E" offset="75%"></stop>
            <stop stop-color="#1A1660" offset="91%"></stop>
            <stop stop-color="#180D5B" offset="100%"></stop>
        </linearGradient>
        <linearGradient x1="2.1150377e-13%" y1="50.0186139%" x2="100.015471%" y2="50.0186139%" id="linearGradient-12">
            <stop stop-color="#2B237C" offset="0%"></stop>
            <stop stop-color="#180D5B" offset="100%"></stop>
        </linearGradient>
        <linearGradient x1="2.01028518%" y1="52.8972161%" x2="92.5666199%" y2="47.4340957%" id="linearGradient-13">
            <stop stop-color="#0084E9" offset="11%"></stop>
            <stop stop-color="#7DE7E8" offset="100%"></stop>
        </linearGradient>
        <linearGradient x1="0.024207768%" y1="49.9715023%" x2="100%" y2="49.9715023%" id="linearGradient-14">
            <stop stop-color="#42E8E0" offset="0%"></stop>
            <stop stop-color="#3CCACE" offset="10%"></stop>
            <stop stop-color="#2F87A5" offset="34%"></stop>
            <stop stop-color="#255385" offset="56%"></stop>
            <stop stop-color="#1E2D6E" offset="75%"></stop>
            <stop stop-color="#1A1660" offset="91%"></stop>
            <stop stop-color="#180D5B" offset="100%"></stop>
        </linearGradient>
        <linearGradient x1="13.5852323%" y1="51.7151277%" x2="97.3088647%" y2="42.8448788%" id="linearGradient-15">
            <stop stop-color="#42E8E0" offset="0%"></stop>
            <stop stop-color="#3CCACE" offset="10%"></stop>
            <stop stop-color="#2F87A5" offset="34%"></stop>
            <stop stop-color="#255385" offset="56%"></stop>
            <stop stop-color="#1E2D6E" offset="75%"></stop>
            <stop stop-color="#1A1660" offset="91%"></stop>
            <stop stop-color="#180D5B" offset="100%"></stop>
        </linearGradient>
        <linearGradient x1="-22.1023256%" y1="50%" x2="77.8976744%" y2="50%" id="linearGradient-16">
            <stop stop-color="#42E8E0" offset="0%"></stop>
            <stop stop-color="#3CCACE" offset="10%"></stop>
            <stop stop-color="#2F87A5" offset="34%"></stop>
            <stop stop-color="#255385" offset="56%"></stop>
            <stop stop-color="#1E2D6E" offset="75%"></stop>
            <stop stop-color="#1A1660" offset="91%"></stop>
            <stop stop-color="#180D5B" offset="100%"></stop>
        </linearGradient>
        <linearGradient x1="2.11549754e-13%" y1="50.0868298%" x2="100%" y2="50.0868298%" id="linearGradient-17">
            <stop stop-color="#2B237C" offset="0%"></stop>
            <stop stop-color="#180D5B" offset="100%"></stop>
        </linearGradient>
        <linearGradient x1="2.01028518%" y1="52.8928339%" x2="92.5666199%" y2="47.4379768%" id="linearGradient-18">
            <stop stop-color="#0084E9" offset="11%"></stop>
            <stop stop-color="#7DE7E8" offset="100%"></stop>
        </linearGradient>
        <linearGradient x1="-0.0062943408%" y1="49.9725564%" x2="99.8181042%" y2="49.9725564%" id="linearGradient-19">
            <stop stop-color="#42E8E0" offset="0%"></stop>
            <stop stop-color="#3CCACE" offset="10%"></stop>
            <stop stop-color="#2F87A5" offset="34%"></stop>
            <stop stop-color="#255385" offset="56%"></stop>
            <stop stop-color="#1E2D6E" offset="75%"></stop>
            <stop stop-color="#1A1660" offset="91%"></stop>
            <stop stop-color="#180D5B" offset="100%"></stop>
        </linearGradient>
        <linearGradient x1="13.6026673%" y1="51.6970018%" x2="97.3204359%" y2="42.8633426%" id="linearGradient-20">
            <stop stop-color="#42E8E0" offset="0%"></stop>
            <stop stop-color="#3CCACE" offset="10%"></stop>
            <stop stop-color="#2F87A5" offset="34%"></stop>
            <stop stop-color="#255385" offset="56%"></stop>
            <stop stop-color="#1E2D6E" offset="75%"></stop>
            <stop stop-color="#1A1660" offset="91%"></stop>
            <stop stop-color="#180D5B" offset="100%"></stop>
        </linearGradient>
        <linearGradient x1="-0.00612046704%" y1="50.1346175%" x2="99.9945662%" y2="50.1346175%" id="linearGradient-21">
            <stop stop-color="#0B0244" offset="0%"></stop>
            <stop stop-color="#0B0244" offset="100%"></stop>
        </linearGradient>
        <linearGradient x1="-22.1059748%" y1="50.047387%" x2="77.9122536%" y2="50.047387%" id="linearGradient-22">
            <stop stop-color="#42E8E0" offset="0%"></stop>
            <stop stop-color="#3CCACE" offset="10%"></stop>
            <stop stop-color="#2F87A5" offset="34%"></stop>
            <stop stop-color="#255385" offset="56%"></stop>
            <stop stop-color="#1E2D6E" offset="75%"></stop>
            <stop stop-color="#1A1660" offset="91%"></stop>
            <stop stop-color="#180D5B" offset="100%"></stop>
        </linearGradient>
        <linearGradient x1="-2.11549754e-13%" y1="49.9980423%" x2="100.037216%" y2="49.9980423%" id="linearGradient-23">
            <stop stop-color="#2B237C" offset="0%"></stop>
            <stop stop-color="#180D5B" offset="100%"></stop>
        </linearGradient>
        <linearGradient x1="2.01028518%" y1="52.8979033%" x2="92.5666199%" y2="47.4334871%" id="linearGradient-24">
            <stop stop-color="#0084E9" offset="11%"></stop>
            <stop stop-color="#7DE7E8" offset="100%"></stop>
        </linearGradient>
        <linearGradient x1="0.024207768%" y1="50.0169682%" x2="100%" y2="50.0169682%" id="linearGradient-25">
            <stop stop-color="#42E8E0" offset="0%"></stop>
            <stop stop-color="#3CCACE" offset="10%"></stop>
            <stop stop-color="#2F87A5" offset="34%"></stop>
            <stop stop-color="#255385" offset="56%"></stop>
            <stop stop-color="#1E2D6E" offset="75%"></stop>
            <stop stop-color="#1A1660" offset="91%"></stop>
            <stop stop-color="#180D5B" offset="100%"></stop>
        </linearGradient>
        <linearGradient x1="13.5853577%" y1="51.7179834%" x2="97.3092041%" y2="42.8427773%" id="linearGradient-26">
            <stop stop-color="#42E8E0" offset="0%"></stop>
            <stop stop-color="#3CCACE" offset="10%"></stop>
            <stop stop-color="#2F87A5" offset="34%"></stop>
            <stop stop-color="#255385" offset="56%"></stop>
            <stop stop-color="#1E2D6E" offset="75%"></stop>
            <stop stop-color="#1A1660" offset="91%"></stop>
            <stop stop-color="#180D5B" offset="100%"></stop>
        </linearGradient>
    </defs>
    <g id="页面-1" stroke="none" stroke-width="1" fill="none" fill-rule="evenodd">
        <g id="画板备份" transform="translate(-985.000000, -838.000000)">
            <g id="编组-9" transform="translate(985.000000, 838.000000)">
                <path d="M174.900595,199.369128 C175.82554,192.800399 169.700687,186.100848 156.550678,181.055587 C155.800754,180.777058 155.050546,180.498714 154.2757,180.236514 C147.649577,177.985269 140.571177,176.358442 133.250638,175.404279 C111.200377,172.390186 85.7004087,174.224658 68.150259,180.94091 C55.0002492,185.98617 49.00029,192.735081 50.1500981,199.352799 L50,199.369128 L50,213.931522 C50.0923245,217.33511 51.8445074,220.629774 54.999966,223.333977 L54.999966,246.840301 C54.999966,252.507938 60.6498851,258.175761 71.9749285,262.500297 C73.6970918,263.165724 75.4747631,263.767318 77.3000127,264.302109 C84.5075536,266.416966 92.160008,267.808685 99.9999434,268.430134 C118.59993,270.08461 138.875069,268.135275 153.300063,262.598645 C164.450086,258.339613 170.000034,252.737479 170.000034,247.135345 L170.000034,223.612506 C173.171352,220.932797 174.926367,217.649824 175,214.25904 L175,199.368943 L174.900595,199.368943 L174.900595,199.369128 Z" id="Shape备份-60" fill="url(#linearGradient-1)" fill-rule="nonzero"></path>
                <path d="M155,179.806413 L94.2539068,220 C87.058909,219.148422 80.0756034,217.657515 73.4984648,215.568436 C73.3209255,215.530785 73.1527007,215.475785 73,215.405466 L134.045285,175 C141.341613,175.949028 148.396047,177.567099 155,179.806413 Z" id="Shape备份-59" fill="url(#linearGradient-2)" fill-rule="nonzero"></path>
                <path d="M100,237.561308 L100,268 C92.0561419,267.388682 84.3025301,266.019832 77,263.939269 L77.202585,263.66528 L77.202585,234.322361 L77.40517,234 C83.0654989,235.411746 88.9393168,236.448559 94.9339397,237.09383 C96.6056965,237.28732 98.3027048,237.432437 100,237.561308 Z" id="Shape备份-58" fill="url(#linearGradient-3)" fill-rule="nonzero"></path>
                <path d="M170,224 L170,247.321925 C170,252.876438 164.450059,258.430766 153.30005,262.65327 C138.875075,268.142654 118.599963,270.075355 100,268.434997 L100,237.756116 C119.925072,239.347719 141.449962,237.236375 156.850007,231.389704 C161.970328,229.54145 166.447211,227.025536 170,224 Z" id="Shape备份-57" fill="url(#linearGradient-4)" fill-rule="nonzero"></path>
                <path d="M73,215.835705 L73,232 C71.5690137,231.557897 70.188979,231.099283 68.8598958,230.591505 C63.497533,228.696197 58.8140419,226.102021 55.1110789,222.976135 C51.8854974,220.2725 50.0943762,216.978344 50,213.575657 L50,199.016326 L50.1534337,199 C51.1244084,204.617467 57.3856611,210.120096 68.8601853,214.427396 C70.0358348,214.869498 71.23696,215.29546 72.4890369,215.672073 C72.645655,215.742572 72.8179061,215.797858 73,215.835705 Z" id="Shape备份-56" fill="url(#linearGradient-5)" fill-rule="nonzero"></path>
                <path d="M175,199 L175,214.030746 C174.926367,217.453372 173.171353,220.767355 170.000035,223.472563 C166.447243,226.552964 161.970356,229.114502 156.850029,230.996084 C141.449968,236.948779 119.925057,239.09841 99.9999646,237.477945 C98.3250968,237.3457 96.6499458,237.196784 95,236.998417 L95,220.760612 L95.0249219,220.694489 C116.300047,223.141764 140.150063,221.124378 156.850029,214.675672 C162.706686,212.570997 167.680596,209.536863 171.325146,205.845814 L171.325146,205.82933 C173.320035,203.77317 174.545458,201.432103 174.900029,199 L175,199 L175,199 Z" id="Shape备份-55" fill="url(#linearGradient-6)" fill-rule="nonzero"></path>
                <path d="M95,220.708801 L94.9745524,220.774871 L94.9745524,237 C88.9333509,236.338357 83.0138931,235.275237 77.3095831,233.827671 C75.4715726,233.364989 73.7101941,232.869365 72,232.30767 L72,216 C78.7384078,218.118567 85.8926524,219.630519 93.2643583,220.494118 C93.8510989,220.576659 94.4384178,220.64273 95,220.708801 Z" id="Shape备份-54" fill="url(#linearGradient-7)" fill-rule="nonzero"></path>
                <path d="M78,233.54091 L77.797415,233.868868 L77.797415,263.721254 L77.59483,264 C75.7457395,263.464793 73.9442823,262.862731 72.1993537,262.196786 C60.7246051,257.868886 55,252.19684 55,246.524608 L55,223 C58.6703471,226.128976 63.3125858,228.725715 68.6277166,230.622897 C69.9448062,231.131177 71.3126856,231.590059 72.7313546,232.032784 C74.4286498,232.59009 76.1764478,233.081842 78,233.54091 Z" id="Shape备份-53" fill="url(#linearGradient-8)" fill-rule="nonzero"></path>
                <line x1="71.8830043" y1="215.906913" x2="71.8581514" y2="215.923296" id="Shape备份-52" fill="#C03A2B" fill-rule="nonzero"></line>
                <ellipse id="椭圆形备份-18" stroke="#FFFFFF" stroke-width="1.68608563" fill="url(#linearGradient-9)" opacity="0.299999982" cx="112.5" cy="192" rx="62.5" ry="24"></ellipse>
                <path d="M0,0 L227,0 L174.966714,189.807227 C162.290263,201.935742 140.578911,208 109.832659,208 C79.8132281,208 53.4676293,199.773469 50.6832293,189.807227 C38.7867417,147.225961 21.8923319,83.9568855 0,0 Z" id="路径-2备份-6" fill="url(#linearGradient-10)" opacity="0.299999982"></path>
                <g id="编组-2" transform="translate(80.000000, 134.000000)">
                    <path d="M23.6246717,40.7263674 C23.5740392,40.7376873 23.5198576,40.7376873 23.4692251,40.7263674 L12.1096622,35.9893468 C11.9668558,35.925949 11.9192573,35.7921338 12.0020453,35.6867998 C12.0398809,35.6338851 12.1062512,35.5946065 12.1854778,35.5782425 C12.2647044,35.5618784 12.3497611,35.569927 12.4205555,35.6003578 L23.7801184,40.3373785 C23.8520706,40.3679372 23.9040079,40.4181241 23.9242476,40.4766505 C23.9444874,40.5351769 23.9313301,40.5971283 23.8877353,40.6485696 C23.8238,40.7049067 23.7248954,40.7341565 23.6246717,40.7263674 L23.6246717,40.7263674 Z" id="路径" fill="#88FFF3" fill-rule="nonzero"></path>
                    <path d="M9.29923045,27.4598327 C9.25899901,27.4668623 9.21739559,27.4668623 9.17716416,27.4598327 L0.256935503,23.2672199 C0.143532744,23.2082268 0.106438249,23.0873282 0.172428073,22.9917928 C0.241293578,22.9004206 0.386649563,22.8699656 0.501068076,22.922936 L9.42129673,27.1155488 C9.53684847,27.1690926 9.57858706,27.2881229 9.51519388,27.3833252 C9.46405765,27.4373019 9.3825536,27.4661757 9.29923045,27.4598327 L9.29923045,27.4598327 Z" id="路径" fill="#88FFF3" fill-rule="nonzero"></path>
                    <path d="M9.29856477,44.2110162 C9.25822427,44.2173946 9.21650807,44.2173946 9.17616757,44.2110162 L0.231756927,40.406786 C0.118046743,40.3532578 0.0808516877,40.2435586 0.147020405,40.1568731 C0.216072598,40.0739652 0.361822631,40.0463314 0.476551323,40.0943949 L9.42096197,43.898625 C9.53682695,43.9472088 9.5786787,44.0552127 9.51511366,44.1415959 C9.46383881,44.1905725 9.3821138,44.2167715 9.29856477,44.2110162 L9.29856477,44.2110162 Z" id="路径备份" fill="#88FFF3" fill-rule="nonzero"></path>
                    <path d="M67.7236906,50.3560043 L67.7236906,46.7081526 L54.7140018,46.7081526 L39.312826,40.2855133 C36.7405878,39.4422735 33.7672898,39.5321008 31.3013448,40.5275509 L16.4860833,46.7081526 L3.464193,46.7081526 L3.464193,50.5375324 L3.464193,50.5375324 C3.45102089,51.2083353 3.99191598,51.8203677 4.83954195,52.0934881 L31.8753016,63.3741668 C34.448659,64.2132327 37.4192407,64.1234875 39.8867828,63.1321293 L65.7626714,52.3268815 C67.1736487,51.782297 67.8073927,51.0475401 67.7236906,50.3560043 Z" id="路径" fill="#312A91" fill-rule="nonzero"></path>
                    <path d="M67.7236906,50.3560043 L67.7236906,46.7081526 L54.7140018,46.7081526 L39.312826,40.2855133 C36.7405878,39.4422735 33.7672898,39.5321008 31.3013448,40.5275509 L16.4860833,46.7081526 L3.464193,46.7081526 L3.464193,50.5375324 L3.464193,50.5375324 C3.45102089,51.2083353 3.99191598,51.8203677 4.83954195,52.0934881 L31.8753016,63.3741668 C34.448659,64.2132327 37.4192407,64.1234875 39.8867828,63.1321293 L65.7626714,52.3268815 C67.1736487,51.782297 67.8073927,51.0475401 67.7236906,50.3560043 Z" id="路径" fill="url(#linearGradient-11)" fill-rule="nonzero" opacity="0.5"></path>
                    <path d="M39.312826,40.2855133 C38.1667532,39.8570661 36.8820637,39.6599744 35.5940638,39.7149962 L35.5940638,63.9706165 C37.0986166,63.9547562 38.5755247,63.6759737 39.8987403,63.1580619 L65.7746288,52.3528141 C67.1377763,51.782297 67.8073927,51.0475401 67.7236906,50.3560043 L67.7236906,46.7081526 L54.7140018,46.7081526 L39.312826,40.2855133 Z" id="路径" fill="url(#linearGradient-12)" fill-rule="nonzero"></path>
                    <path d="M31.8872591,59.544787 L4.85149939,48.2641083 C2.79482063,47.3996885 3.05788419,45.9042422 5.42545625,44.9188036 L31.3013448,34.1135557 C33.7688869,33.1221975 36.7394686,33.0324523 39.312826,33.8715182 L66.3485857,45.1608411 C68.4052644,46.0252609 68.1422009,47.512063 65.7746288,48.4975016 L39.8987403,59.3027495 C37.4327952,60.2981995 34.4594972,60.3880268 31.8872591,59.544787 Z" id="路径" fill="#312A91" fill-rule="nonzero"></path>
                    <path d="M31.8872591,59.544787 L4.85149939,48.2641083 C2.79482063,47.3996885 3.05788419,45.9042422 5.42545625,44.9188036 L31.3013448,34.1135557 C33.7688869,33.1221975 36.7394686,33.0324523 39.312826,33.8715182 L66.3485857,45.1608411 C68.4052644,46.0252609 68.1422009,47.512063 65.7746288,48.4975016 L39.8987403,59.3027495 C37.4327952,60.2981995 34.4594972,60.3880268 31.8872591,59.544787 Z" id="路径" fill="url(#linearGradient-13)" fill-rule="nonzero"></path>
                    <path d="M32.6047052,57.0466137 L10.8302167,47.944273 C9.16813329,47.2527371 9.38336711,46.0425493 11.2845992,45.2472831 L32.1383652,36.5425755 C34.1271247,35.7423402 36.5231643,35.6717719 38.5953799,36.3524031 L60.3698684,45.4374555 C62.0319518,46.1289913 61.8286754,47.3391791 59.9154858,48.1344453 L39.0617198,56.839153 C37.0768048,57.6449539 34.6806793,57.7219403 32.6047052,57.0466137 Z" id="路径" fill="#5CFFF3" fill-rule="nonzero"></path>
                    <path d="M11.2845992,46.4401825 L32.1383652,37.744119 C34.1252032,36.9411023 36.5212848,36.8673251 38.5953799,37.5453025 L60.3698684,46.638999 C60.7309222,46.778843 61.0388925,46.9806998 61.2666759,47.2268045 C61.5070768,46.9097836 61.5464142,46.5331617 61.3745881,46.1936393 C61.2027621,45.8541169 60.8365094,45.5847658 60.3698684,45.4547439 L38.5953799,36.3696915 C36.5231643,35.6890603 34.1271247,35.7596286 32.1383652,36.5598639 L11.2845992,45.2645715 C9.84970706,45.8610212 9.38336711,46.6995084 9.9334091,47.3651117 C10.2634232,46.976249 10.7295015,46.6572047 11.2845992,46.4401825 Z" id="路径" fill="#42E8E0" fill-rule="nonzero"></path>
                    <path d="M32.7840667,59.544787 L5.76026442,48.2641083 C3.70358566,47.3996885 3.21333084,46.1462797 6.33422128,44.9188036 L32.2101098,34.1135557 C33.4563301,33.6211594 34.8443542,33.3458843 36.2636801,33.3096453 C34.5387547,33.2424179 32.8216193,33.520598 31.3013448,34.1135557 L5.42545625,44.9188036 C3.03396932,45.9042422 2.79482063,47.3996885 4.85149939,48.2641083 L31.8872591,59.544787 C33.1084032,59.9954644 34.4783079,60.1929307 35.8451699,60.1153041 C34.7778321,60.0970944 33.7305402,59.901904 32.7840667,59.544787 Z" id="路径" fill="url(#linearGradient-14)" fill-rule="nonzero" opacity="0.5"></path>
                    <path d="M65.7746288,50.1312551 L39.8987403,60.9105703 C37.4292845,61.899147 34.458744,61.9856859 31.8872591,61.1439637 L4.85149939,49.863285 C4.00576048,49.5932127 3.46462413,48.984309 3.47615043,48.3159735 L3.47615043,48.3159735 L3.47615043,49.1112397 L3.47615043,49.1112397 C3.46297832,49.7820426 4.00387341,50.394075 4.85149939,50.6671954 L31.8872591,61.9478741 C34.4606165,62.78694 37.4311981,62.6971948 39.8987403,61.7058366 L65.7746288,50.9005888 C67.1377763,50.3300717 67.8073927,49.5953148 67.7236906,48.903779 L67.7236906,48.1085127 C67.8073927,48.8086928 67.1736487,49.560738 65.7746288,50.1312551 Z" id="路径" fill="url(#linearGradient-15)" fill-rule="nonzero" opacity="0.5"></path>
                    <path d="M61.0873144,49.0680187 C61.2170852,49.1006661 61.3040535,49.1891143 61.3040535,49.2884458 C61.3040535,49.3877773 61.2170852,49.4762254 61.0873144,49.5088728 C60.7488621,49.6321638 60.3495976,49.6321638 60.0111453,49.5088728 C59.8813746,49.4762254 59.7944063,49.3877773 59.7944063,49.2884458 C59.7944063,49.1891143 59.8813746,49.1006661 60.0111453,49.0680187 C60.3495976,48.9447277 60.7488621,48.9447277 61.0873144,49.0680187 Z" id="路径" fill="#FCCC6B" fill-rule="nonzero"></path>
                    <path d="M62.7493978,48.3764829 C62.8791686,48.4091303 62.9661369,48.4975784 62.9661369,48.5969099 C62.9661369,48.6962414 62.8791686,48.7846896 62.7493978,48.817337 C62.4109456,48.940628 62.011681,48.940628 61.6732287,48.817337 C61.543458,48.7846896 61.4564897,48.6962414 61.4564897,48.5969099 C61.4564897,48.4975784 61.543458,48.4091303 61.6732287,48.3764829 C62.011681,48.2531919 62.4109456,48.2531919 62.7493978,48.3764829 Z" id="路径" fill="#FCCC6B" fill-rule="nonzero"></path>
                    <path d="M64.4114813,47.6763028 C64.5386359,47.7130444 64.6220241,47.8020592 64.6220241,47.901052 C64.6220241,48.0000448 64.5386359,48.0890596 64.4114813,48.1258011 C64.073029,48.2490921 63.6737644,48.2490921 63.3353121,48.1258011 C63.2081575,48.0890596 63.1247693,48.0000448 63.1247693,47.901052 C63.1247693,47.8020592 63.2081575,47.7130444 63.3353121,47.6763028 C63.6737644,47.5530118 64.073029,47.5530118 64.4114813,47.6763028 Z" id="路径" fill="#FCCC6B" fill-rule="nonzero"></path>
                    <path d="M32.6047185,51.1086246 L10.8182726,41.9976396 C9.16814665,41.3061037 9.37142304,40.1045602 11.2846126,39.3006497 L32.1383786,30.6045863 C34.1252166,29.8015696 36.5212982,29.7277923 38.5953933,30.4057697 L60.3459668,39.5167547 C61.9960928,40.2082906 61.7928164,41.4098341 59.8796269,42.2137445 L39.0258609,50.909808 C37.0485333,51.7041882 34.6687618,51.7778726 32.6047185,51.1086246 L32.6047185,51.1086246 Z" id="路径" fill-opacity="0.5" fill="#0B0244" fill-rule="nonzero" opacity="0.3"></path>
                    <path d="M67.723704,33.6041231 L67.723704,29.9562714 L54.7020577,29.9562714 L39.3128393,23.5336321 C36.7406012,22.6903923 33.7673032,22.7802196 31.3013581,23.7756697 L16.4860966,29.9562714 L3.4524929,29.9562714 L3.4524929,33.8115838 L3.4524929,33.8115838 C3.45729041,34.4785728 3.99241376,35.0840744 4.82759789,35.3675395 L31.8633576,46.6482183 C34.4355957,47.491458 37.4088937,47.4016307 39.8748388,46.4061807 L65.7626847,35.6095771 C66.8930559,35.26718 67.6542906,34.4886965 67.723704,33.6041231 Z" id="路径" fill="#312A91" fill-rule="nonzero"></path>
                    <path d="M67.723704,33.6041231 L67.723704,29.9562714 L54.7020577,29.9562714 L39.3128393,23.5336321 C36.7406012,22.6903923 33.7673032,22.7802196 31.3013581,23.7756697 L16.4860966,29.9562714 L3.4524929,29.9562714 L3.4524929,33.8115838 L3.4524929,33.8115838 C3.45729041,34.4785728 3.99241376,35.0840744 4.82759789,35.3675395 L31.8633576,46.6482183 C34.4355957,47.491458 37.4088937,47.4016307 39.8748388,46.4061807 L65.7626847,35.6095771 C66.8930559,35.26718 67.6542906,34.4886965 67.723704,33.6041231 Z" id="路径" fill="url(#linearGradient-16)" fill-rule="nonzero" opacity="0.5"></path>
                    <path d="M39.3128393,23.5336321 C38.1642278,23.1103448 36.8814981,22.9135537 35.5940772,22.963115 L35.5940772,47.1841585 C37.0956142,47.1724697 38.570014,46.8933854 39.8867962,46.3716039 L65.7746422,35.5750003 C66.9003429,35.2300438 67.6564256,34.4520854 67.723704,33.5695463 L67.723704,29.9216946 L54.7020577,29.9216946 L39.3128393,23.5336321 Z" id="路径" fill="url(#linearGradient-17)" fill-rule="nonzero"></path>
                    <path d="M31.875315,42.7929058 L4.83955532,31.5122271 C2.794834,30.6478073 3.04594013,29.152361 5.42546962,28.1669224 L31.3013581,17.3616746 C33.7686914,16.367632 36.7428617,16.2809874 39.3128393,17.1282812 L66.348599,28.3657389 C68.3933204,29.2301588 68.1422142,30.7169609 65.7746422,31.7110437 L39.8867962,42.5076473 C37.4304804,43.5170326 34.4569524,43.6229087 31.875315,42.7929058 L31.875315,42.7929058 Z" id="路径" fill="#312A91" fill-rule="nonzero"></path>
                    <path d="M31.875315,42.7929058 L4.83955532,31.5122271 C2.794834,30.6478073 3.04594013,29.152361 5.42546962,28.1669224 L31.3013581,17.3616746 C33.7686914,16.367632 36.7428617,16.2809874 39.3128393,17.1282812 L66.348599,28.3657389 C68.3933204,29.2301588 68.1422142,30.7169609 65.7746422,31.7110437 L39.8867962,42.5076473 C37.4304804,43.5170326 34.4569524,43.6229087 31.875315,42.7929058 L31.875315,42.7929058 Z" id="路径" fill="url(#linearGradient-18)" fill-rule="nonzero"></path>
                    <path d="M32.6047185,40.2687999 L10.8182726,31.1751034 C9.16814665,30.4835675 9.37142304,29.2733798 11.2846126,28.4781135 L32.1383786,19.7734059 C34.1271381,18.9731707 36.5231776,18.9026024 38.5953933,19.5832335 L60.3459668,28.7115069 C61.9960928,29.4030427 61.7928164,30.6045863 59.8796269,31.3998525 L39.0258609,40.1045602 C37.0409033,40.8878233 34.6612876,40.948689 32.6047185,40.2687999 L32.6047185,40.2687999 Z" id="路径" fill="#5CFFF3" fill-rule="nonzero"></path>
                    <path d="M11.3204849,29.6969455 L32.1742509,20.9922378 C34.1610889,20.1892211 36.5571705,20.1154439 38.6312656,20.7934213 L60.3459668,29.895762 C60.7067569,30.0364672 61.0114571,30.241856 61.230817,30.4922117 C61.4718008,30.1763144 61.5128213,29.8006722 61.3433876,29.4613529 C61.1739539,29.1220335 60.8104964,28.8519415 60.3459668,28.7201511 L38.5714784,19.6264545 C36.4992628,18.9458234 34.1032232,19.0163917 32.1144637,19.8166269 L11.3204849,28.5126903 C9.88559273,29.1177842 9.40729535,29.9476272 9.96929477,30.6132305 C10.294005,30.2234612 10.7616849,29.9063126 11.3204849,29.6969455 L11.3204849,29.6969455 Z" id="路径" fill="#42E8E0" fill-rule="nonzero"></path>
                    <path d="M32.8438672,42.7929058 L5.80810753,31.5122271 C3.7633862,30.6478073 3.27313138,29.3943985 6.38206439,28.1669224 L32.2699104,17.3616746 C33.5169551,16.870755 34.9044881,16.5955773 36.3234807,16.5577641 C34.5984511,16.4896336 32.8809808,16.767868 31.3611453,17.3616746 L5.42546962,28.1669224 C3.03398269,29.152361 2.794834,30.6564515 4.83955532,31.5122271 L31.875315,42.7929058 C33.0968706,43.2427265 34.4664383,43.4401442 35.8332259,43.3634229 C34.789781,43.3397801 33.7674839,43.1446754 32.8438672,42.7929058 L32.8438672,42.7929058 Z" id="路径" fill="url(#linearGradient-19)" fill-rule="nonzero" opacity="0.5"></path>
                    <path d="M65.7746422,33.3534413 L39.8867962,44.1586892 C37.419463,45.1527318 34.4452927,45.2393764 31.875315,44.3920825 L4.83955532,33.1114038 C3.99595194,32.8395307 3.45583342,32.2317723 3.46434873,31.5640923 L3.46434873,31.5640923 L3.46434873,32.3593585 L3.46434873,32.3593585 C3.46924785,33.0263475 4.00437119,33.6318491 4.83955532,33.9153142 L31.875315,45.1959929 C34.4475532,46.0392327 37.4208511,45.9494054 39.8867962,44.9539554 L65.7746422,34.2178612 C66.9003429,33.8729047 67.6564256,33.0949463 67.723704,32.2124072 L67.723704,31.4171409 C67.6268916,32.2755126 66.8746692,33.0228098 65.7746422,33.3534413 Z" id="路径" fill="url(#linearGradient-20)" fill-rule="nonzero" opacity="0.5"></path>
                    <line x1="0.33258461" y1="40.0968406" x2="0.33258461" y2="0.390877644" id="直线" stroke="#5CFFF3" stroke-width="1.875" stroke-linecap="round"></line>
                    <path d="M61.3187958,31.8904108 C61.4485665,31.9230582 61.5355348,32.0115063 61.5355348,32.1108378 C61.5355348,32.2101693 61.4485665,32.2986175 61.3187958,32.3312649 C60.9803435,32.4545559 60.581079,32.4545559 60.2426267,32.3312649 C60.1128559,32.2986175 60.0258876,32.2101693 60.0258876,32.1108378 C60.0258876,32.0115063 60.1128559,31.9230582 60.2426267,31.8904108 C60.581079,31.7671198 60.9803435,31.7671198 61.3187958,31.8904108 Z" id="路径" fill="#FCCC6B" fill-rule="nonzero"></path>
                    <path d="M62.9808792,31.1902307 C63.1080338,31.2269723 63.1914221,31.3159871 63.1914221,31.4149799 C63.1914221,31.5139727 63.1080338,31.6029875 62.9808792,31.639729 C62.6424269,31.76302 62.2431624,31.76302 61.9047101,31.639729 C61.7775555,31.6029875 61.6941672,31.5139727 61.6941672,31.4149799 C61.6941672,31.3159871 61.7775555,31.2269723 61.9047101,31.1902307 C62.2431624,31.0669397 62.6424269,31.0669397 62.9808792,31.1902307 Z" id="路径" fill="#FCCC6B" fill-rule="nonzero"></path>
                    <path d="M64.6429626,30.4986949 C64.9418985,30.6197136 64.9418985,30.8185302 64.6429626,30.9481932 C64.3077762,31.0686004 63.9139373,31.0686004 63.5787509,30.9481932 C63.2798151,30.8185302 63.2798151,30.6197136 63.5787509,30.4986949 C63.9139373,30.3782876 64.3077762,30.3782876 64.6429626,30.4986949 Z" id="路径" fill="#FCCC6B" fill-rule="nonzero"></path>
                    <path d="M21.0293939,8.60618389 C20.9372691,8.62090109 20.8412631,8.62090109 20.7491383,8.60618389 L0.268917659,0.698393621 C0.00855286256,0.587125299 -0.0766135022,0.359095471 0.074894516,0.178903749 C0.233004895,0.00656448461 0.566732062,-0.0508775198 0.82942896,0.0490312811 L21.3096496,7.95682155 C21.5671161,8.06265524 21.6529316,8.28604082 21.5036727,8.46188115 C21.3959309,8.56363685 21.214772,8.61875577 21.0293939,8.60618389 Z" id="路径" fill="#88FFF3" fill-rule="nonzero"></path>
                    <path d="M31.3174755,35.4076243 L9.5429871,26.3139278 C7.88090368,25.6223919 8.09613751,24.4208483 9.99736961,23.6255821 L30.8511356,14.9208745 C32.8379736,14.1178577 35.2340552,14.0440805 37.3081503,14.7220579 L59.0945962,23.8157545 C60.7447222,24.5072903 60.5414458,25.7088339 58.6282562,26.5127443 L37.7744902,35.2520288 C35.7780586,36.0411655 33.3821686,36.0988996 31.3174755,35.4076243 Z" id="路径" fill-opacity="0.5" fill="url(#linearGradient-21)" fill-rule="nonzero" opacity="0.6"></path>
                    <path d="M66.436461,17.9376997 L66.436461,14.289848 L53.4387296,14.289848 L38.0495112,7.86720869 C35.4720641,7.02800325 32.4978447,7.11772448 30.0260726,8.10924624 L15.1749388,14.289848 L2.17696339,14.289848 L2.17696339,18.1192278 L2.17696339,18.1192278 C2.16379128,18.7900307 2.70468637,19.4020631 3.55231235,19.6751835 L30.588072,30.9558622 C33.1603102,31.799102 36.1336082,31.7092747 38.5995532,30.7138247 L64.4754418,19.9172211 C65.6021047,19.5856388 66.3649767,18.8155692 66.436461,17.9376997 L66.436461,17.9376997 Z" id="路径" fill="#312A91" fill-rule="nonzero"></path>
                    <path d="M66.436461,17.9376997 L66.436461,14.289848 L53.4387296,14.289848 L38.0495112,7.86720869 C35.4720641,7.02800325 32.4978447,7.11772448 30.0260726,8.10924624 L15.1749388,14.289848 L2.17696339,14.289848 L2.17696339,18.1192278 L2.17696339,18.1192278 C2.16379128,18.7900307 2.70468637,19.4020631 3.55231235,19.6751835 L30.588072,30.9558622 C33.1603102,31.799102 36.1336082,31.7092747 38.5995532,30.7138247 L64.4754418,19.9172211 C65.6021047,19.5856388 66.3649767,18.8155692 66.436461,17.9376997 L66.436461,17.9376997 Z" id="路径" fill="url(#linearGradient-22)" fill-rule="nonzero" opacity="0.5"></path>
                    <path d="M38.0375538,7.86720869 C36.8850043,7.44320534 35.5981666,7.2464168 34.3068342,7.2966916 L34.3068342,31.5609561 C35.8131133,31.5462603 37.2913299,31.2642624 38.6115107,30.7397573 L64.4873992,19.9431536 C65.6206646,19.6049977 66.3805972,18.823078 66.436461,17.9376997 L66.436461,14.289848 L53.4387296,14.289848 L38.0375538,7.86720869 Z" id="路径" fill="url(#linearGradient-23)" fill-rule="nonzero"></path>
                    <path d="M30.6000295,27.1264824 L3.56426979,15.8458037 C1.50759103,14.9813838 1.77065459,13.4945817 4.13822665,12.500499 L30.0141152,1.69525113 C32.4842968,0.699648971 35.4612214,0.609846136 38.0375538,1.45321358 L65.0613561,12.6906713 C67.1180348,13.5550911 66.8549713,15.0418932 64.4873992,16.035976 L38.6115107,26.8844448 C36.1455656,27.8798949 33.1722676,27.9697222 30.6000295,27.1264824 Z" id="路径" fill="#312A91" fill-rule="nonzero"></path>
                    <path d="M30.6000295,27.1264824 L3.56426979,15.8458037 C1.50759103,14.9813838 1.77065459,13.4945817 4.13822665,12.500499 L30.0141152,1.69525113 C32.4842968,0.699648971 35.4612214,0.609846136 38.0375538,1.45321358 L65.0613561,12.6906713 C67.1180348,13.5550911 66.8549713,15.0418932 64.4873992,16.035976 L38.6115107,26.8844448 C36.1455656,27.8798949 33.1722676,27.9697222 30.6000295,27.1264824 Z" id="路径" fill="url(#linearGradient-24)" fill-rule="nonzero"></path>
                    <path d="M31.3174755,24.6369533 L9.5429871,15.5259683 C7.88090368,14.8344325 8.09613751,13.6328889 9.99736961,12.8289785 L30.8511356,4.13291504 C32.8379736,3.32989831 35.2340552,3.25612108 37.3081503,3.93409848 L59.0945962,13.027795 C60.7447222,13.7193309 60.5414458,14.9208745 58.6282562,15.7247849 L37.7744902,24.4381367 C35.7876522,25.2411535 33.3915707,25.3149307 31.3174755,24.6369533 L31.3174755,24.6369533 Z" id="路径" fill="#5CFFF3" fill-rule="nonzero"></path>
                    <path d="M9.99736961,14.030522 L30.8511356,5.3258144 C32.8398951,4.52557918 35.2359347,4.45501089 37.3081503,5.13564204 L59.0945962,14.2206944 C59.453253,14.3635379 59.7572846,14.5684761 59.9794463,14.8171441 C60.2204302,14.5012468 60.2614506,14.1256045 60.0920169,13.7862852 C59.9225832,13.4469659 59.5591257,13.1768739 59.0945962,13.0450834 L37.3081503,3.95138688 C35.2340552,3.27340948 32.8379736,3.34718671 30.8511356,4.15020344 L9.99736961,12.8462669 C8.56247746,13.4513608 8.09613751,14.2812038 8.6461795,14.9554513 C8.96965678,14.5627814 9.43736958,14.2426183 9.99736961,14.030522 Z" id="路径" fill="#42E8E0" fill-rule="nonzero"></path>
                    <path d="M31.5087945,27.1264824 L4.47303482,15.8458037 C2.41635606,14.9813838 1.92610124,13.7279751 5.04699168,12.500499 L30.9228802,1.69525113 C32.1680731,1.19984112 33.5561546,0.921594558 34.9764505,0.882696494 C33.2499744,0.81446684 31.5314136,1.09587155 30.0141152,1.69525113 L4.13822665,12.500499 C1.74673972,13.4945817 1.50759103,14.990028 3.56426979,15.8458037 L30.6000295,27.1264824 C31.8190646,27.5815312 33.1907067,27.779248 34.5579403,27.6969995 C33.4933916,27.6841294 32.4483076,27.4885867 31.5087945,27.1264824 L31.5087945,27.1264824 Z" id="路径" fill="url(#linearGradient-25)" fill-rule="nonzero" opacity="0.5"></path>
                    <path d="M64.4873992,17.7129505 L38.6115107,28.4922657 C36.1439685,29.4836239 33.1733869,29.5733692 30.6000295,28.7343033 L3.56426979,17.4449804 C2.71636921,17.1767373 2.17419461,16.5666654 2.18886251,15.8976689 L2.18886251,15.8976689 L2.18886251,16.6929351 L2.18886251,16.6929351 C2.17574872,17.363738 2.71664381,17.9757704 3.56426979,18.2488908 L30.6000295,29.5295695 C33.1722676,30.3728093 36.1455656,30.282982 38.6115107,29.287532 L64.4873992,18.4909283 C65.6206646,18.1527724 66.3805972,17.3708527 66.436461,16.4854743 L66.436461,15.6902081 C66.5201631,16.3903882 65.8625042,17.1424334 64.4873992,17.7129505 Z" id="路径" fill="url(#linearGradient-26)" fill-rule="nonzero" opacity="0.5"></path>
                    <ellipse id="椭圆形" fill="#FCCC6B" fill-rule="nonzero" cx="59.4891915" cy="16.7534445" rx="1" ry="1"></ellipse>
                    <path d="M61.6893595,15.8371595 C61.8191302,15.8698069 61.9060985,15.958255 61.9060985,16.0575865 C61.9060985,16.156918 61.8191302,16.2453662 61.6893595,16.2780136 C61.3509072,16.4013046 60.9516427,16.4013046 60.6131904,16.2780136 C60.4834197,16.2453662 60.3964514,16.156918 60.3964514,16.0575865 C60.3964514,15.958255 60.4834197,15.8698069 60.6131904,15.8371595 C60.9516427,15.7138685 61.3509072,15.7138685 61.6893595,15.8371595 L61.6893595,15.8371595 Z" id="路径" fill="#FCCC6B" fill-rule="nonzero"></path>
                    <path d="M63.3514429,15.1369794 C63.4785975,15.173721 63.5619858,15.2627358 63.5619858,15.3617286 C63.5619858,15.4607214 63.4785975,15.5497362 63.3514429,15.5864777 C63.0129906,15.7097687 62.6137261,15.7097687 62.2752738,15.5864777 C62.1481192,15.5497362 62.0647309,15.4607214 62.0647309,15.3617286 C62.0647309,15.2627358 62.1481192,15.173721 62.2752738,15.1369794 C62.6137261,15.0136884 63.0129906,15.0136884 63.3514429,15.1369794 Z" id="路径" fill="#FCCC6B" fill-rule="nonzero"></path>
                </g>
            </g>
        </g>
    </g>
</svg>